<?xml version="1.0" encoding="iso-8859-1"?>
<!-- Generator: Adobe Illustrator 19.0.0, SVG Export Plug-In . SVG Version: 6.00 Build 0)  -->
<svg version="1.1" id="Capa_1" xmlns="http://www.w3.org/2000/svg" xmlns:xlink="http://www.w3.org/1999/xlink" x="0px" y="0px"
	 viewBox="0 0 500 500" style="enable-background:new 0 0 500 500;" xml:space="preserve">
<g>
	<path style="fill:none;stroke:#FFFFFF;stroke-width:9.0033;stroke-miterlimit:10;" d="M249.998,430.556
		c-24.038,0-46.494-4.762-68.124-13.506c-3.775-2.999-8.789-3.678-13.048-1.465c-1.061,0.372-2.06,0.879-2.978,1.513
		c-14.003,6.895-28.775,9.984-44.322,9.984c-9.986,0-19.968-1.313-29.526-4.062c10.69-7.896,20.161-17.522,28.261-28.563
		c0.132-0.122,0.269-0.233,0.397-0.362c1.781-1.779,2.938-3.866,3.501-6.046c1.8-5.351-0.259-11.234-5.234-14.787
		c-0.549-0.392-1.115-0.717-1.688-1.011c-30.82-33.419-47.794-77.027-47.794-122.254c0-7.812,0.868-14.755,1.737-21.701
		c0-4.338,0.868-9.549,1.737-13.886c16.491-84.204,91.144-144.966,177.081-144.966c99.827,0,180.558,80.726,180.558,180.554
		C430.556,349.824,349.825,430.556,249.998,430.556z"/>
	<path style="fill:#FFFFFF;" d="M271.596,249.226c0,11.93-9.668,21.598-21.598,21.598c-11.927,0-21.595-9.667-21.595-21.598
		c0-11.927,9.668-21.598,21.595-21.598C261.928,227.628,271.596,237.299,271.596,249.226L271.596,249.226z M271.596,249.226"/>
	<path style="fill:#FFFFFF;" d="M354.13,249.226c0,11.93-9.672,21.598-21.598,21.598c-11.927,0-21.599-9.667-21.599-21.598
		c0-11.927,9.672-21.598,21.599-21.598C344.458,227.628,354.13,237.299,354.13,249.226L354.13,249.226z M354.13,249.226"/>
	<path style="fill:#FFFFFF;" d="M188.294,249.226c0,11.93-9.668,21.598-21.599,21.598c-11.926,0-21.598-9.667-21.598-21.598
		c0-11.927,9.672-21.598,21.598-21.598C178.626,227.628,188.294,237.299,188.294,249.226L188.294,249.226z M188.294,249.226"/>
</g>
</svg>
