<?xml version="1.0" encoding="iso-8859-1"?>
<!-- Generator: Adobe Illustrator 19.0.0, SVG Export Plug-In . SVG Version: 6.00 Build 0)  -->
<svg version="1.1" id="Capa_1" xmlns="http://www.w3.org/2000/svg" xmlns:xlink="http://www.w3.org/1999/xlink" x="0px" y="0px"
	 viewBox="0 0 500 500" style="enable-background:new 0 0 500 500;" xml:space="preserve">
<g>
	<g>
		<g>
			<path d="M262.783,437.961h-25.566c-4.143,0-8.146-1.219-11.576-3.525c-4.376-2.947-8.101-6.514-11.09-10.615
				c-25.23-8.87-28.587-25.143-28.847-31.807l-0.003-0.082c-0.105-1.747-1.299-21.676-1.765-31.907
				c-15.978-12.443-24.751-28.711-24.751-45.99c0-6.179-4.516-13.102-12.499-24.806c-13.906-20.394-32.947-48.318-32.947-95.307
				c0-72.721,61.129-131.883,136.266-131.883c75.131,0,136.254,59.163,136.254,131.883c0,46.981-18.959,74.789-32.803,95.094
				c-8.085,11.872-12.631,18.85-12.631,25.019c0,17.326-8.772,33.595-24.751,45.995c-0.473,10.363-1.69,30.668-1.769,31.96
				c-0.205,6.713-3.475,22.935-28.822,31.835c-3.026,4.113-6.759,7.678-11.111,10.609
				C270.941,436.742,266.935,437.961,262.783,437.961z M193.701,391.776c0.271,6.362,3.854,17.98,24.632,24.883l1.284,0.427
				l0.761,1.118c2.539,3.728,5.812,6.956,9.729,9.595c2.103,1.414,4.562,2.162,7.109,2.162h25.566c2.555,0,5.019-0.748,7.123-2.164
				c3.898-2.626,7.188-5.86,9.774-9.612l0.76-1.104l1.272-0.422c21.774-7.233,24.457-19.864,24.6-24.959l0.005-0.129
				c0.015-0.24,1.448-24.059,1.847-33.759l0.079-1.913l1.539-1.139c14.86-10.99,23.044-25.454,23.044-40.727
				c0-8.52,5.048-16.348,13.969-29.449c13.309-19.521,31.465-46.149,31.465-90.663c0-68.31-57.534-123.883-128.254-123.883
				c-70.726,0-128.266,55.574-128.266,123.883c0,44.521,18.237,71.267,31.554,90.796c8.873,13.01,13.891,20.784,13.891,29.316
				c0,15.229,8.186,29.693,23.05,40.73l1.533,1.14l0.079,1.908c0.398,9.7,1.833,33.519,1.847,33.759L193.701,391.776z"/>
		</g>
		<path d="M238.801,246.271c0.994,7.413,4.568,9.447,11.205,9.447c6.591,0,10.211-2.035,11.205-9.447l7.898-59.623
			c0.497-4.07,1.041-8.176,1.041-11.968v-29.592c0-13.009-7.412-19.601-20.144-19.601c-12.743,0-20.144,6.591-20.144,19.601v29.592
			c0,3.793,0.497,7.898,1.041,11.968L238.801,246.271z M238.801,246.271"/>
		<path d="M250.006,272.289c-11.471,0-20.919,9.401-20.919,20.872c0,11.471,9.448,20.919,20.919,20.919
			c11.471,0,20.907-9.448,20.907-20.919C270.913,281.69,261.477,272.289,250.006,272.289L250.006,272.289z M250.006,272.289"/>
	</g>
	<g>
		<rect x="187.851" y="353.977" width="124.311" height="8"/>
	</g>
</g>
</svg>
