<?xml version="1.0" encoding="iso-8859-1"?>
<!-- Generator: Adobe Illustrator 19.0.0, SVG Export Plug-In . SVG Version: 6.00 Build 0)  -->
<svg version="1.1" id="Layer_1" xmlns="http://www.w3.org/2000/svg" xmlns:xlink="http://www.w3.org/1999/xlink" x="0px" y="0px"
	 viewBox="-43 147 500 500" style="enable-background:new -43 147 500 500;" xml:space="preserve">
<g>
	<g>
		<circle cx="344.032" cy="317.884" r="10.669"/>
		<circle cx="275.517" cy="317.884" r="10.669"/>
		<circle cx="207.001" cy="317.884" r="10.669"/>
		<circle cx="138.486" cy="317.884" r="10.669"/>
		<circle cx="69.97" cy="317.884" r="10.669"/>
		<circle cx="344.032" cy="386.399" r="10.669"/>
		<circle cx="275.517" cy="386.399" r="10.669"/>
		<circle cx="207.001" cy="386.399" r="10.669"/>
		<circle cx="69.97" cy="386.399" r="10.669"/>
		<circle cx="344.032" cy="454.915" r="10.669"/>
		<circle cx="275.517" cy="454.915" r="10.669"/>
		<circle cx="207.001" cy="454.915" r="10.669"/>
		<circle cx="138.486" cy="454.915" r="10.669"/>
		<circle cx="69.97" cy="454.915" r="10.669"/>
		<circle cx="344.032" cy="522.851" r="10.669"/>
		<circle cx="275.517" cy="522.851" r="10.669"/>
		<circle cx="207.001" cy="522.851" r="10.669"/>
		<circle cx="138.486" cy="522.851" r="10.669"/>
		<circle cx="69.97" cy="522.851" r="10.669"/>
		<path d="M170.681,345.033h-64.394c-5.065,0-9.171,4.105-9.171,9.171v64.395c0,5.065,4.105,9.171,9.171,9.171h64.394
			c5.065,0,9.171-4.105,9.171-9.171v-64.394C179.852,349.14,175.746,345.033,170.681,345.033z M161.51,409.428h-46.052v-46.052
			h46.052V409.428z"/>
		<g>
			<path d="M417.499,588.691H-3.499c-8.822,0-16-7.178-16-16V248.017c0-8.822,7.178-16,16-16h420.998c8.822,0,16,7.178,16,16
				v324.675C433.499,581.514,426.321,588.691,417.499,588.691z M-3.499,240.017c-4.411,0-8,3.589-8,8v324.675c0,4.411,3.589,8,8,8
				h420.998c4.411,0,8-3.589,8-8V248.017c0-4.411-3.589-8-8-8H-3.499z"/>
		</g>
	</g>
	<g>
		<path d="M43.926,271.964c-4.738,0-8.579-3.841-8.579-8.579v-54.077c0-4.738,3.841-8.579,8.579-8.579s8.579,3.841,8.579,8.579
			v54.077C52.504,268.123,48.664,271.964,43.926,271.964z"/>
	</g>
	<g>
		<path d="M106.302,271.964c-4.738,0-8.579-3.841-8.579-8.579v-54.077c0-4.738,3.841-8.579,8.579-8.579s8.579,3.841,8.579,8.579
			v54.077C114.881,268.123,111.04,271.964,106.302,271.964z"/>
	</g>
	<g>
		<path d="M168.678,271.964c-4.738,0-8.579-3.841-8.579-8.579v-54.077c0-4.738,3.841-8.579,8.579-8.579s8.579,3.841,8.579,8.579
			v54.077C177.257,268.123,173.416,271.964,168.678,271.964z"/>
	</g>
	<g>
		<path d="M231.055,271.964c-4.737,0-8.578-3.841-8.578-8.579v-54.077c0-4.738,3.841-8.579,8.578-8.579s8.578,3.841,8.578,8.579
			v54.077C239.633,268.123,235.792,271.964,231.055,271.964z"/>
	</g>
	<g>
		<path d="M293.432,271.964c-4.737,0-8.578-3.841-8.578-8.579v-54.077c0-4.738,3.841-8.579,8.578-8.579s8.578,3.841,8.578,8.579
			v54.077C302.01,268.123,298.169,271.964,293.432,271.964z"/>
	</g>
	<g>
		<path d="M355.808,271.964c-4.737,0-8.578-3.841-8.578-8.579v-54.077c0-4.738,3.841-8.579,8.578-8.579s8.578,3.841,8.578,8.579
			v54.077C364.386,268.123,360.545,271.964,355.808,271.964z"/>
	</g>
</g>
</svg>
