<?xml version="1.0" encoding="iso-8859-1"?>
<!-- Generator: Adobe Illustrator 19.0.0, SVG Export Plug-In . SVG Version: 6.00 Build 0)  -->
<svg version="1.1" id="Layer_1" xmlns="http://www.w3.org/2000/svg" xmlns:xlink="http://www.w3.org/1999/xlink" x="0px" y="0px"
	 viewBox="-43 147 500 500" style="enable-background:new -43 147 500 500;" xml:space="preserve">
<g>
	<g>
		<g>
			<path d="M42.889,581.556c-5.461,0-10.595-2.127-14.457-5.988c-3.861-3.861-5.988-8.995-5.988-14.456s2.126-10.595,5.988-14.456
				l71.436-71.437c-22.564-29.052-34.694-65.102-34.224-101.928c1.129-88.516,74.081-160.671,162.621-160.847l0,0
				c0.109,0,0.221,0,0.329,0c43.466,0,84.357,16.962,115.18,47.785c30.898,30.9,47.867,71.921,47.78,115.507
				c-0.176,88.539-72.332,161.49-160.848,162.619c-36.795,0.452-72.874-11.66-101.926-34.223l-71.436,71.435
				C53.483,579.429,48.35,581.556,42.889,581.556z M228.281,220.444c-84.193,0.167-153.563,68.779-154.638,152.949
				c-0.461,36.161,11.854,71.535,34.68,99.607l2.277,2.8l-76.51,76.511c-2.351,2.351-3.645,5.476-3.645,8.8s1.294,6.449,3.645,8.8
				c2.35,2.351,5.475,3.645,8.799,3.645c3.324,0,6.449-1.294,8.799-3.645l76.511-76.51l2.8,2.276
				c28.072,22.824,63.489,35.158,99.606,34.678c84.169-1.073,152.782-70.442,152.949-154.635
				c0.083-41.443-16.054-80.45-45.438-109.835c-29.31-29.31-68.197-45.442-109.522-45.442
				C228.488,220.444,228.388,220.444,228.281,220.444L228.281,220.444z"/>
		</g>
		<path d="M291.591,329.372c-16.219-16.219-42.609-16.22-58.829,0l-4.326,4.326l-4.326-4.326c-16.221-16.22-42.61-16.219-58.829,0
			c-16.624,16.624-16.164,42.665,0,58.829l63.155,63.156l63.155-63.156C307.755,372.037,308.215,345.995,291.591,329.372z"/>
	</g>
	<g>
		<path d="M228.593,538.368c-89.857,0-162.962-73.104-162.962-162.962s73.104-162.962,162.962-162.962
			c89.858,0,162.963,73.104,162.963,162.962S318.451,538.368,228.593,538.368z M228.593,220.444
			c-85.446,0-154.962,69.516-154.962,154.962s69.516,154.962,154.962,154.962c85.447,0,154.963-69.516,154.963-154.962
			S314.04,220.444,228.593,220.444z"/>
	</g>
</g>
</svg>
