<?xml version="1.0" encoding="utf-8"?>
<!-- Generator: Adobe Illustrator 19.0.0, SVG Export Plug-In . SVG Version: 6.00 Build 0)  -->
<svg version="1.1" id="Layer_1" xmlns="http://www.w3.org/2000/svg" xmlns:xlink="http://www.w3.org/1999/xlink" x="0px" y="0px"
	 viewBox="0 0 567.9 685" style="enable-background:new 0 0 567.9 685;" xml:space="preserve">
<style type="text/css">
	.st0{fill:#FF3000;}
	.st1{fill:#FF5F00;}
	.st2{fill:#FFFFFF;}
	.st3{clip-path:url(#SVGID_2_);}
	.st4{fill:#EC8C6F;}
	.st5{fill:#E02F3A;}
	.st6{fill:#F1A67F;}
	.st7{fill:#6C2311;}
	.st8{fill:#BA0F19;}
	.st9{fill:#F9E1E1;}
	.st10{fill:#F4C0BD;}
	.st11{fill:#009B36;}
	.st12{fill:#E0D200;}
	.st13{fill:#E04976;}
	.st14{fill:#FFFFFF;stroke:#000000;stroke-width:1.0471;stroke-miterlimit:10;}
	.st15{fill:#64BFDE;stroke:#009B36;stroke-width:0.9574;stroke-miterlimit:10;}
	.st16{fill:#441A0F;}
	.st17{fill:#7DB420;}
	.st18{fill:#EDE756;}
	.st19{fill:none;stroke:#009B36;stroke-width:2.0943;stroke-miterlimit:10;}
	.st20{fill:none;stroke:#000000;stroke-width:2.0943;stroke-miterlimit:10;}
	.st21{fill:#FFFFFF;stroke:#000000;stroke-width:2.0943;stroke-miterlimit:10;}
	.st22{opacity:0.2;fill:#171714;}
	.st23{fill:#1F140F;}
	.st24{font-family:'MyriadPro-Regular';}
	.st25{font-size:8.2729px;}
</style>
<polygon class="st0" points="18.2,200.8 18.2,507.6 283.9,661 283.9,47.4 "/>
<polygon class="st1" points="549.6,200.8 283.9,47.4 283.9,661 549.6,507.6 "/>
<polygon class="st2" points="485.1,470.3 283.9,586.5 82.8,470.3 82.8,238 283.9,121.9 485.1,238 "/>
<g>
	<defs>
		<polygon id="SVGID_1_" points="485.1,470.3 283.9,586.5 82.8,470.3 40,177 98,47.4 283.9,7 485.1,37 549.6,113 485.1,313.6 		"/>
	</defs>
	<clipPath id="SVGID_2_">
		<use xlink:href="#SVGID_1_"  style="overflow:visible;"/>
	</clipPath>
	<g id="XMLID_448_" class="st3">
		<g id="XMLID_595_">
			<path d="M227.3,864.9c-1.5,0-3-0.1-4.5-0.2c-18.9-1.7-24.9-13.5-30.7-25c-0.8-1.7-1.7-3.4-2.6-5.1c0,0-0.1-0.1-0.1-0.1
				c-0.4-0.9-0.8-1.8-1.3-2.8c-4.7-10.1-9.5-20.5-8.9-31.9c0.1-1.5,0.3-3.1,0.6-4.7c-0.2-1.1-0.2-1.7-0.2-1.7
				c-0.1-1.1,0.4-2.1,1.3-2.6c0.5-1.8,1.2-3.6,1.8-5.2c1.6-4.6,3.2-8.9,3.2-14.7c0-0.3,0.1-0.7,0.2-1l4.7-11.5
				c5.8-24,10.9-57.4,13.7-89.4c0-0.1,0-0.1,0-0.2c0.3-3.4,0.6-6.8,0.8-10.1c0.5-6.3,0.8-12.3,1-18c1.4-35.2,23.1-60.5,28.2-66.1
				c-4.2-16.9-7.5-38.8-9.2-51c-0.3-0.5-0.6-1-0.8-1.4c-1.8,0.3-3.8,0.5-5.7,0.5c-21.2,0-42.6-17.4-43.5-18.1
				c-1-0.8-1.2-2.2-0.6-3.4l2.4-4.1c-19.5-11.5-23.4-30.6-23.5-31.4c-0.1-0.6,0-1.1,0.2-1.7c2.3-4.5,6.5-9.3,8.5-11.5
				c-3.3-8.6-3.4-15.4-3.4-15.7c0-0.6,0.2-1.2,0.6-1.7c5.4-6.1,11.8-10.8,14.5-12.7l-0.8-9.3c-0.1-0.8,0.2-1.6,0.8-2.1
				c13.8-13,44.6-22.5,51.5-24.5c3.5-9.7,8.8-16.2,12.7-19.9l-7.1-6.5c-6.7,10.2-20.4,12.4-21.6,12.6c-0.4,0.1-1.8,0.3-3.7,0.3
				c-1.6,0-3.1-0.1-4.5-0.4c-1.9,2.3-3.9,3.9-5.9,4.8c-1.7,1.8-3.4,3.1-5.1,3.8c-1.7,1.8-3.4,3.1-5.1,3.8c-1.7,1.8-3.4,3.1-5.1,3.8
				c-2.7,3-5.5,4.5-8.3,4.5c-1.1,0-2.1-0.2-3.1-0.6c-8.3,17.9-25.8,24.6-27.5,25.2c-4,1.8-6.3,4.2-7.1,7.5c-2.1,9.1,8,21.4,8.1,21.6
				c0.8,0.9,0.8,2.3,0.1,3.3c-0.5,0.7-1.3,1-2.1,1c-0.4,0-0.8-0.1-1.1-0.2c-11.9-5.6-19.8-17.2-21.2-31.3
				c-1.5-14.7,4.6-28.9,15.7-37c7.9-5.8,20.8-7,27.2-7.2c0.1-1.1,0.3-2.2,0.7-3.1c1.7-4.6,4.4-6.5,6.8-7.2c1.6-2.3,3.5-3.3,5.1-3.8
				c1.6-2.3,3.5-3.3,5.1-3.8c1.6-2.3,3.6-3.4,5.2-3.9c2-2.6,5-4,8.5-4c0.2,0,0.4,0,0.6,0c2.5-8.9,6.3-13.8,9.1-16.4
				c-2-1.8-4.1-3.7-6.2-5.7c-19.7-18.1-27.8-39.1-21.6-56c3-8.3,9.2-14.2,17.1-16.8c-6.3-5-7.1-11.9-6.3-16.5
				c-9.5-7.7-9.6-17.9-8-23.5c-17-21.3-7.5-40.2-4.5-45.2c-1.7-4.6-6.5-19.9-1.4-37.4c2.8-9.9,9.1-19.1,14.4-25.6
				c-0.3-0.3-0.6-0.6-1-0.9c-30-29.7-10.7-56.8-10.5-57.1c0.5-0.7,1.3-1.1,2.1-1.1c0.3,0,0.6,0,0.8,0.1c1.1,0.4,1.8,1.4,1.8,2.5
				c-0.3,24,11.5,31.6,24.8,35.8c2.7-3.2,5.3-6,7.7-8.3c6-5.4,13.2-8.3,20.8-8.3c1.9,0,3.8,0.2,5.7,0.5c2.8-3.4,4.7-7.2,5.5-11.5
				c-0.2-0.5-0.4-1-0.7-1.5c-1.7-3.6-3.2-6.4-4.1-8.2c-1.3-2.4-2.4-4.4-0.2-5.8l0,0c0.4-0.3,0.9-0.4,1.4-0.4c1.4,0,2.2,0.7,4.3,3.8
				c1.1,1.5,2.7,4.1,4.6,7.8c0.4,0.7,0.8,1.5,1.2,2.4c1.6,0.5,3.9,0.9,6.8,0.9c8.6,0,22.2-3.9,38.3-22.6c-0.4-2.9-0.7-5.3-1-6.9
				c-0.5-2.9-0.8-5.2,1.7-5.7c0.2,0,0.4-0.1,0.5-0.1c1.5,0,3.3,0,5.4,14.6c6.1,13.1,14.1,28,20.2,34.7c0.4-1.8,0.7-3.3,0.9-4.5
				c0.5-2.7,0.9-4.6,3.2-4.6c0,0,0.3,0,0.3,0c0.7,0.1,1.4,0.4,1.8,1c1.6,2-0.2,11.4-0.8,14.2c-0.2,1-0.5,2.2-0.8,3.3
				c0.3,5.3,2.1,14.3,9.9,17.9c0.7,0.3,1.3,1,1.5,1.8c0.2,0.8,0,1.6-0.6,2.3l-3.7,4.4c0.5,0.8,0.9,1.7,1.1,2.5
				c3.1-0.3,6.4-0.5,9.8-0.6c17.1-0.9,34.8-1.8,42.6-17.1c0.5-0.9,1.4-1.4,2.3-1.4c0.3,0,0.5,0,0.8,0.1c1.2,0.4,2,1.6,1.8,2.9
				c-0.2,1.3-5.4,31.8-32.2,38.8c-7.2,1.9-13.9,5.7-20,11.3c3.1,14.4-4.4,23.3-9.9,27.6c0,0.6,0,1.2-0.1,1.8
				c-1.4,18.5-12.2,25-15.9,26.7c-0.8,2.1-1.7,4.2-2.7,6.3c1.8,2.4,3.9,5.8,5.3,10.4c1-0.1,2-0.2,2.9-0.2c2.3,0,4.6,0.3,6.6,1
				c9.8,3.1,17.4,19.4,22.5,48.5c1.4-1.2,2.3-1.8,2.4-1.9c0.4-0.3,0.9-0.4,1.4-0.4c0.6,0,1.2,0.2,1.7,0.6c0.9,0.8,1.2,2,0.7,3.1
				c-0.7,1.5-1.1,6.2-1.3,11.1c2.1-2.1,4.2-3.8,5.3-4.7c0.5-0.4,1.1-0.6,1.6-0.6c0.6,0,1.1,0.2,1.6,0.5c1,0.7,1.3,2,0.8,3.1
				c-0.1,0.3-0.2,0.5-0.3,0.8c0.1,0,0.1,0,0.2,0c1,0.1,1.9,0.9,2.2,1.9l1.7,6.6c0.4-0.2,0.7-0.3,1.2-0.3c0,0,0.1,0,0.1,0
				c0.2,0,0.4,0,0.5,0.1c4.6-11.1,8.6-18.6,11.7-22.4c5.9-7.2,7.4-19.1,7.7-21.8c-3.6-8.7-1.8-18.2-0.4-25.2
				c0.5-2.7,1.1-5.5,0.8-6.6c-0.7-3.7-5.7-15.9-7.5-20.2c-0.4-1.1-0.1-2.3,0.7-3c2.5-2.1,5-3.1,7.6-3.1c5.2,0,8.8,4.3,11.1,8.4
				c1.1-4.1,2-7.9,2.1-8.4c0.2-1,1.6-7.5,4.4-11.6c0.6-6.2,4.4-14.9,9.5-14.9c4.1,0,7.1,3.6,7.4,4c0.5,0.7,0.7,1.6,0.4,2.4l-3.1,9.9
				c-1.4,5.1-3,12.3-3.6,16.6c0.4,0,0.7-0.1,1.1-0.1c3.9,0,6.1,2.2,7.3,4.3c0.7-0.1,1.6-0.3,2.5-0.3c2.1,0,3.9,0.6,5.3,1.8
				c0.6,0.5,1.1,1,1.5,1.5l3.9-7.5c3.1-7.3,5.4-12.5,10-12.5c1,0,2.1,0.3,3.1,0.9c4.9,2.9,3,6.7,1.5,9.8c-0.6,1.2-1.3,2.5-1.9,4.2
				c-0.7,1.7-1.3,3.9-1.9,6.5c-1.4,5.3-3.1,11.9-7.2,19.8c-4.2,8.1-20.3,28.4-23.4,32.3c-0.3,2.3-1.5,8.9-5.9,13.9
				c-4.5,13.1-8.8,29.7-13,45.8c-1.1,4.3-2.3,8.7-3.4,13c1.1-0.7,1.8-1.2,2.2-1.5c0.5-0.4,1.1-0.7,1.7-0.7c0.3,0,0.6,0,0.9,0.1
				c0.6,0.2,1.1,0.6,1.4,1.1c0-0.1,0-0.1,0-0.2c-0.1-1,0.3-2,1.2-2.6c0.1,0,8.1-5.3,9.3-13c1.7-10.6,16.5-20.8,25.3-21.8
				c0.1,0,0.2,0,0.3,0c0.9,0,1.8,0.5,2.2,1.3c0.5,0.9,0.5,2-0.1,2.8c-0.1,0.1-9.8,14.9-1.5,25.7c0.8,1,0.7,2.4-0.1,3.4
				c-0.2,0.2-4.6,5.3-3.2,11.9c3.5-3.9,7.8-6.1,12.6-6.4c0.4-0.1,0.9-0.1,1.3-0.1c0,0,0,0,0.1,0c0-0.9-0.2-1.7-0.6-2.5
				c-0.7-1.1-0.4-2.6,0.6-3.4c0.6-0.5,15-12.4,7.9-27.5c-0.5-1.2-0.2-2.5,0.9-3.3c0.5-0.3,1-0.5,1.5-0.5c0.7,0,1.3,0.3,1.9,0.8
				c0.5,0.5,12.4,12.5,10.8,25.2c-1.1,8.7,1.4,11.5,1.8,11.9c0.9,0.5,1.3,1.5,1.2,2.5c-0.1,1.1-1,1.9-2,2.2c-0.1,0-4.8,1.3-8.5,3.8
				c0.8,0.8,1.5,1.7,1.5,2.9c0.8-0.9,1.5-2,1.9-3.2c0.3-1.1,1.4-1.9,2.5-1.9c0.1,0,0.2,0,0.4,0c1.3,0.2,2.3,1.3,2.3,2.6
				c0,0.1,0.1,6.5,4.7,8.6c1,0.5,1.6,1.5,1.5,2.6c-0.1,1.1-0.8,2-1.9,2.3c0,0-3.8,1.1-7,2.9c0.8,0.8,1.5,1.4,1.8,1.7
				c1.8,1.2,2.7,3.5,2.3,5.8c-0.4,2.4-2.1,4.1-4.4,4.6c-0.5,0.1-1.3,0.6-2.2,1.1c-1.8,1.1-4.4,2.6-7.5,2.6c0,0,0,0,0,0
				c-1.2,0-2.4-0.2-3.5-0.6c-2.1-0.8-3.7-1.5-4.9-2.1c-0.7,1.8-1.4,4.5-0.7,7.1c0.8,3,3.2,5.5,7.1,7.4c0.7,0.3,1.3,0.6,1.9,0.9
				c1.2,0.5,1.9,1.8,1.6,3.1l-1.6,6.4c-0.3,1.1-1.1,1.8-2.2,2c-0.1,0-2.1,0.2-4.7,0.2c-5.6,0-9.9-1-12.7-2.9
				c-0.4-0.3-0.8-0.5-1.2-0.8c-3-1.9-7.4-4.8-10.2-11.3c-4.8,2-13.2,6.8-21.5,18.4c1.2,1.4,2.6,3.3,2.6,5.2c0.3,0.3,0.8,0.8,1.2,1.2
				c2.5,2.4,7.8,7.4,3.5,13.2c-1.5,2-1.2,4.1-0.3,7.2c0.7,2.5,1.5,5.6-0.9,7.9c-1,1-2.2,4.4-3.1,6.9c-1.6,4.4-2.6,7.1-4.5,8.3
				c-2.3,1.4-7.5,1.7-10.3,1.7c-5.1,0-6.4-1-7.1-2c-0.6-0.7-3.7-2.4-5.2-3.2c-0.7-0.4-1.4-0.8-2-1.1c-4.6,1.7-8.8,2.6-12.6,2.6
				c-1.1,0-2.1-0.1-3.1-0.2c3.7,24.4,14.9,45.7,24.5,54.6c1,1,1.1,2.6,0.2,3.7c-7,7.9-16.7,11-20.4,12c-4.3,11.6-13.7,17.2-21.4,20
				c-2,9.8-4.7,19.1-8,27.4c0.6,3.6,2.1,17.4-9.1,29.5c-0.7,4.7-4.4,29.6-7.8,56.8c-0.3,2-0.5,4-0.8,6l0.1,0.5c0.1,0.7,0,1.4-0.4,2
				l-0.4,3.1c0.1,0.3,0,0.7,0,1l-0.2,0.8c-5.6,45.7-5.8,61.3-5.1,66.4c0,0.2,0,0.4,0,0.6c-0.6,7.6,13.5,21.5,18.1,26.1
				c0.7,0.7,1.3,1.3,1.8,1.8c2.5,2.6,8.6,4.6,14.5,6.6c7.5,2.5,14.6,4.8,17.9,9.1c0.1,0.1,0.2,0.3,0.3,0.4c0.4,0.5,0.6,1,0.9,1.5
				c0.9,2,0.7,4.1-0.5,6c-3.3,5.2-14.9,8.8-28.1,8.8c-8.1,0-16-1.4-23-4c-5.7-2.1-11.9-2.2-17.8-2.3c-8.7-0.1-17.7-0.2-24.3-7.1
				c-0.5-0.5-0.7-1.1-0.7-1.8c0-1.4,0.1-2.5,0.2-3.6c0-0.3,0.1-0.6,0.1-0.9c-0.4-0.4-0.6-1-0.7-1.6c0-0.6,0.1-1.2,0.5-1.7
				c-2.4-12.9,1.9-25.2,4.9-33.4c0.3-0.8,0.6-1.7,0.9-2.4c1.7-4.9-1.6-35.8-4.4-63.1c-0.7-7-1.5-14-2.2-20.8
				c-0.8-7.7-1.4-14.2-1.9-19.8c-6.1,13.4-11.6,26.7-16.6,39.6c-10.9,28.4-18.3,53.5-21.8,74.5l-9,54.3c8.3,17.1,9.6,24.1,10.3,28.3
				c0.5,3,0.8,4.1,3.3,7.2c2.2,2.6,4.1,4.1,5.8,5.5c3,2.4,5.6,4.6,6.4,9.9c0.1,0.1,0.2,0.3,0.3,0.4c0.3,0.6,0.3,1.4,0.1,2
				c0,0.1,0,0.1-0.1,0.2c0,0.4,0,0.8,0,1.2c0.2,4.8-1.2,8.9-4.3,12.1C244.4,862.3,236.7,864.9,227.3,864.9z M351.6,371.2
				c3,0.5,5.7,1.5,8.2,3.1c3.6,2.2,6.4,6.8,8.9,14.5c0.8-0.2,1.5-0.3,2.4-0.5c2.7-0.5,5.6-1.2,8.7-1.7c2.1-7.8,9.3-23.4,32.9-35.8
				c-1.1-0.3-2.7-0.6-4.7-0.6c-4,0-8.9,1-14.6,2.9c-0.3,0.1-0.6,0.1-0.8,0.1c-0.5,0-1-0.1-1.4-0.4c-0.7-0.4-1.1-1.1-1.2-1.9
				c0,0-0.1-0.9-0.4-2.2c-5.1,15.9-9.1,22.7-13.7,23.9c-0.2,0.1-0.5,0.1-0.7,0.2c-0.8,0.2-1.6,0.2-2.4,0.2c0,0,0,0,0,0
				c-4.9,0-10.4-2.6-16.3-7.7c-1-0.8-1.9-1.7-2.8-2.5C352.6,366.1,352,369.1,351.6,371.2z M403.1,323.4c0.1,0.5,2.2,11.6,11.4,13.8
				c-1-4.1-3.7-10.8-10-12.7C403.9,324.3,403.4,323.8,403.1,323.4C403.1,323.3,403.1,323.4,403.1,323.4z"/>
			<path d="M296.2,24.9c0.2,0,1.7,4.7,2.9,12.8c3.6,7.9,15.8,33.2,24.3,38.9c1.8-7,2.2-11.4,2.5-11.4c0,0,0,0,0,0
				c0.2,0,0.3,4.7-1.3,12.1c-0.2,1.1-0.5,2.4-0.9,3.6c0.3,5.8,2.2,16.3,11.4,20.6l-5.1,6c1.9,1.9,2.3,4,2.3,5.4
				c19-2.2,46.4,1.4,56.9-19.4c0,0-4.8,30-30.3,36.7c-9.2,2.4-16.5,7.5-22.2,13c0.1,0.3,0.1,0.5,0.2,0.8c3.4,14.4-4.8,22.8-9.9,26.5
				c0,1,0,1.9,0,2.9c-1.6,20.4-15.3,24.9-15.3,24.9c-1.2,3.1-2.4,5.9-3.7,8.6c2.1,2.3,5,6.6,6.4,13c1.6-0.3,3.2-0.5,4.8-0.5
				c2,0,3.9,0.3,5.9,0.9c11.6,3.6,18.1,29.9,21.6,51.4c3.1-3.5,5.6-5.1,5.6-5.1c-1.9,4.1-1.6,20.7-1.6,20.7
				c0.3-3.8,9.6-11.2,9.6-11.2c-1.9,4.5-1.3,9.9-1.3,9.9l3.2-5.4l3.5,13.4l1.9-5.1c0.4,1.2,0.7,2.4,1,3.5
				c-2.7,6.6-4.5,11.8-4.5,11.8s-16.9,33.2-14.4,51.1c0,0,0.8,1,2.1,2.4c-1.7,7.6-3.3,15.8-3.3,15.8s0,0.1,0.1,0.2
				c3.2,0.2,6.6,1,9.8,3c3.8,2.4,6.4,8.3,8.5,15.3c3.8-0.7,9.4-2,15-2.9c1.5-6.9,8-24.6,35.9-37.8c0,0-2-3.6-9.9-3.6
				c-3.7,0-8.7,0.8-15.5,3.1c0,0-0.6-4.9-3.4-9.7c1.2-3.9,2.3-8,3.5-12.3c3.3-1.6,6.4-3.3,8-4.7c0,0,2.9,16.3,17.2,16.3
				c0,0-1.4-14.8-12.4-18.2c0,0,9.1-5.7,10.5-14.8c1.4-9.1,14.8-18.7,23-19.6c0,0-11,16.3-1.4,28.7c0,0-7.9,8.7-2,19
				c2.3-3.8,6.5-8.8,13.6-9.1c0.3-0.1,0.7-0.1,1-0.1c0.7,0,1.4,0.1,2.1,0.4c0.7-1.9,1.1-4.4-0.4-6.8c0,0,16.8-13.4,8.6-30.6
				c0,0,11.5,11.5,10.1,23c-1.4,11.5,2.9,14.4,2.9,14.4s-8.3,2.2-12.3,6.7c1.6,0.6,3.4,1.6,3.4,2.7c0,1.2,0,3,0.2,5
				c2.7-1.5,5.8-4,6.8-7.7c0,0,0,8.1,6.2,11c0,0-6.3,1.8-10.2,4.8c1.5,2,3.2,3.8,4.3,4.5c1.9,1.3,1.6,5.1-1.3,5.7
				c-2.4,0.5-5.2,3.7-9.1,3.7c-0.8,0-1.7-0.1-2.7-0.5c-5.4-1.9-6.7-3.5-6.7-3.5s-9.1,13.2,6.2,20.8c0.7,0.3,1.3,0.6,2.1,0.9
				l-1.6,6.4c0,0-1.9,0.2-4.4,0.2c-3.5,0-8.3-0.4-11.2-2.5c-3.2-2.2-8.6-4.7-11.3-13.3c-4.4,1.3-15.7,6.1-26.4,22
				c2.3,2.2,3.6,4.3,3.4,5.2c-0.5,1.9,9.6,6.7,5.3,12.4c-4.3,5.7,1.9,12-1,14.8c-2.9,2.9-4.8,13.4-7.2,14.8
				c-1.4,0.8-5.5,1.3-8.9,1.3c-2.5,0-4.5-0.3-4.9-0.9c-1-1.4-5.7-3.8-8.1-5.3c-0.2-0.1-0.5-0.4-0.7-0.6c-3.9,1.6-8.6,2.9-13.1,2.9
				c-1.3,0-2.7-0.1-3.9-0.4c-0.8-0.2-1.5-0.4-2.2-0.6c3.1,26.3,15.2,50.2,25.8,60c-8.2,9.2-20.4,11.5-20.4,11.5
				c-4,12.2-13.8,17.7-21.7,20.2c-1.7,8.8-4.4,19-8.5,29.2c0,0,3.7,15.6-8.8,28.6c0,0-4.1,27.2-8,57.7c-0.3,2.1-0.5,4.2-0.8,6.4
				l0.2,0.9c-0.1,0-0.2,0-0.3,0.1c-0.2,1.7-0.4,3.3-0.6,5l0.1-0.1l-0.2,1c-3.6,29.2-6.4,58.2-5.1,67.2c-0.7,10,16.8,26,20.6,29.9
				c6.3,6.5,27,8.5,32.3,15.6l0.1,0c0,0,0,0,0,0c0.3,0.4,0.5,0.8,0.7,1.2c2.5,5.6-10.3,11.1-26.3,11.1c-7.1,0-14.8-1.1-22.1-3.8
				c-14.7-5.5-31.1,1.7-41.2-8.7c0-2.2,0.3-3.8,0.4-5.6c-0.4-0.3-0.7-0.6-0.7-0.6l0.7-0.8c-3.1-14,2.4-27.2,5.4-35.8
				c2.4-6.8-2.8-49-6.5-85c-1.1-10.9-2.1-21.2-2.6-29.8c-6.7,14.3-14.1,31.1-20.9,48.9c-9.5,24.7-17.9,51.2-22,75l-9.2,55.1
				c14.9,30.5,7.4,28.5,14.3,36.7c6.4,7.6,10.9,7.2,11.7,15.1l0.3,0.1c-0.1,0.2-0.2,0.4-0.3,0.6c0,0.5,0.1,1.1,0.1,1.8
				c0.6,11.6-10.3,16.6-23.1,16.6c-1.4,0-2.8-0.1-4.2-0.2c-20.1-1.8-24.3-15.8-31.2-28.7c-4.9-10.6-10.6-21.6-9.9-33.4
				c0.1-1.7,0.3-3.3,0.7-4.8c-0.2-1.3-0.3-2-0.3-2.1l0.8-0.1c1.9-7.3,5.5-13,5.5-22.1l4.8-11.7c6-24.8,11.1-58.9,13.8-90.1l0-0.1
				c0,0,0,0,0,0c0.3-3.4,0.6-6.8,0.8-10.2c0.5-6.3,0.8-12.3,1-18.1c1.5-38.6,28.5-65.4,28.5-65.4c-4.4-16.8-7.8-39.3-9.6-52.7
				c-1.3-2-2-3.4-2-3.4c-2.3,0.5-4.7,0.8-7.1,0.8c-20.5,0-41.8-17.5-41.8-17.5l3.8-6.4c-20.7-10.9-24.6-31-24.6-31
				c2.9-5.7,9.3-12.1,9.3-12.1c-3.8-8.9-3.8-16.3-3.8-16.3c6.7-7.7,15.3-13.1,15.3-13.1l-1-10.9c15-14,51.7-24.3,51.7-24.3
				c4.1-12.3,11.3-19.3,14.6-22c-3.3-3-7.2-6.5-11.8-10.6c-5.4,12-21.3,14.1-21.3,14.1s-1.4,0.3-3.3,0.3c-1.6,0-3.6-0.2-5.5-0.8
				c-2.3,3.2-4.4,4.9-6.4,5.5c-1.8,2.1-3.5,3.3-5.1,3.8c-1.8,2.1-3.5,3.3-5.1,3.8c-1.8,2.1-3.5,3.3-5.1,3.8
				c-2.5,2.9-4.8,4.1-6.8,4.1c-1.6,0-3.1-0.8-4.3-2c-7.4,19.8-27.3,26.8-27.3,26.8c-20.3,8.9,0,33.2,0,33.2
				c-24.6-11.5-26.6-48-5.1-63.8c8.5-6.3,24-6.7,28-6.7c0,0,0.1,0,0.1,0c-0.1-1.8,0.1-3.4,0.5-4.8c1.5-4.2,4-5.5,6-5.7
				c1.5-2.7,3.4-3.6,5.1-3.8c1.5-2.7,3.4-3.6,5.1-3.8c1.5-2.7,3.5-3.6,5.2-3.8c1.8-3,4.7-3.7,6.9-3.7c1.1,0,2,0.2,2.6,0.3
				c3.2-13.2,8.9-17.7,11.2-19c-2.7-2.5-5.6-5.1-8.5-7.8c-36.4-33.5-23.9-68.5,1.6-69.6c-15.3-5.4-11.2-18.8-11.2-18.8
				c-13.4-9.6-8-23-8-23c-20.1-23.9-4.5-44.4-4.5-44.4s-7.5-17.2-1.8-36.9c3-10.2,9.7-19.8,15.5-26.7c-1-0.8-1.9-1.6-2.8-2.5
				c-28.7-28.4-10.2-53.6-10.2-53.6c-0.3,26.2,13.5,34.5,28.3,38.8c2.4-2.9,5.5-6.4,8.6-9.4c6.6-6,13.5-7.6,19-7.6
				c2.6,0,4.9,0.3,6.6,0.8c3.4-3.6,6.3-8.4,7.3-14.7c-0.3-0.8-0.7-1.5-1-2.2c-3.1-6.7-5.6-10.6-5.3-10.8c0,0,0,0,0,0
				c0.3,0,3.2,3.6,6.6,10.2c0.5,1,1.1,2.1,1.6,3.3c1.8,0.6,4.7,1.4,8.7,1.4c9.3,0,24-4.2,41.1-24.4C296.9,29,295.9,25,296.2,24.9
				C296.2,24.9,296.2,24.9,296.2,24.9 M416.1,159.7c2.9,0,5.3,3.1,5.3,3.1l-3.1,9.9c0,0-4.5,16.7-3.9,20.7c1.5-0.6,2.8-0.8,3.9-0.8
				c4.9,0,5.6,4.9,5.6,4.9s1.9-0.8,4.1-0.8c1.3,0,2.6,0.3,3.7,1.2c3.7,3.1,2.6,6.3,2.6,6.3l6.9-13.2c2.8-6.6,4.8-11,7.6-11
				c0.6,0,1.1,0.2,1.8,0.5c3.8,2.2,1,4.2-1.6,10.7c-2.2,5.6-3,14.6-9,26c-4.5,8.7-23.6,32.5-23.6,32.5s-0.6,8.1-5.7,13.5
				c-6.3,18.5-12.4,43.9-18.2,65.4c-0.7,0.4-1.5,0.7-2.3,1.1c5.4-21.8-10.6-39.6-18.3-39.6c-1.5,0-2.8,0.7-3.4,2.3c0,0,0,0,0,0
				c3.7-9.3,9.1-21.6,13.4-26.8c7.3-8.9,8.3-23.9,8.3-23.9c-5.4-12.1,1.3-27.1,0.3-31.9c-1-4.8-7.7-20.7-7.7-20.7
				c2.2-1.8,4.1-2.5,5.9-2.5c7.7,0,11.7,13.7,11.7,13.7c1.8-5.8,4.1-15.8,4.1-15.8s1.5-7.5,4.5-11.3
				C409.3,166.8,413.2,159.7,416.1,159.7C416.1,159.7,416.1,159.7,416.1,159.7 M387.8,339.1c0.4,0.6,0.8,1.2,1.2,1.8
				c-4.8,16.2-9.5,28-14,29.2C379.2,369,383.5,355.9,387.8,339.1 M351.8,357.5c1.5,1.6,3.6,3.8,6.1,6
				C355.4,361.4,353.3,359.1,351.8,357.5C351.8,357.5,351.8,357.5,351.8,357.5 M357.9,363.5C357.9,363.5,357.9,363.5,357.9,363.5
				C357.9,363.5,357.9,363.5,357.9,363.5 M357.9,363.5C357.9,363.5,357.9,363.5,357.9,363.5C357.9,363.5,357.9,363.5,357.9,363.5
				 M357.9,363.5c4.2,3.6,9.5,6.9,14.5,6.9c0.6,0,1.2,0,1.7-0.1c-0.6,0.1-1.2,0.1-1.8,0.1C367.5,370.4,362.2,367.1,357.9,363.5
				 M375,370.1C375,370.1,375,370.1,375,370.1C375,370.1,375,370.1,375,370.1 M375,370.1c-0.3,0.1-0.5,0.1-0.8,0.2
				C374.4,370.3,374.7,370.2,375,370.1 M296.2,19.7C296.2,19.7,296.2,19.7,296.2,19.7c-0.4,0-0.7,0-1.1,0.1v0c0,0,0,0,0,0
				c-0.2,0.1-0.5,0.1-0.7,0.2l0,0c-1.3,0.5-3.9,2.1-3.4,6.3c0.1,0.6,0.2,1.2,0.3,2.2c0.2,1.4,0.5,3.3,0.8,5.6
				c-15.1,17.1-27.6,20.8-35.6,20.8c-2,0-3.6-0.2-4.9-0.5c-0.2-0.5-0.4-0.9-0.7-1.3c-2-3.8-3.7-6.5-4.8-8.1
				c-1.7-2.5-3.4-4.9-6.4-4.9c0,0,0,0,0,0c-1,0-2,0.3-2.9,0.8v0c0,0,0,0,0,0c-0.1,0.1-0.2,0.1-0.3,0.2l0,0c-0.9,0.7-3.3,3.1-1.4,7.1
				c0.2,0.5,0.6,1.1,1,1.9c1,1.8,2.4,4.5,4.1,8.1c0.1,0.2,0.2,0.4,0.3,0.7c-0.7,3.1-2,5.9-3.9,8.4c-1.5-0.2-3.1-0.3-4.6-0.3
				c-8.3,0-16.1,3.1-22.6,8.9c0,0-0.1,0.1-0.1,0.1c-2.1,2-4.4,4.4-6.7,7.1c-13.1-4.6-21.6-12.4-21.4-32.7c0-2.3-1.4-4.3-3.6-5
				c-0.5-0.2-1.1-0.3-1.7-0.3c-1.6,0-3.2,0.8-4.2,2.1c-0.2,0.3-5.5,7.6-6.7,18.7c-1.1,10,1,25.1,16.7,41
				c-6.6,8.5-11.1,16.7-13.3,24.6c-4.8,16.8-1,31.8,1.1,37.8c-1.5,2.6-3.6,7.1-4.6,12.9c-1.4,8-0.8,20.1,9.1,33.2
				c-1.4,6.2-0.7,16.2,8.1,24c-0.1,1.7-0.1,3.9,0.4,6.3c0.5,2.5,1.7,5.4,4,8.2c-6.8,3.3-12.2,9.2-14.9,16.8c-3,8.3-2.8,18,0.6,27.8
				c3.7,10.8,11,21.2,21.7,31c1.4,1.3,2.8,2.6,4.2,3.9c-2.5,2.9-5.2,7.2-7.3,13.7c-3.5,0.3-6.5,1.8-8.7,4.3
				c-2.1,0.7-3.9,2.1-5.3,3.9c-2,0.8-3.7,2.1-5.1,3.8c-2,0.8-3.7,2.1-5.1,3.8c-2.6,1-5.8,3.3-7.6,8.5c-0.2,0.5-0.3,0.9-0.4,1.4
				c-7.4,0.4-18.9,2-26.5,7.6c-11.9,8.7-18.3,23.8-16.7,39.4c1.5,14.9,10,27.4,22.7,33.4c0.7,0.3,1.5,0.5,2.2,0.5
				c1.6,0,3.1-0.7,4.2-2c1.5-1.9,1.4-4.7-0.1-6.6c-2.4-2.9-9.1-12.8-7.6-19.3c0.2-0.9,0.8-3.6,5.5-5.7c2.3-0.8,19-7.5,27.9-24.5
				c0.6,0.1,1.1,0.1,1.7,0.1c3.5,0,6.8-1.7,9.9-4.9c1.8-0.8,3.5-2.1,5.1-3.8c1.8-0.8,3.5-2.1,5.1-3.8c1.8-0.8,3.5-2.1,5.1-3.8
				c1.9-0.9,3.6-2.2,5.4-4.1c1.1,0.2,2.3,0.2,3.5,0.2c2.1,0,3.6-0.2,4.1-0.3c1.5-0.2,13.9-2.3,21.6-11.3l1,0.9
				c0.7,0.6,1.4,1.2,2,1.8c-3.6,3.9-7.8,9.6-10.9,17.6c-8.9,2.7-37.7,12.1-51.3,24.7c-1.2,1.1-1.8,2.7-1.6,4.3l0.7,7.8
				c-3.3,2.3-8.9,6.7-13.8,12.2c-0.8,1-1.3,2.2-1.3,3.4c0,0.3,0,6.8,3,15.1c-2.3,2.6-5.8,6.8-7.9,11c-0.5,1-0.7,2.2-0.5,3.3
				c0.2,0.9,3.9,19.6,22.5,31.8l-1.1,1.9c-1.3,2.2-0.8,5.1,1.2,6.7c0.9,0.8,23,18.7,45.2,18.7c1.4,0,2.8-0.1,4.1-0.2
				c1.7,12.1,4.8,32.6,8.8,48.8c-6.6,7.4-26.6,32.5-28,66.7c-0.2,5.6-0.6,11.7-1,17.9c-0.2,3.1-0.5,6.4-0.8,9.7
				c0,0.3-0.1,0.5-0.1,0.8c-2.8,31.7-7.9,64.8-13.6,88.6l-4.7,11.4c-0.3,0.6-0.4,1.3-0.4,2c0,5.3-1.4,9.2-3,13.8
				c-0.5,1.5-1.1,3-1.6,4.6c-0.2,0.2-0.4,0.4-0.6,0.6c-0.9,1.1-1.2,2.5-1.1,3.9c0,0,0.1,0.5,0.2,1.3c-0.3,1.6-0.5,3.1-0.6,4.6
				c-0.7,12,4.5,23.3,9.1,33.1c0.4,0.9,0.9,1.8,1.3,2.7c0,0.1,0.1,0.2,0.1,0.3c0.9,1.6,1.7,3.4,2.6,5c5.8,11.6,12.4,24.7,32.8,26.5
				c1.6,0.1,3.2,0.2,4.7,0.2c10.2,0,18.5-2.8,23.4-8c3.5-3.7,5.2-8.5,5-14c0-0.2,0-0.5,0-0.7c0.4-1.2,0.3-2.5-0.2-3.7
				c0-0.1-0.1-0.2-0.1-0.3c-1-5.9-4.2-8.5-7.2-11c-1.6-1.3-3.4-2.8-5.4-5.2c-2.1-2.5-2.2-3.1-2.7-5.9c-0.8-4.3-2.1-11.3-10.2-28.2
				l8.9-53.5c3.5-20.8,10.8-45.7,21.7-74c3.8-9.9,8-20,12.4-30.2c0.3,3.1,0.6,6.3,1,9.8c0.7,6.8,1.4,13.9,2.2,20.8
				c2.5,24.1,6,57.1,4.6,62c-0.3,0.7-0.5,1.5-0.8,2.4c-3,8.3-7.4,20.6-5.1,33.9c-0.3,0.7-0.4,1.4-0.4,2.2c0,0.8,0.2,1.5,0.6,2.2
				c-0.1,1.1-0.2,2.3-0.2,3.8c0,1.4,0.5,2.7,1.5,3.6c7.4,7.7,16.9,7.8,26.2,7.9c5.7,0.1,11.7,0.1,17,2.1c7.2,2.7,15.5,4.1,23.9,4.1
				c11.9,0,25.9-3.1,30.3-10c1.7-2.6,2-5.7,0.7-8.5c-0.2-0.5-0.5-1-0.8-1.5c-0.2-0.4-0.5-0.8-0.9-1.2c-3.9-4.7-11.2-7.1-18.9-9.6
				c-5.3-1.8-11.4-3.8-13.5-5.9c-0.4-0.5-1.1-1.1-1.8-1.8c-2.8-2.8-7.5-7.4-11.4-12.4c-5.6-7.2-6-10.5-5.9-11.6c0-0.4,0-0.8,0-1.2
				c-0.6-4-0.7-17.9,5.1-65.6l0.2-0.7c0.1-0.5,0.2-1.1,0.1-1.6c0.1-0.7,0.2-1.5,0.3-2.2c0.5-1,0.7-2.1,0.4-3.3l0-0.1
				c0.2-1.9,0.5-3.7,0.7-5.5c3.3-25.9,6.8-49.8,7.7-56c10.6-12.1,10-25.6,9.3-30.4c3.1-7.9,5.7-16.6,7.6-25.8
				c7.7-3,16.5-8.7,21.1-19.7c4.6-1.4,13.7-4.8,20.4-12.4c1.9-2.1,1.7-5.4-0.4-7.3c-8.7-8-19.1-27.6-23.2-49.9
				c3.7,0,7.9-0.8,12.3-2.3c0.3,0.2,0.6,0.3,0.9,0.5c1.3,0.7,3.7,2.1,4.5,2.7c1.9,2.5,5.5,2.9,9.1,2.9c1.4,0,8.3-0.1,11.6-2.1
				c2.8-1.7,4.1-5.2,5.7-9.7c0.7-1.9,1.9-5.2,2.6-6c3.4-3.4,2.2-7.8,1.5-10.4c-0.8-2.9-0.9-3.9-0.1-4.9c2.5-3.3,2.8-7.2,0.9-10.9
				c-1.2-2.4-3.2-4.3-4.7-5.7c-0.2-0.2-0.4-0.4-0.6-0.5c-0.3-1.4-1-2.8-1.8-4c6.4-8.4,12.6-12.8,17-14.9c3.1,5.6,7.2,8.3,10,10.1
				c0.4,0.3,0.8,0.5,1.1,0.7c3.3,2.2,8,3.4,14.2,3.4c2.8,0,4.8-0.2,5-0.3c2.2-0.3,3.9-1.8,4.4-3.9l1.6-6.4c0.6-2.5-0.7-5.1-3.1-6.1
				c-0.5-0.2-1.1-0.5-1.7-0.8c-3.3-1.6-5.2-3.5-5.8-5.8c-0.2-0.9-0.2-1.9-0.1-2.8c0.7,0.3,1.5,0.6,2.3,0.9c1.5,0.5,2.9,0.8,4.4,0.8
				c3.9,0,6.9-1.8,8.9-3c0.5-0.3,1.2-0.7,1.5-0.8c3.3-0.8,5.7-3.3,6.4-6.7c0.5-2.7-0.3-5.4-2-7.3c1.3-0.5,2.4-0.9,3.1-1.1
				c2.1-0.6,3.6-2.5,3.7-4.6c0.2-2.2-1-4.2-3-5.1c-3-1.4-3.2-6.2-3.2-6.3c0-0.8-0.2-1.6-0.5-2.3c1.2-0.8,2.1-2.1,2.4-3.6
				c0.3-1.9-0.4-3.7-1.9-4.9c-0.3-0.4-1.8-2.8-1-9.7c1.7-13.9-11-26.8-11.5-27.3c-1-1-2.4-1.5-3.7-1.5c-1,0-2.1,0.3-3,1
				c-2.1,1.5-2.8,4.2-1.7,6.5c6.2,13.2-6.6,23.9-7.2,24.3c-1.7,1.4-2.3,3.6-1.7,5.6c-2.8,0.4-5.4,1.4-7.8,3c0.7-2.4,2.1-4.1,2.4-4.4
				c1.8-1.9,1.8-4.6,0.2-6.7c-7.1-9.3,1.5-22.5,1.6-22.6c1.1-1.7,1.2-3.9,0.1-5.6c-1-1.6-2.7-2.5-4.5-2.5c-0.2,0-0.4,0-0.6,0
				c-5,0.6-11.3,3.5-16.7,7.9c-3.6,2.9-9.7,8.8-10.9,16.1c-1,6.6-8.1,11.2-8.2,11.2c-0.5,0.3-0.9,0.7-1.3,1.1c-0.2,0-0.4,0-0.7,0
				c0.7-2.5,1.3-5,2-7.5c4.1-15.9,8.4-32.2,12.8-45.2c4.2-5,5.6-11.1,6.1-14.1c3.9-5,19-24.2,23.2-32.1c4.2-8.1,6.1-15.2,7.4-20.3
				c0.6-2.5,1.2-4.6,1.8-6.2c0.6-1.5,1.3-2.8,1.8-4c1-2.1,1.9-3.8,2-5.9c0.1-2.1-0.6-5.1-4.5-7.3c-1.4-0.8-2.9-1.3-4.4-1.3
				c-6.3,0-9.1,6.5-12.4,14l-2.3,4.5c-1.7-1.1-3.8-1.7-6.1-1.7c-0.4,0-0.8,0-1.2,0.1c-1.5-1.9-3.6-3.5-6.5-4
				c0.7-3.8,1.9-8.9,3.1-13.3l3.1-9.8c0.5-1.7,0.2-3.5-0.9-4.8c-0.7-0.8-4.2-5-9.4-5c0,0,0,0,0,0c0,0-0.1,0-0.1,0
				c-6.6,0.1-11.2,9.3-12,16.7c-2.9,4.5-4.2,10.8-4.5,12c-0.1,0.3-0.3,1.4-0.7,2.9c-2.5-2.8-5.8-4.9-10-4.9c-3.2,0-6.3,1.3-9.2,3.7
				c-1.8,1.5-2.4,3.9-1.5,6c2.5,6,6.7,16.5,7.3,19.7c0.1,0.9-0.5,3.6-0.8,5.6c-1.3,6.8-3.2,16.8,0.3,26.1c-0.4,3.4-1.9,13.6-7,19.8
				c-2.9,3.5-6.3,9.7-10.2,18.7l-0.4-1.7c-0.3-1.1-0.9-2-1.8-2.7c0.1-1.7-0.6-3.5-2-4.6c-0.9-0.7-2.1-1.1-3.2-1.1
				c-1.2,0-2.3,0.4-3.3,1.1c-0.2,0.2-0.4,0.3-0.6,0.5c0.2-1.8,0.4-3.2,0.7-3.8c1-2.1,0.4-4.6-1.3-6.2c-1-0.8-2.2-1.3-3.4-1.3
				c-0.7,0-1.4,0.1-2,0.4c-1.8-9.4-4-17.6-6.4-24.2c-4.6-12.8-10.2-20-17.2-22.2c-2.3-0.7-4.8-1.1-7.4-1.1c-0.4,0-0.7,0-1.1,0
				c-1.2-3.3-2.7-5.9-4.1-8c0.6-1.3,1.2-2.7,1.7-4.1c4.8-2.5,15-10,16.4-28.4c0-0.2,0-0.5,0-0.7c8.4-7.1,12-17.1,10.2-27.9
				c5.5-4.8,11.5-8.1,17.8-9.7c28.5-7.5,33.9-39.6,34.2-40.9c0.4-2.5-1.1-5-3.6-5.8c-0.5-0.2-1.1-0.3-1.6-0.3
				c-1.9,0-3.8,1.1-4.7,2.9c-7.1,13.9-24,14.8-40.4,15.6c-2.4,0.1-4.8,0.2-7.1,0.4l2-2.3c1.1-1.2,1.5-2.9,1.1-4.5s-1.4-2.9-2.9-3.6
				c-6.4-3-8-10.6-8.3-15.3c0.3-1.1,0.5-2.1,0.7-3c0.9-4.2,1.2-7.4,1.4-9.3c0.3-4,0.1-5.6-1.1-7.1c-0.9-1.1-2.2-1.8-3.6-2v0
				c-0.2,0-0.4,0-0.6,0c0,0,0,0,0,0c-1,0-4.4,0.3-5.3,4.7c-0.1,0.3-0.1,0.6-0.2,0.9c-4.6-6.5-10.4-16.9-16.2-29.4
				c-0.6-4.2-1.3-7.3-1.8-9.2C301.5,23.6,300.5,19.7,296.2,19.7L296.2,19.7z M354.8,353c-1-13.6,9.7-38,14-46.6
				c0.1-0.2,0.2-0.4,0.3-0.6c0,0,1.6-4.5,3.9-10.3c1.4,0.6,4,2.4,6.7,6c2.8,3.7,8.8,13.6,5.5,26.9c-0.4,1.5-0.1,3,0.8,4.2
				c-0.2,0.6-0.3,1.2-0.5,1.8c-1.3,0.7-2.3,1.9-2.6,3.3c-2.2,8.5-4,14.6-5.7,19.2c-2.1,5.7-3.4,7.6-3.9,8.2c-0.2,0-0.5,0-0.7,0
				c-2.8,0-6.8-2-11.1-5.7c0,0,0,0,0,0c0,0,0,0,0,0c0,0,0,0,0,0c-2.3-2-4.3-4.1-5.6-5.5l0,0C355.4,353.6,355.1,353.3,354.8,353
				L354.8,353z M392.3,355.9c0.6,0,1.2-0.1,1.7-0.3c3.4-1.2,6.5-2,9.2-2.4c-16.9,11.1-23.3,23.6-25.7,31.1c-2.5,0.5-4.9,1-7.1,1.4
				c0,0-0.1,0-0.1,0c-1.8-5-4.3-10-8.1-12.9c3.6,1.9,7,2.8,10.2,2.8c0.9,0,1.8-0.1,2.6-0.2c0,0,0,0,0,0c0.2,0,0.4-0.1,0.5-0.1
				c0,0,0,0,0,0c0.2,0,0.3-0.1,0.5-0.1c0,0,0.1,0,0.1,0c0,0,0,0,0,0c0,0,0,0,0,0c5-1.3,8.9-6.8,13.6-19.9
				C390.7,355.7,391.5,355.9,392.3,355.9L392.3,355.9z M354.7,369.2c0.1-0.4,0.2-0.9,0.3-1.4c1.3,1.1,2.7,2.1,4,3
				C357.6,370.2,356.2,369.6,354.7,369.2L354.7,369.2z"/>
		</g>
		<path id="XMLID_593_" class="st4" d="M322.3,644.3c3.9-30.5,8-57.7,8-57.7c12.5-13.1,8.8-28.6,8.8-28.6
			c11-27.4,11.8-55.4,11.8-55.4c-20.6-3.7-51.5,3.1-51.5,3.1l-3.1,11.8c0,0-12.2,78.2-19.9,94.8c0.6,8.6,1.5,18.9,2.6,29.8
			C292.2,645.1,307.3,645.4,322.3,644.3z"/>
		<g id="XMLID_592_">
			<path class="st5" d="M342.9,784.6c-8,0-15.9-1.4-22.8-3.9c-5.8-2.2-12-2.2-18-2.3c-8.6-0.1-17.4-0.2-23.9-6.9l-0.6-0.6v-0.8
				c0-1.4,0.1-2.5,0.2-3.5c0.1-1.1,0.2-2.1,0.1-3.2c-2.9-13.2,1.6-25.9,4.6-34.3c0.3-0.9,0.6-1.7,0.9-2.4c1.8-5.1-1.5-36-4.4-63.3
				c-0.7-7-1.5-14-2.2-20.8l-0.3-2.9l2.8,0.6c8,1.8,17.4,2.6,27.7,2.6c4.7,0,9.8-0.2,15.1-0.6l2.5-0.2l-0.3,2.5
				c-5.6,44-8,71.6-6.7,79.8l0,0.2l0,0.2c-0.6,7.9,13.1,21.4,18.2,26.5c0.7,0.7,1.3,1.3,1.8,1.8c2.6,2.7,8.8,4.8,14.8,6.7
				c8.4,2.8,16.3,5.4,18.7,10.7c0.8,1.8,0.6,3.7-0.5,5.5C367.4,781,356,784.6,342.9,784.6C342.9,784.6,342.9,784.6,342.9,784.6z"/>
			<path d="M278.9,642.2c8.8,1.9,18.3,2.7,28.2,2.7c5,0,10.1-0.2,15.2-0.6c-4.2,33.1-8.3,70-6.7,80.4c-0.7,10,16.8,26,20.6,29.9
				c6.6,6.8,29.4,8.7,33.1,16.8c2.5,5.6-10.3,11.1-26.3,11.1c-7.1,0-14.8-1.1-22.1-3.8c-14.7-5.5-31.1,1.7-41.2-8.7
				c0-2.8,0.5-4.6,0.3-7c-3.1-14,2.4-27.2,5.4-35.8C287.8,720.4,282.6,678.2,278.9,642.2 M274.2,636.8l0.6,5.7
				c0.7,6.8,1.4,13.9,2.2,20.8c1.6,15.2,3.1,29.6,4,41.1c1.4,17.1,0.7,20.6,0.5,21.3c-0.3,0.8-0.6,1.6-0.9,2.4
				c-3.1,8.6-7.7,21.6-4.7,35.3c0,0.9,0,1.7-0.1,2.7c-0.1,1.1-0.2,2.3-0.2,3.7v1.7l1.2,1.2c7.1,7.4,16.4,7.5,25.4,7.6
				c5.8,0.1,11.8,0.1,17.3,2.2c7.1,2.7,15.3,4.1,23.5,4.1c11.6,0,25.2-3,29.5-9.6c1.5-2.4,1.7-5,0.6-7.5c-2.8-6.1-11.1-8.9-20-11.8
				c-5.5-1.8-11.6-3.8-13.9-6.2c-0.4-0.5-1.1-1.1-1.8-1.8c-12-11.9-18-20.3-17.6-24.8l0-0.5l-0.1-0.5c-0.7-4.6-0.7-21,6.8-79.3
				l0.6-5.1l-5.1,0.4c-5.2,0.4-10.2,0.6-14.9,0.6c-10.2,0-19.4-0.9-27.3-2.6L274.2,636.8L274.2,636.8z"/>
		</g>
		<g id="XMLID_591_">
			<path class="st6" d="M255.2,663.3c-13.1-1.6-25.9-2.4-38.3-2.4c-2.9,0-5.9,0-8.7,0.1l-2.3,0.1l0.2-2.3c0.5-6.3,0.8-12.4,1-18
				c1.4-35.5,23.6-60.9,28.3-65.9c-6.4-25.4-10.7-62.8-10.8-63.2l-0.3-2.6l80.6,7.2l0.2,1.6c0.3,1.8,6.1,43.2-15.1,69.8
				c-1,1.3-2.2,4.1-4.3,8.9c-1.7,4-4.1,9.4-7.5,16.7c-7.7,16.5-14.7,32.9-20.8,48.8l-0.6,1.5L255.2,663.3z"/>
			<path d="M226.6,511.3l69.6,6.2l6.8,0.6c0,0,6.2,42-14.7,68.2c-2.1,2.6-4.3,9.4-12,26c-6.7,14.3-14.1,31.1-20.9,48.9
				c-12.7-1.6-25.6-2.4-38.5-2.4c-2.9,0-5.9,0-8.8,0.1c0.5-6.3,0.8-12.3,1-18.1c1.5-38.6,28.5-65.4,28.5-65.4
				C231,549.9,226.6,511.3,226.6,511.3 M221.8,506.7l0.6,5.1c0.2,1.5,4.3,37,10.6,62.4c-6.1,6.8-26.7,31.9-28.1,66.4
				c-0.2,5.6-0.6,11.7-1,18l-0.3,4.6l4.6-0.1c2.8-0.1,5.8-0.1,8.7-0.1c12.3,0,25.1,0.8,38,2.4l3.2,0.4l1.2-3.1
				c6.1-15.8,13-32.1,20.8-48.6c3.4-7.3,5.8-12.8,7.5-16.7c1.9-4.4,3.2-7.4,4-8.4c21.8-27.3,15.8-69.6,15.6-71.4l-0.5-3.3l-3.3-0.3
				l-6.8-0.6l-69.6-6.2L221.8,506.7L221.8,506.7z"/>
		</g>
		<path id="XMLID_590_" class="st6" d="M288.5,234.2c0,0,20.4-19.1,36.7-14c16.3,5.1,22.7,54.9,24.3,73.4
			C351,312,278,262.3,288.5,234.2z"/>
		<g id="XMLID_589_">
			<path class="st7" d="M341.9,278.9c-0.2,0-16.2-3.1-31.4-11.1c-20.3-10.8-29.8-25.5-27.6-42.7c2.3-17.7,7.1-26.6,14-26.6
				c4.8,0,8.8,4.5,9.4,5.2c1.3,1,12,10,9.7,30c3.5,1.1,15.1,6.2,14.3,25c2.8,1.3,12.7,6.6,12.7,19.2v1.3L341.9,278.9z"/>
			<path d="M297,199.6c4.7,0,8.7,4.9,8.7,4.9s12.1,8.9,9.3,30c0,0,15.6,2.9,14.4,24.9c0,0,12.8,4.5,12.8,18.5
				c0,0-63.5-11.8-58.1-52.7C286.8,204.7,292.2,199.6,297,199.6 M297,197.5L297,197.5c-7.6,0-12.6,9.3-15.1,27.5
				c-2.3,17.6,7.4,32.8,28.1,43.8c15.3,8.1,31,11.1,31.7,11.2l2.5,0.5v-2.5c0-12.4-9.1-18.1-12.7-19.8c0.3-11.3-3.8-17.6-7.4-20.9
				c-2.5-2.3-5.1-3.5-6.8-4.2c2-19.5-8.4-28.7-10.1-30C306.3,201.9,302.1,197.5,297,197.5L297,197.5z"/>
		</g>
		<g id="XMLID_1264_">
			<path id="XMLID_587_" d="M313,236.4c0,0,16.6,6,13.8,26.6C326.8,263,323.8,245.8,313,236.4z"/>
			<path id="XMLID_586_" d="M312.5,239.9c0,0,15.9,7.6,11.1,27.9C323.6,267.8,322.3,250.3,312.5,239.9z"/>
			<path id="XMLID_585_" d="M312.2,244.1c0,0,14.9,9.4,7.8,29C320,273,320.7,255.6,312.2,244.1z"/>
			<path id="XMLID_584_" d="M311,247.5c0,0,13.5,11.3,3.7,29.8C314.7,277.2,317.9,260,311,247.5z"/>
			<path id="XMLID_580_" d="M308,250.4c0,0,13.5,11.3,3.7,29.8C311.8,280.2,314.9,263,308,250.4z"/>
		</g>
		<g id="XMLID_1258_">
			<path id="XMLID_579_" d="M303.8,206.9c0,0,13.7,9,6.7,27C310.5,233.9,311.5,217.7,303.8,206.9z"/>
			<path id="XMLID_578_" d="M302,211.4c0,0,12.6,9.3,4.9,26.2C306.9,237.5,308.8,222.1,302,211.4z"/>
			<path id="XMLID_577_" d="M299.4,213.5c0,0,12.4,11.5,2,28.7C301.4,242.1,305.4,225.8,299.4,213.5z"/>
			<path id="XMLID_576_" d="M296.9,217.1c0,0,11.1,12.7-0.9,28.8C296.1,245.8,301.6,230,296.9,217.1z"/>
			<path id="XMLID_575_" d="M293.3,220.5c0,0,10.7,13.1-1.9,28.7C291.3,249.2,297.5,233.6,293.3,220.5z"/>
		</g>
		<g id="XMLID_574_">
			<path class="st6" d="M274.7,344.1c-12.3,0-32.6-21.1-45.1-47c-13.8-28.6-11.1-71.9-11.1-72.3l0-0.3l0.2-0.3
				c3.8-4.6,20-6.7,34.4-6.7c4.8,0,29.1,0.4,31.9,7.4l0.1,0.2l0,0.2c0.3,12.5,28.2,37.7,57.5,51.7l0.2,0.1l0.1,0.2
				c18.1,20.1-2.7,44.2-2.9,44.5l-0.2,0.2l-0.3,0.1c-0.5,0.1-49.2,13-59.5,20.4C278.5,343.5,276.7,344.1,274.7,344.1
				C274.7,344.1,274.7,344.1,274.7,344.1z"/>
			<path d="M253.1,218.5c14.8,0,29.1,2.2,30.9,6.8c0.3,13.7,29.8,39.1,58.1,52.7c17.7,19.6-2.9,43.1-2.9,43.1s-49.3,12.9-59.8,20.6
				c-1.4,1-2.9,1.4-4.7,1.4c-11.9,0-32-21.4-44.1-46.4c-13.9-28.7-11-71.8-11-71.8C222.9,220.7,238.2,218.5,253.1,218.5
				 M253.1,216.4c-13.6,0-30.9,1.8-35.2,7l-0.4,0.5l0,0.7c-0.1,1.8-2.7,44,11.2,72.9c12.7,26.3,33.3,47.6,46,47.6
				c2.2,0,4.2-0.6,5.9-1.8c10.1-7.3,58.6-20.1,59.1-20.3l0.6-0.2l0.4-0.5c0.2-0.3,5.4-6.3,8.5-14.9c4.1-11.7,2.2-22.4-5.6-31
				l-0.3-0.3L343,276c-29-13.9-56.6-38.6-56.9-50.8l0-0.4l-0.1-0.3C283.1,217.2,262,216.4,253.1,216.4L253.1,216.4z"/>
		</g>
		<path id="XMLID_573_" class="st6" d="M349.8,355.1c0,0,14,17.9,25.2,15c11.2-2.9,22.8-69.4,35.7-106.9c5.1-5.4,5.7-13.5,5.7-13.5
			s19-23.8,23.6-32.5c6-11.4,6.8-20.4,9-26c2.6-6.5,5.4-8.5,1.6-10.7c-3.8-2.2-6,2.6-9.4,10.5l-6.9,13.2c0,0,1.1-3.2-2.6-6.3
			c-2.9-2.4-7.8-0.3-7.8-0.3s-2.1-9.7-10.6-6.5c-0.5-4,5-18.3,5-18.3l3.1-9.9c0,0-2.4-3.1-5.3-3.1c-2.9,0-6.7,7.1-7,13.3
			c-3,3.8-4.5,11.3-4.5,11.3s-2.4,9.9-4.1,15.8c0,0-6.1-20.7-17.6-11.2c0,0,6.7,16,7.7,20.7c1,4.8-5.7,19.8-0.3,31.9
			c0,0-1,15-8.3,23.9c-7.3,8.9-17.9,38.6-17.9,38.6S347.2,337.3,349.8,355.1z"/>
		<g id="XMLID_572_">
			<path class="st5" d="M302.1,545.1c-10.1,0-16.4-3.9-18.2-5.3c-1.9,0.3-3.9,0.8-6,1.3c-3.9,1-8.2,2.2-13.9,2.2
				c-4.3,0-8.8-0.7-13.7-2c-15.4-4.3-23-16.4-25-20.2c-2,0.4-4.1,0.6-6.3,0.6c-20.8,0-41.9-17.2-42.8-17.9l-1-0.9l3.7-6.1
				c-19.9-11.2-23.8-30.4-23.9-31.3l-0.1-0.5l0.2-0.5c2.4-4.8,7-9.9,8.8-11.8c-3.5-8.7-3.6-15.6-3.6-15.9v-0.6l0.4-0.4
				c5.6-6.5,12.5-11.3,14.9-12.8l-0.9-10.7l0.6-0.5c14-13.2,45.9-22.8,51.6-24.4c5.6-16,16.2-23,16.6-23.3l0.2-0.1l0.2-0.1
				c9.7-2.7,25.8-8.4,27.8-12.2c0.1-0.2,0.2-0.4,0.1-0.5c-0.7-2.4-2.9-5.3-5.1-8.2c-3.1-4.2-6.3-8.5-6.3-12.5c0-6,0.3-13.6,0.4-13.7
				l0.1-2.6l2.2,1.3c3,1.7,8.5,2.7,14.2,3.2c-7.9-3.9-15.1-9.6-15.5-9.9l-9.8-7.9l11.5,5.2c1.6,0.7,4.1,1.1,7.4,1.1
				c2.4,0,5-0.2,7.3-0.5c-13.1-3.6-19.9-9.5-20.2-9.8l-3.8-3.4l5.1,0.7c0,0,2.2,0.3,6.6,0.3c4.1,0,11-0.3,20.5-1.6
				c2.3-0.3,4.6-0.5,6.8-0.5c8.9,0,15.3,2.5,19.1,4.5c-1.8-3.7-4.8-8-6.2-9.9l-3.1-4.2l4.9,1.8c13.1,4.7,21.2,15.5,25.5,23
				c-0.9-29.6,18.2-42.5,18.4-42.7l4.6-3l-2.3,5c-1,2.2-1.4,8.9-1.5,14.3c2.6-3,6-5.8,7-6.6l4.9-3.9l-2.4,5.7
				c-0.4,1-0.7,2.1-0.9,3.1l1.9-3.3l3.2,12.3l1.8-4.9l1.3,4.5c11.1,37.5-9.9,56.4-13.2,59.1c-1.7,5.9-5.1,22.5-5.8,25.7
				c1.8,3.8,13.4,28.8,14.6,56c1.2,28,14.2,56,26,66.9l1.1,1l-1,1.2c-7.2,8.2-17.3,11.1-20.4,11.8c-6.9,19.5-28.6,22.1-33,22.4
				c-2,2.6-10.4,11.2-32.8,12.6C303.7,545,302.9,545.1,302.1,545.1z"/>
			<path d="M352.3,266.4L352.3,266.4 M352.3,266.4c-1.9,4.1-1.6,20.7-1.6,20.7c0.3-3.8,9.6-11.2,9.6-11.2c-1.9,4.5-1.3,9.9-1.3,9.9
				l3.2-5.4l3.5,13.4l1.9-5.1c11.8,39.9-13.1,57.8-13.1,57.8c-1.9,6.1-6.1,26.8-6.1,26.8s13.4,26.5,14.7,55.8
				c1.3,29.4,14.8,57.2,26.5,68c-8.2,9.2-20.4,11.5-20.4,11.5c-7,21.7-32.7,22.2-32.7,22.2s-6.8,11-32.1,12.6
				c-0.8,0.1-1.6,0.1-2.4,0.1c-11.5,0-17.8-5.3-17.8-5.3c-5.8,0.6-11.4,3.6-20.3,3.6c-3.8,0-8.1-0.5-13.3-2
				c-17.4-4.9-24.6-20.4-24.6-20.4c-2.3,0.5-4.7,0.8-7.1,0.8c-20.5,0-41.8-17.5-41.8-17.5l3.8-6.4c-20.7-10.9-24.6-31-24.6-31
				c2.9-5.7,9.3-12.1,9.3-12.1c-3.8-8.9-3.8-16.3-3.8-16.3c6.7-7.7,15.3-13.1,15.3-13.1l-1-10.9c15-14,51.7-24.3,51.7-24.3
				c5.4-16.3,16.3-23.3,16.3-23.3s31-8.6,29-14.7c-1.9-6.1-11.3-14.1-11.3-20.2s0.3-13.6,0.3-13.6c6.2,3.5,20.2,3.8,24.2,3.8
				c0.7,0,1.1,0,1.1,0c-10.5-1.6-24.9-13.1-24.9-13.1c2.1,0.9,5,1.3,8,1.3c7.3,0,15.6-1.9,15.6-1.9c-18.2-2.9-27.4-11.2-27.4-11.2
				s2.2,0.3,6.8,0.3c4.5,0,11.4-0.3,20.7-1.6c2.3-0.3,4.5-0.5,6.5-0.5c14.4,0,22.2,6.8,22.2,6.8c-0.6-4.8-8-14.7-8-14.7
				c20.4,7.3,28.4,30.3,28.4,30.3C330,281.1,352.3,266.4,352.3,266.4 M359.8,257.7l-9.2,6c-0.3,0.2-6.2,4.2-11.5,12.8
				c-3.4,5.7-7,14.2-7.6,25.8c-4.8-7.1-12.4-15.2-23.4-19.1l-9.8-3.5l6.2,8.3c1.1,1.5,2.5,3.5,3.7,5.5c-3.9-1.5-9.1-2.7-15.4-2.7
				c-2.3,0-4.6,0.2-7,0.5c-9.4,1.3-16.2,1.6-20.2,1.6c-4.2,0-6.3-0.3-6.3-0.3l-10.2-1.4l7.6,6.9c0.3,0.2,4.7,4.1,13.2,7.6
				c-3.3-0.1-5.1-0.6-6-1L241,294.3l19.7,15.7c0.3,0.2,3.7,3,8.5,6c-2.2-0.5-4.1-1.1-5.4-1.9l-4.4-2.5l-0.2,5.1
				c0,0.3-0.4,7.7-0.4,13.8c0,4.5,3.4,9,6.6,13.4c1.9,2.5,3.8,5.2,4.6,7.2c-0.6,0.7-3.3,3.1-13.5,6.9c-6.7,2.5-13.1,4.3-13.2,4.3
				l-0.5,0.1l-0.4,0.3c-0.5,0.3-11.1,7.4-17,23.4c-7.4,2.2-37.7,11.7-51.4,24.5l-1.1,1l0.1,1.5l0.8,9c-2.9,2-9.2,6.6-14.4,12.6
				l-0.8,0.9v1.2c0,0.3,0,7.1,3.3,15.6c-2.2,2.3-6.2,7-8.4,11.4l-0.5,0.9l0.2,1c0.2,0.8,4,19.9,23.3,31.5l-2.2,3.6l-1.4,2.3l2.1,1.7
				c0.9,0.7,22.4,18.2,43.8,18.2c1.9,0,3.7-0.1,5.4-0.4c2.8,4.7,10.7,15.8,25.4,19.9c5,1.4,9.7,2.1,14.1,2.1
				c5.9,0,10.3-1.2,14.3-2.2c1.9-0.5,3.6-0.9,5.2-1.2c2.5,1.7,8.9,5.2,18.6,5.2c0.8,0,1.7,0,2.6-0.1c21.5-1.3,30.6-9.4,33.5-12.7
				c2.5-0.2,7.6-0.9,13.2-3.1c9.8-3.8,16.8-10.6,20.2-19.5c3.9-1,13.5-4.2,20.4-12.1l2-2.3l-2.3-2.1c-11.6-10.7-24.3-38.2-25.5-65.8
				c-1.2-26.8-12-50.9-14.5-56.1c0.8-4,3.8-18.7,5.5-24.5c2-1.7,7-6.4,11.1-14.4c4.6-9.1,8.7-24.6,2.3-46.1l-2.7-9l-1.7,4.6l-1-3.8
				l-1.2-4.5l4-9.3l-9.7,7.7c-1.1,0.9-2.7,2.2-4.4,3.8c0.2-4.5,0.6-8.3,1.2-9.6L359.8,257.7L359.8,257.7z"/>
		</g>
		<g id="XMLID_571_">
			<path class="st7" d="M198.6,257.1c-13.7-5-12.4-16.3-11.8-19.3c-11.6-8.7-8.8-20.4-8-23.2c-18.1-22-6.7-41.4-4.5-44.7
				c-1.3-3.2-6.9-19-1.7-37.1c5.5-19.2,24-35.9,25.6-37.3c0.7-1,7.2-9.8,14.1-16.4c5.7-5.2,12.4-7.9,19.8-7.9c6.4,0,11,2.1,11.1,2.1
				l0,0c0,0,72.4,26.5,81.9,30c9.5,3.5,8.3,10.1,8,11.3c0,1.2,0.4,10.3,4.8,29c4.9,21-14,29.8-14.1,29.9l-3.3,1.5l2-3c0,0,0,0,0,0
				c0,0,0-0.1-0.1-0.2c-0.5-0.7-3.3-2.9-19.1-2.9c-5.6,0-12.4,0.3-20.2,0.8c-40.8,2.9-65.7,42-69.3,47.9
				c11.9,10.4,11.4,22.3,11,25.5c9.3,4.7,8.4,16.5,8,19.5c18.6,11.3,11.4,34.5,11.3,34.7l-0.5,1.6L198.6,257.1z"/>
			<path d="M232.1,72.2c6.3,0,10.7,2,10.7,2s72.4,26.5,82,30c9.6,3.5,7.3,10.2,7.3,10.2s0,8.9,4.8,29.4
				c4.8,20.4-13.6,28.7-13.6,28.7s3.1-4.7-20.1-4.7c-5.3,0-11.9,0.2-20.2,0.8c-45,3.2-70.5,49.1-70.5,49.1
				c14,11.8,11.2,25.8,11.2,25.8c10.9,4.8,8,19.5,8,19.5c18.8,10.9,11.5,33.8,11.5,33.8l-44-40.8c-15.3-5.4-11.2-18.8-11.2-18.8
				c-13.4-9.6-8-23-8-23c-20.1-23.9-4.5-44.4-4.5-44.4s-7.5-17.2-1.8-36.9c5.7-19.6,25.4-36.9,25.4-36.9s6.7-9.4,14.1-16.4
				C219.7,73.8,226.6,72.2,232.1,72.2 M232.1,70.1c-7.5,0-14.6,2.8-20.4,8.1l0,0l0,0c-6.9,6.6-13.2,15.1-14.2,16.5
				c-2.1,1.9-20.3,18.5-25.8,37.7c-5.1,17.6-0.1,33.1,1.5,37.3c-1.3,2-3.9,6.6-5,13.1c-1.3,7.6-0.7,19.3,9.5,32
				c-1,3.7-2.9,14.8,8,23.4c-0.6,4-1.1,14.8,12.4,19.8l43.7,40.6l2.4,2.2l1-3.1c0.1-0.3,2-6.2,1.4-13.6c-0.7-9.5-5-17-12.6-21.9
				c0.7-5.7-0.3-15.2-8-19.6c0.3-4.1,0.1-15.1-10.7-25.1c2.1-3.4,8-12.4,17.3-21.5c10.7-10.6,28.2-23.5,50.7-25.1
				c7.7-0.5,14.5-0.8,20.1-0.8c13,0,16.9,1.5,17.9,2.1l-3.5,5.3l6.6-3c0.2-0.1,5.1-2.3,9.3-7.2c4-4.6,8.1-12.5,5.4-23.9
				c-4.2-17.9-4.7-26.9-4.7-28.6c0.8-3.1,0-9.3-8.7-12.5c-9.3-3.4-79.3-29-81.9-30C242.9,72,238.4,70.2,232.1,70.1L232.1,70.1z"/>
		</g>
		<g id="XMLID_1231_">
			<path id="XMLID_570_" d="M187.2,179.8c0,0-4,23.4,16.5,37.2c0,0-15.4-12.6-13.3-33.4L187.2,179.8z"/>
			<path id="XMLID_569_" d="M190.8,182.6c0,0-1.8,24.8,21.7,40.8c0,0-16.8-12.4-18.4-36.9L190.8,182.6z"/>
			<path id="XMLID_568_" d="M194.6,185.7c0,0,0.6,25.6,24.8,41.8c0,0-17.6-13.9-21.4-39.2L194.6,185.7z"/>
			<path id="XMLID_567_" d="M176.7,170.6c0,0-11.4,21.1,6.9,34.2c0,0-13.1-11.9-4.6-30.6L176.7,170.6z"/>
			<path id="XMLID_566_" d="M179.8,173.3c0,0-9.4,22.4,11.6,37.5c0,0-14.7-11.7-9.2-33.9L179.8,173.3z"/>
			<path id="XMLID_565_" d="M183.1,176.2c0,0-7,23.2,14.6,38.6c0,0-15.3-11.9-12-34.8L183.1,176.2z"/>
		</g>
		<g id="XMLID_1224_">
			<path id="XMLID_564_" d="M202.3,113.7c0,0-22,27.6-11.3,45.1c0,0-6.3-15.9,11.7-40.4L202.3,113.7z"/>
			<path id="XMLID_563_" d="M203.9,117.2c0,0-20.7,29.3-8.5,49.6c0,0-8-15.7,9-44.8L203.9,117.2z"/>
			<path id="XMLID_562_" d="M205.5,121.1c0,0-18.9,30.4-6.2,51c0,0-7.6-17.6,7.7-47.8L205.5,121.1z"/>
			<path id="XMLID_561_" d="M198.5,102.2c0,0-27.9,24.3-18.9,40.9c0,0-4.5-14.9,18.6-36.6L198.5,102.2z"/>
			<path id="XMLID_560_" d="M199.6,105.5c0,0-26.8,26-16.6,45.2c0,0-6.3-14.7,16.4-40.8L199.6,105.5z"/>
			<path id="XMLID_559_" d="M200.8,109.2c0,0-25,27.1-14.2,46.6c0,0-6.8-15,14.2-42.1L200.8,109.2z"/>
		</g>
		<g id="XMLID_1219_">
			<path id="XMLID_558_" d="M219,253.2c0,0,7.6,11.7-1.3,24.1c0,0,6.1-10.6,0.3-21.2L219,253.2z"/>
			<path id="XMLID_557_" d="M223,245.8c0,0,11.3,8.6,3.6,20.1c0,0,4.9-9.6-4.2-17.6L223,245.8z"/>
			<path id="XMLID_556_" d="M221.8,247.9c0,0,10.4,9.8,1.6,23c0,0,5.9-9.9-2.3-20.5L221.8,247.9z"/>
			<path id="XMLID_555_" d="M220.6,250.3c0,0,9.3,10.8,0.1,24.3c0,0,6.3-10.1-0.8-21.7L220.6,250.3z"/>
		</g>
		<g id="XMLID_1214_">
			<path id="XMLID_554_" d="M227.6,270.6c0,0,9.1,15.2-1,25.8c0,0,7-9.5-0.1-23L227.6,270.6z"/>
			<path id="XMLID_553_" d="M232.2,263.8c0,0,13.5,13.1,4.6,23.1c0,0,5.6-8.8-5.3-20.6L232.2,263.8z"/>
			<path id="XMLID_552_" d="M230.9,265.8c0,0,12.5,14.1,2.4,25.6c0,0,6.8-8.8-3.1-23.1L230.9,265.8z"/>
			<path id="XMLID_551_" d="M229.4,267.9c0,0,11.1,14.8,0.6,26.5c0,0,7.1-9-1.4-23.9L229.4,267.9z"/>
		</g>
		<path id="XMLID_550_" d="M175,127.7c0,0-12.6,25.1,14.7,56.2c0,0-19.2-10.5-20.2-30.7C168.3,132.9,175,127.7,175,127.7z"/>
		<g id="XMLID_549_">
			<path class="st5" d="M286.8,144.6c-3.2,0-6.3-0.6-9.1-1.9c-13.9-6-38.4-18.1-38.6-18.2c-0.4-0.2-0.7-0.6-0.8-1
				c-0.1-0.3-7.4-29.9-14.5-40.7c-0.3-0.4-0.3-0.9-0.2-1.4s0.5-0.8,1-1c0.2-0.1,17.5-5.7,20-22.7c0.1-0.5,0.4-1,0.9-1.2
				c0.2-0.1,0.5-0.2,0.7-0.2c0.3,0,0.5,0.1,0.8,0.2c0,0,3.6,1.9,9.7,1.9c9.1,0,23.4-4.2,40.2-24.2c0.3-0.4,0.7-0.6,1.2-0.6
				c0.1,0,0.1,0,0.2,0c0.5,0.1,1,0.4,1.2,0.9c0.2,0.3,15.7,35,25.2,40.8c0.5,0.3,0.8,0.9,0.8,1.5c0,0.2-1.4,17.5,10.5,23
				c0.4,0.2,0.8,0.6,0.9,1.1c0.1,0.5,0,1-0.3,1.4l-28.8,34.1c-0.1,0.1-0.1,0.1-0.2,0.2C307,137.1,297.9,144.6,286.8,144.6z"/>
			<path d="M298,35.4c0,0,15.7,35.4,25.8,41.5c0,0-1.7,18.5,11.4,24.6l-28.8,34.1c0,0-8.9,7.5-19.6,7.5c-2.8,0-5.6-0.5-8.5-1.7
				c-14.1-6.1-38.5-18.2-38.5-18.2s-7.4-30-14.7-41.2c0,0,18.4-5.7,21.1-23.9c0,0,3.9,2.1,10.5,2.1C265.9,60.2,280.8,55.9,298,35.4
				 M298,32.2c-0.9,0-1.8,0.4-2.4,1.1c-16.4,19.6-30.3,23.7-39,23.7c-5.6,0-9-1.7-9-1.8c-0.5-0.3-1-0.4-1.5-0.4
				c-0.5,0-1,0.1-1.4,0.3c-0.9,0.5-1.6,1.3-1.7,2.4C240.6,73.6,224.2,78.9,224,79c-0.9,0.3-1.7,1-2,1.9c-0.3,0.9-0.2,2,0.3,2.8
				c7,10.6,14.2,39.9,14.3,40.2c0.2,0.9,0.8,1.7,1.7,2.1c0.2,0.1,24.7,12.2,38.7,18.3c3.1,1.3,6.3,2,9.7,2c11.7,0,21.3-7.9,21.7-8.2
				c0.1-0.1,0.3-0.2,0.4-0.4l28.8-34.1c0.6-0.7,0.9-1.7,0.7-2.7c-0.2-1-0.9-1.8-1.7-2.2c-10.9-5-9.6-21.3-9.6-21.4
				c0.1-1.2-0.5-2.3-1.5-3c-7.5-4.6-20.3-30.5-24.6-40.1c-0.4-1-1.4-1.7-2.4-1.8C298.3,32.2,298.2,32.2,298,32.2L298,32.2z"/>
		</g>
		<path id="XMLID_548_" class="st8" d="M285,80.8c0,0,1.3,9.4,8.6,10.7c7.3,1.3,12.7-6.8,12.7-6.8s-10.6,16.5-18.1,25.9L285,80.8z"
			/>
		<path id="XMLID_547_" class="st8" d="M323.7,78.2c0,0-24.3,24.9-42.9,59.2c0,0,19.9-2.4,25.1-6c0,0,9.2-18.8,18.3-18.8
			C324.3,112.5,319.5,92.4,323.7,78.2z"/>
		<path id="XMLID_546_" class="st8" d="M280.8,137.4c0,0,0-55.8-35.7-81.3c0,0,3.5,32.4-9.5,48.6l8.9,13.4
			C244.4,118,264.3,117.7,280.8,137.4z"/>
		<g id="XMLID_545_">
			<path class="st9" d="M251.6,248.5l-0.1,0c-42.9-11.6-50.3-53.7-51.3-61.2c-0.9,0.1-1.9,0.2-2.7,0.2c-6.5,0-11.3-4-13.6-11.3
				c-3-9.6-0.7-22.9,4.5-26.5c1.9-1.3,3.9-2,5.9-2c3.1,0,5.6,1.6,7.2,3.1c0.3-4.9,3.4-15,20.8-26c6.3-4,13-6,19.9-6
				c20,0,35.6,16.6,38,19.3c0.2,0,0.3,0,0.5,0c7.3,0,23.6-5.9,23.7-6l0.6-0.2l0.5,0.4c1,0.8,24.4,20.3,22.8,41
				c-1.5,18.9-13,24.6-15.6,25.6c-18.8,49-60.4,49.5-60.9,49.5H251.6z"/>
			<path d="M242.1,119.8c21.1,0,37.5,19.3,37.5,19.3c0.3,0,0.7,0,1,0c7.6,0,24.1-6,24.1-6s24,19.7,22.4,40.1
				c-1.6,20.4-15.3,24.9-15.3,24.9c-18.7,49.3-60,49.3-60,49.3C205,234.7,201,186,201,186c-1.3,0.3-2.5,0.4-3.6,0.4
				c-17.6,0-16-30.7-8.5-35.8c1.9-1.3,3.7-1.8,5.3-1.8c5.1,0,8.4,5,8.4,5s-3.6-13,20.1-28.1C229.4,121.4,235.9,119.8,242.1,119.8
				 M242.1,117.7c-7.1,0-14,2.1-20.5,6.2c-15.7,10-20,19.3-21,24.9c-1.7-1.2-3.8-2.2-6.4-2.2c0,0,0,0,0,0c-2.2,0-4.4,0.7-6.5,2.2
				c-5.6,3.8-8,17.5-4.9,27.6c2.4,7.8,7.6,12,14.6,12c0.6,0,1.2,0,1.8-0.1c0.6,4.2,2.5,13.9,7.8,24.5c6.4,13,19.3,29.8,44.2,36.6
				l0.3,0.1h0.3c0.4,0,11-0.1,23.9-6.4c11.8-5.7,27.8-17.9,37.7-43.4c3.4-1.5,14.3-7.7,15.8-26.3c1.7-21.3-22.2-41.1-23.2-41.9
				l-0.9-0.8l-1.1,0.4c-0.2,0.1-16.2,5.9-23.4,5.9c0,0,0,0-0.1,0C277.3,133.4,261.8,117.7,242.1,117.7L242.1,117.7z"/>
		</g>
		<path id="XMLID_544_" d="M197.8,165.6c1.1,2.8,1.6,5.4,1.6,5.4s0.9-19-6.3-18.8c-7.2,0.2-8,16.2-7.3,20.4c0,0,0.5-14.5,5.9-14
			c1.7,0.2,3,1.4,4.1,3c-1.8,0.6-5.9,1.9-5.9,10.1c0,11.2,7.9,10.3,7.9,10.3s-6.5-1.9-4.4-9.2C195.1,167,197.1,165.8,197.8,165.6z"
			/>
		<path id="XMLID_543_" class="st5" d="M260.8,164.7c0,0,9.2-35.6-27.5-35.6c-43.9,0-36.3,50.3-16.8,59.3
			C230.7,195,257.3,183.9,260.8,164.7z"/>
		<path id="XMLID_514_" class="st10" d="M294.2,155c-30.9,18.2-11.6,32.3-14.4,38.4c-2.9,6.1-12.4,6-12.4,6s8.3,2.9,15.1-2.3
			C292,189.8,266.5,180.6,294.2,155z"/>
		<path id="XMLID_513_" class="st5" d="M281.1,164.6c0,0,14.9-35.9,34-18.1c19.1,17.8-7.1,58.8-16.8,57.1
			C288.6,201.8,275.6,179.8,281.1,164.6z"/>
		<g id="XMLID_512_">
			<path class="st5" d="M321.9,165.7c-0.4,0-0.9-0.2-1.2-0.5l-16.2-18.1c-0.2-0.3-0.4-0.6-0.4-1c0-1.1-0.5-26.1,18.3-32.8
				c6-2.1,13.8-2.5,22.1-3c16.6-0.9,35.4-1.8,43.4-17.6c0.3-0.5,0.8-0.9,1.4-0.9c0.2,0,0.3,0,0.5,0.1c0.7,0.2,1.2,1,1.1,1.7
				c0,0.3-5.3,31.1-31.5,38c-24.5,6.4-35.9,32.9-36.1,33.1c-0.2,0.5-0.7,0.8-1.2,0.9C322.1,165.7,322,165.7,321.9,165.7z"/>
			<path d="M389.3,93.4c0,0-4.8,30-30.3,36.7c-25.5,6.7-37.1,34-37.1,34l-16.2-18.1c0,0-0.6-24.9,17.2-31.3
				C340.8,108.4,376.9,118,389.3,93.4 M389.3,90.3c-1.2,0-2.3,0.6-2.8,1.7c-7.6,15-25.1,15.9-42.1,16.8c-8.4,0.4-16.3,0.8-22.5,3.1
				c-19.8,7.1-19.3,33.2-19.3,34.3c0,0.7,0.3,1.5,0.8,2l16.2,18.1c0.6,0.7,1.5,1,2.3,1c0.2,0,0.3,0,0.5,0c1.1-0.2,2-0.9,2.4-1.9
				c0.1-0.3,11.3-26,35-32.2c11.3-3,20.6-10.7,26.7-22.4c4.6-8.7,5.9-16.5,5.9-16.8c0.2-1.5-0.7-3-2.1-3.5
				C390,90.3,389.7,90.3,389.3,90.3L389.3,90.3z"/>
		</g>
		<path id="XMLID_511_" class="st8" d="M331.8,136.4c0,0,9.1-7.9,22.4-9.7c13.3-1.8,15.8-5.2,15.8-5.2s-4.5,5.6-18.1,8.8
			c-7,1.8-16.9,11.7-16.9,11.7l-8.2,2.9L331.8,136.4z"/>
		<path id="XMLID_510_" class="st8" d="M309,141.6c0,0,3.9-26.5,35-25.1c0,0-22.8,6.3-26.5,22.1L309,141.6z"/>
		<path id="XMLID_509_" d="M379.8,110.7c0,0-3,7.9-25.6,12.1c-22.6,4.1-29.4,28.3-29.4,28.3H318l8.8-20.1c0,0,9.7-10.6,27.8-11.8
			C372.7,117.9,379.8,110.7,379.8,110.7z"/>
		<g id="XMLID_1183_">
			<path id="XMLID_508_" class="st11" d="M379.8,110.7c0.1,0.1-0.5,1.1-2.2,2.4c-1.7,1.2-4.5,2.5-8,3.5c-3.5,1-7.8,1.8-12.4,2.8
				c-4.7,0.9-9.8,2-15,3.5c-1.3,0.4-2.6,0.8-3.8,1.3c-1.2,0.5-2.3,1.1-3.4,1.7c-2.1,1.3-4,2.8-5.7,4.4c-3.3,3.2-5.8,6.7-7.7,9.7
				c-3.8,6.1-5.3,10.3-5.6,10.2c-0.3-0.1,0.8-4.5,4.4-10.9c1.8-3.2,4.2-6.9,7.6-10.3c1.7-1.7,3.7-3.4,6-4.8c1.1-0.7,2.4-1.3,3.7-1.9
				c1.3-0.6,2.6-1,4-1.4c5.3-1.6,10.6-2.6,15.3-3.4c4.7-0.8,8.9-1.5,12.4-2.3c3.5-0.8,6.2-1.8,7.9-2.7
				C378.9,111.4,379.6,110.6,379.8,110.7z"/>
		</g>
		<g id="XMLID_507_">
			<path class="st5" d="M223.4,143.6c-4.4,0-8.1-1.3-10.5-3.8c-1.9-2-2.9-4.7-2.9-7.8c0.2-9.2-5.9-13.3-13.7-18.5
				c-3.7-2.5-7.5-5-11-8.4c-29.4-29-10.6-55.4-10.4-55.7c0.3-0.4,0.8-0.6,1.3-0.6c0.2,0,0.3,0,0.5,0.1c0.6,0.2,1.1,0.8,1.1,1.5
				c-0.4,31.3,20,35.9,38,40c9.5,2.1,18.4,4.2,22.7,10.1c11.1,15.5,2.8,31.2,1.5,33.4C238.5,140,230.5,143.6,223.4,143.6
				C223.4,143.6,223.4,143.6,223.4,143.6z"/>
			<path d="M176.2,50.4L176.2,50.4 M176.2,50.4c-0.6,49.5,49.5,35.1,61,51.1c11.5,16,1.3,31.9,1.3,31.9c-1,5.3-8.3,8.7-15,8.7
				c-6.2,0-12-2.9-11.8-10c0.3-14.7-14-17.6-25.2-28.1C157.6,75.6,176.2,50.4,176.2,50.4 M176.2,47.2c-0.1,0-0.2,0-0.3,0
				c-0.6,0-1.1,0.3-1.6,0.6c-0.2,0.1-0.4,0.3-0.5,0.5c-0.1,0.1-0.1,0.2-0.2,0.2c-0.5,0.7-5.1,7.4-6.2,17.6c-1,9.7,1.1,24.5,16.8,40
				c0,0,0,0,0.1,0.1c3.7,3.5,7.7,6.2,11.2,8.5c7.6,5.1,13.2,8.8,13,17.2c-0.1,3.6,1.1,6.7,3.3,9c2.7,2.7,6.8,4.2,11.6,4.2
				c7.5,0,16.2-3.7,17.9-10.7c1.8-3.1,9.9-18.9-1.7-34.9c-4.6-6.4-13.8-8.5-23.6-10.7c-18.2-4.1-37.1-8.4-36.8-38.3
				c0-0.1,0-0.1,0-0.2c0-1.7-1.3-3.1-3-3.1C176.2,47.2,176.2,47.2,176.2,47.2L176.2,47.2z"/>
		</g>
		<path id="XMLID_506_" class="st8" d="M238.4,129c0,0,4.3-17.1-6-26.7c-10.3-9.6-27.7-7.5-27.7-7.5s29.3-0.5,27.7,27.4L238.4,129z"
			/>
		<path id="XMLID_505_" class="st8" d="M222,123.4c0,0-8.4-13-27.1-20c0,0,21.3,11.9,25.5,30.8l1.6,0.9C222,135,224,129.5,222,123.4
			z"/>
		<path id="XMLID_504_" d="M234.2,125.3c-4.8-12.3-10.9-19.8-32.3-25.5c-26.4-9.6-26-27.6-26-27.6s-2,21.4,26.6,30.6
			c21.9,6,25.1,23.3,25.1,23.3L234.2,125.3z"/>
		<g id="XMLID_1171_">
			<path id="XMLID_503_" class="st11" d="M175.8,72.2c0.2,0,0.4,1.3,1.1,3.4c0.7,2.2,2,5.3,4.4,8.5c2.4,3.3,5.9,6.7,10.6,9.5
				c2.3,1.4,4.9,2.6,7.6,3.7c1.4,0.5,2.8,1,4.3,1.4c1.5,0.4,3,0.7,4.5,1.1c6.3,1.6,12,4.5,16.3,8.1c4.3,3.7,7.2,8,9,11.8
				c1.8,3.9,2.5,7.2,2.8,9.6c0.3,2.3,0.2,3.7,0,3.7c-0.1,0-0.3-1.3-0.8-3.5c-0.5-2.2-1.5-5.4-3.4-9.1c-1.9-3.6-4.7-7.6-8.9-11
				c-4.1-3.4-9.5-6.1-15.6-7.6c-1.5-0.4-3.1-0.7-4.6-1.2c-1.5-0.4-3-0.9-4.4-1.5c-2.9-1.1-5.5-2.4-7.9-3.9c-4.8-3-8.4-6.7-10.8-10.3
				c-2.4-3.5-3.5-6.9-4-9.2C175.6,73.6,175.7,72.3,175.8,72.2z"/>
		</g>
		<g id="XMLID_502_">
			<path class="st12" d="M212.9,168.7c-7,0-14-4-20.6-12l-1.5-1.8l2.4,0.1c0,0,0.3,0,0.9,0c1.9,0,6.7-0.2,9.7-1.8
				c1.7-0.9,6-3,10.9-3c5,0,9,2.3,11.5,6.5c2,3.3,2.5,5.8,1.6,7.5c-0.5,0.9-1.6,1.9-4.3,1.9c-0.6,0-1.1-0.1-1.4-0.1
				C221,166.8,217.7,168.7,212.9,168.7z"/>
			<path d="M214.7,151.2c3.9,0,7.9,1.4,10.7,6c4.1,6.8,0.6,7.8-1.8,7.8c-0.9,0-1.7-0.2-1.7-0.2s-3.4,2.7-8.9,2.7
				c-5.1,0-12.1-2.4-19.8-11.7c0,0,0.3,0,0.9,0c2,0,7-0.2,10.2-1.9C206.4,152.9,210.4,151.2,214.7,151.2 M214.7,149.1L214.7,149.1
				c-5.1,0-9.7,2.2-11.4,3.1c-2.9,1.6-7.8,1.7-9.2,1.7c-0.5,0-0.8,0-0.8,0l-4.7-0.2l3,3.6c6.9,8.2,14.1,12.4,21.4,12.4
				c4.6,0,7.9-1.7,9.4-2.6c0.3,0,0.7,0.1,1.2,0.1c3.1,0,4.6-1.3,5.2-2.5c1.2-2,0.6-4.8-1.6-8.5C224.3,151.6,220,149.1,214.7,149.1
				L214.7,149.1z"/>
		</g>
		<g id="XMLID_501_">
			<path class="st13" d="M225.8,158.8c-3.9,0-9.6-1.9-13.8-7.3c-7.3-9.3-8.3-26-4.8-30.9l0.9-1.3l0.8,1.3c0.1,0.1,6,9.7,12.1,13.7
				c6.6,4.3,12.3,13.6,12,19.4C232.9,156.8,230,158.8,225.8,158.8z"/>
			<path d="M208.1,121.2c0,0,6.1,9.9,12.4,14c6.4,4.1,11.8,13.1,11.5,18.5c-0.1,2.5-2.7,4-6.2,4c-4,0-9.2-2-13-6.9
				C205.8,141.9,204.9,125.7,208.1,121.2 M208.2,117.4l-1.8,2.6c-4.1,5.7-2.4,23,4.8,32.2c4.4,5.6,10.5,7.7,14.6,7.7
				c4.7,0,8-2.4,8.3-6c0.4-6.3-5.4-15.8-12.4-20.4c-5.9-3.8-11.7-13.3-11.8-13.4L208.2,117.4L208.2,117.4z"/>
		</g>
		<g id="XMLID_500_">
			<path class="st12" d="M244.7,159c-3.7,0-8.3-2.8-13.8-8.4c-14.6-15-7-38.2-6.9-38.4l1.1-3.3l0.9,3.4c0,0.1,1.8,6,13.1,17.4
				c12,12,11.5,24.5,11.5,25l0,0.2l-0.1,0.1C250.5,155.2,249.1,159,244.7,159C244.7,159,244.7,159,244.7,159z"/>
			<path d="M225,112.6c0,0,1.6,6.1,13.4,17.9c11.8,11.8,11.2,24.3,11.2,24.3s-1.2,3.3-4.9,3.3c-2.7,0-6.9-1.8-13-8
				C217.3,135.2,225,112.6,225,112.6 M225.2,105.3l-2.2,6.6c-0.3,1-7.9,24.1,7.2,39.5c5.7,5.8,10.5,8.7,14.5,8.7
				c4.1,0,6.2-2.9,6.8-4.7l0.1-0.3l0-0.3c0-0.5,0.5-13.5-11.8-25.8C228.8,117.9,227,112.1,227,112L225.2,105.3L225.2,105.3z"/>
		</g>
		<g id="XMLID_499_">
			<path class="st13" d="M258.8,167c-18.6-14.7-10.3-38.3-10.2-38.5l0.6-1.6l1.2,1.2c17.5,18.5,10.2,38.2,10.1,38.4l-0.5,1.3
				L258.8,167z"/>
			<path d="M249.6,128.9c17.2,18.2,9.9,37.3,9.9,37.3C241.3,151.8,249.6,128.9,249.6,128.9 M248.7,125l-1.2,3.2
				c-0.1,0.2-2.2,6.2-2,14.1c0.3,10.5,4.6,19.4,12.6,25.6l2.2,1.8l1-2.7c0.3-0.8,7.6-20.6-10.3-39.5L248.7,125L248.7,125z"/>
		</g>
		<path id="XMLID_498_" class="st2" d="M259.5,166.2c0,0-4.8-18.8-21.1-19.5c-16.3-0.6-20.1,12.8-20.1,12.8S231.2,185.1,259.5,166.2
			z"/>
		<g id="XMLID_1144_">
			<path id="XMLID_496_" class="st11" d="M291.4,139.3c-0.2-0.2,2.2-4.1,6.2-10.4c4-6.3,9.7-15,15-25c2.7-5,4.9-9.9,6.7-14.5
				c1.8-4.6,3.1-8.8,4-12.4c1.9-7.2,2.3-11.8,2.6-11.8c0.2,0,0.3,4.7-1.3,12.1c-0.8,3.7-2,8-3.7,12.7c-1.7,4.7-4,9.7-6.7,14.8
				c-5.4,10.2-11.3,18.7-15.6,24.9C294.4,135.8,291.6,139.4,291.4,139.3z"/>
		</g>
		<g id="XMLID_495_">
			<path class="st12" d="M285.9,165.2c-0.8,0-1.6-0.1-2.4-0.2l-0.9-0.2l0-0.9c0-0.2,0.5-23,19.3-36l3.3-2.3l-1.8,3.6
				c0,0.1-4,8.2-4,13.9C299.4,150.8,296.6,165.2,285.9,165.2z"/>
			<path d="M302.5,128.9c0,0-4.1,8.3-4.1,14.4c0,5.7-2,20.9-12.5,20.9c-0.7,0-1.4-0.1-2.2-0.2C283.7,164,284,141.6,302.5,128.9
				 M308,122.5l-6.7,4.6c-19.2,13.2-19.7,35.8-19.7,36.8l0,1.8l1.7,0.3c0.9,0.2,1.7,0.2,2.5,0.2c11.5,0,14.6-15.1,14.6-23
				c0-5.5,3.9-13.3,3.9-13.4L308,122.5L308,122.5z"/>
		</g>
		<g id="XMLID_494_">
			<path class="st13" d="M298.2,163.9c-2.2,0-3.9-0.6-4.9-1.6c-0.6-0.7-0.9-1.6-0.8-2.6c0.6-6.4,6.8-14.1,14.9-18.7
				c7.1-4,19.1-16,19.2-16.1l5.3-5.3l-3.7,6.6c0,0.1-2.9,5.3-7.9,20.9C316.8,158.5,305,163.9,298.2,163.9
				C298.2,163.9,298.2,163.9,298.2,163.9z"/>
			<path d="M327.4,125.7c0,0-2.9,5.1-8,21.1c-3.5,11-14.8,16.1-21.2,16.1c-2.9,0-4.8-1-4.6-3c0.6-6.4,7-13.7,14.4-17.9
				C315.3,137.8,327.4,125.7,327.4,125.7 M336.5,113.6l-10.6,10.6c-0.1,0.1-12,12-19,15.9c-8.4,4.7-14.7,12.8-15.4,19.5
				c-0.1,1.3,0.2,2.4,1.1,3.4c1.2,1.3,3.1,1.9,5.6,1.9c7.1,0,19.4-5.6,23.2-17.5c4.9-15.4,7.8-20.6,7.8-20.7L336.5,113.6
				L336.5,113.6z"/>
		</g>
		<g id="XMLID_493_">
			<path class="st12" d="M315.3,168.1c-3.5,0-7.3-4.9-7.7-5.5l-0.3-0.5l0.2-0.5c0.1-0.4,3.5-9.5,10.9-11.5
				c6.7-1.8,15.7-10.2,15.8-10.3l3-2.8l-1.3,3.9c-2.9,8.7-15.3,24.9-19,26.8C316.4,168,315.9,168.1,315.3,168.1
				C315.3,168.1,315.3,168.1,315.3,168.1z"/>
			<path d="M334.9,140.6c-2.9,8.6-15.3,24.6-18.5,26.2c-0.4,0.2-0.7,0.3-1.1,0.3c-3.1,0-6.9-5-6.9-5s3.2-8.9,10.2-10.9
				C325.7,149.2,334.9,140.6,334.9,140.6 M339.5,133.5l-6,5.6c-0.1,0.1-9,8.3-15.4,10c-8,2.2-11.5,11.8-11.6,12.2l-0.4,1.1l0.7,0.9
				c0.7,1,4.6,5.9,8.5,5.9c0.7,0,1.4-0.2,2.1-0.5c3.8-1.9,16.6-18.5,19.6-27.4L339.5,133.5L339.5,133.5z"/>
		</g>
		<g id="XMLID_492_">
			<path class="st13" d="M314.2,174.6c-3.8,0-5.4-6.7-5.5-7.5l-0.1-0.5l0.4-0.4c0.2-0.2,5.3-5.4,11.3-5.4c0.6,0,1.1,0,1.6,0.1
				c0.7,0.1,1.5,0.2,2.4,0.2c5.9,0,13.7-2.6,13.8-2.6l3.9-1.3l-2.8,3c-5.4,5.8-21.2,14.3-24.8,14.4L314.2,174.6z"/>
			<path d="M338.4,159.5c-5.4,5.8-21,13.9-24.1,14.1c0,0-0.1,0-0.1,0c-3.1,0-4.5-6.7-4.5-6.7s4.9-5,10.5-5c0.5,0,1,0,1.5,0.1
				c0.8,0.1,1.7,0.2,2.5,0.2C330.4,162.1,338.4,159.5,338.4,159.5 M345.5,154.9l-7.8,2.6c-0.1,0-7.7,2.6-13.5,2.6
				c-0.8,0-1.6-0.1-2.2-0.2c-0.6-0.1-1.2-0.1-1.8-0.1c-6.5,0-11.8,5.4-12,5.7l-0.8,0.8l0.2,1.1c0.3,1.4,2.1,8.3,6.6,8.3
				c0.1,0,0.1,0,0.2,0c3.9-0.1,19.9-8.6,25.6-14.7L345.5,154.9L345.5,154.9z"/>
		</g>
		<path id="XMLID_491_" class="st2" d="M316.6,172.9c0,0,1-13.7-13.1-16.9c-14-3.2-21.7,10.2-21.7,10.2S294.2,195.2,316.6,172.9z"/>
		<path id="XMLID_490_" class="st13" d="M244.4,208.3c0,0,0,15.7,13.6,18.2c13.6,2.4,21.3-10.1,21.3-10.1S252.4,206.6,244.4,208.3z"
			/>
		<path id="XMLID_489_" class="st14" d="M240.5,205.3c0,0-2.4,1.2-7,7.9c-3.8,5.6-11.2,7.3-11.2,7.3s19.2,5.2,26.9-12L240.5,205.3z"
			/>
		<path id="XMLID_488_" class="st14" d="M283.9,213.5c0,0,1.7,2,3.2,10c1.3,6.7,7.3,11.2,7.3,11.2s-19.7-2.9-19.8-21.8L283.9,213.5z
			"/>
		<path id="XMLID_487_" class="st5" d="M288.7,213.3c0,0-9.3,3.2-15.3,2.9c0,0-7,0.6-9.3-1.3c0,0-16.9,0-30-13.7
			c0,0,11.5,5.4,17.6,5.4c6.1,0,11.2-0.3,13.1,0c1.9,0.3,2.6,4.1,5.1,4.1c2.6,0,7.7-2.2,9.3-1.9
			C280.7,209.1,283.9,214.9,288.7,213.3z"/>
		<circle id="XMLID_486_" class="st15" cx="296.4" cy="164.2" r="7.7"/>
		<circle id="XMLID_485_" class="st15" cx="234.1" cy="155" r="7.7"/>
		<path id="XMLID_484_" class="st16" d="M235.8,155c0-2.7-1.6-4.9-1.6-4.9s-1.6,2.2-1.6,4.9c0,2.7,1.6,4.9,1.6,4.9
			S235.8,157.8,235.8,155z"/>
		<path id="XMLID_483_" class="st16" d="M297.5,163.5c0-2.7-1.6-4.9-1.6-4.9s-1.6,2.2-1.6,4.9c0,2.7,1.6,4.9,1.6,4.9
			S297.5,166.2,297.5,163.5z"/>
		<g id="XMLID_482_">
			<path class="st7" d="M140.4,449.7c-0.1,0-0.3,0-0.4-0.1c-11.4-5.3-19-16.5-20.3-30c-1.4-14.1,4.4-27.8,15-35.6
				c8.7-6.4,24.1-6.9,28.7-6.9c0.6,0,0.9,0,1,0c0,0,0.3,0,0.8,0c2.5,0,6.8,0.4,7.9,3.2c0.9,2.2-0.6,5-4.4,8.7
				c-7.5,20.2-27.2,27.2-28,27.5c-4.4,1.9-7.1,4.8-8,8.6c-2.3,9.9,8.3,22.8,8.5,22.9c0.3,0.4,0.3,0.9,0,1.3
				C141,449.5,140.7,449.7,140.4,449.7z"/>
			<path d="M165.2,378.1c3.1,0,12.7,0.7,2.7,10.2c-7.3,20.1-27.4,27.1-27.4,27.1c-20.3,8.9,0,33.2,0,33.2
				c-24.6-11.5-26.6-48-5.1-63.8c8.5-6.3,24-6.7,28.1-6.7c0.6,0,1,0,1,0S164.7,378.1,165.2,378.1 M165.2,376c-0.4,0-0.7,0-0.9,0
				c-0.2,0-0.5,0-1,0c-4.6,0-20.3,0.5-29.3,7.1c-11,8.1-16.9,22.1-15.5,36.6c1.4,13.8,9.2,25.3,20.9,30.8c0.3,0.1,0.6,0.2,0.9,0.2
				c0.6,0,1.3-0.3,1.7-0.8c0.6-0.8,0.6-1.9-0.1-2.6c-0.1-0.1-10.4-12.6-8.2-22c0.8-3.5,3.2-6,7.4-7.9c1.6-0.6,20.9-7.9,28.5-27.9
				c2.7-2.6,5.8-6.3,4.4-9.7C172.8,376.7,168.6,376,165.2,376L165.2,376z"/>
		</g>
		<g id="XMLID_481_">
			<path class="st5" d="M172,392.2c-2.6,0-4.9-1.4-6.8-4.1c-3-4.3-4.2-11.2-2.7-15.4c2.1-6,6.2-6.9,8.4-6.9c1.6,0,2.8,0.4,2.9,0.5
				l0.6,0.2l8,17.7l-0.5,0.7C178.7,389.8,175.4,392.2,172,392.2C172,392.2,172,392.2,172,392.2z"/>
			<path d="M171,367.5c1.4,0,2.3,0.4,2.3,0.4l7.3,16.3c-3.2,4.7-6.1,6.5-8.6,6.5c-6.4,0-10.1-11.6-8-17.4
				C165.8,368.5,168.8,367.5,171,367.5 M171,364.4c-2.1,0-7.3,0.8-9.9,7.9c-1.7,4.7-0.4,12.1,2.9,16.8c2.2,3.1,5,4.7,8.1,4.7
				c3.9,0,7.7-2.7,11.2-7.9l1-1.5l-0.7-1.6l-7.3-16.3l-0.5-1.2l-1.2-0.5C174.2,364.9,172.8,364.4,171,364.4L171,364.4z"/>
		</g>
		<path id="XMLID_480_" class="st17" d="M178.4,364.1c0,0-6.4-2.6-9.3,5.4c-2.9,8,5.4,27.4,16.6,10.9L178.4,364.1z"/>
		<path id="XMLID_479_" class="st5" d="M183.5,360.2c0,0-6.4-2.6-9.3,5.4c-2.9,8,5.4,27.4,16.6,10.9L183.5,360.2z"/>
		<path id="XMLID_478_" class="st17" d="M188.6,356.4c0,0-6.4-2.6-9.3,5.4c-2.9,8,5.4,27.4,16.6,10.9L188.6,356.4z"/>
		<path id="XMLID_477_" class="st5" d="M195.5,352.8c0,0-8.2-2.8-11.1,5.2c-2.9,8,5.4,27.4,16.6,10.8L195.5,352.8z"/>
		<g id="XMLID_476_">
			<path class="st7" d="M206,371.4c-3.4,0-8-0.7-10.8-4.2c-2.4-2.9-3-7.2-1.9-12.6c3.9-19.2,13.1-22.4,13.5-22.5
				c0.2-0.1,5.1-1.9,10.8-1.9c6.7,0,14.9,2.6,15.8,15.2c1.6,22.1-23.6,25.7-23.9,25.7C209.5,371.2,208,371.4,206,371.4
				C206,371.4,206,371.4,206,371.4z"/>
			<path d="M217.5,331.2c6.5,0,13.9,2.7,14.8,14.3c1.6,21.4-23,24.6-23,24.6s-1.4,0.3-3.3,0.3c-5.2,0-14.5-1.9-11.7-15.6
				c3.8-18.8,12.8-21.7,12.8-21.7S212,331.2,217.5,331.2 M217.5,329.1c-5.7,0-10.7,1.8-11.2,2c-1,0.4-10.2,4.2-14.1,23.3
				c-1.2,5.8-0.5,10.4,2.1,13.5c3.1,3.8,8,4.6,11.6,4.6c1.9,0,3.4-0.2,3.7-0.3c0.7-0.1,6.8-1,12.8-4.6c8.5-5,12.6-12.7,11.9-22.3
				C233.6,334.9,227.6,329.1,217.5,329.1L217.5,329.1z"/>
		</g>
		<path id="XMLID_475_" d="M198.5,370c0,0,20.6-2.6,29.8-15.5c0,0-16,11.7-32.7,10.9L198.5,370z"/>
		<path id="XMLID_474_" d="M229.4,347.1c0,0-17,16.4-33.3,20.2l-2.6-2.5C193.4,364.8,215.7,357.3,229.4,347.1z"/>
		<path id="XMLID_473_" d="M226.6,346.5c-16.4,9.6-32.3,18.3-32.3,18.3l-1.7-3.3C192.7,361.6,210.1,348.5,226.6,346.5z"/>
		<path id="XMLID_472_" d="M219.2,342c-13.8,7.4-23.8,19.1-23.8,19.1l-3.2-1.4C192.2,359.8,202.3,346.5,219.2,342z"/>
		<path id="XMLID_471_" d="M212.7,337.6c-10.7,8.4-16.8,21.2-16.8,21.2l-3.3-1.4C192.6,357.4,198.3,342.8,212.7,337.6z"/>
		<g id="XMLID_470_">
			<path class="st17" d="M380.3,392.7l0-1c0-1,1.4-24.2,35.7-41c-1.1-0.9-3.5-2.2-8.2-2.2c-4.2,0-9.2,1-15.1,3l-1.2,0.4l-0.2-1.3
				c0-0.1-1.5-11.9-10.4-16.4l-2.1-1.1l2.2-0.9c0.1-0.1,14.7-5.7,18.8-9.4l1.4-1.2l0.3,1.8c0.1,0.6,2.7,14.5,15,15.4
				c-0.6-3.5-3.1-13.5-11.5-16.1l-2.2-0.7l1.9-1.2c0.1-0.1,8.7-5.6,10.1-14.1c1.6-10,15.6-19.5,23.9-20.5l2.3-0.3l-1.3,1.9
				c-0.1,0.2-10.5,15.8-1.5,27.5l0.5,0.7l-0.6,0.6c-0.4,0.4-9.3,10.5,1,21.6c11.5,12.5-4.1,32.1-4.7,33l-0.3,0.3l-0.4,0.1
				c-0.1,0-15.1,2.6-28.5,23.5l-0.4,0.6L380.3,392.7z"/>
			<path d="M438.8,287.5c0,0-11,16.3-1.4,28.7c0,0-10.1,11,1,23c11,12-4.8,31.6-4.8,31.6s-15.3,2.4-29.2,23.9l-23-2.9
				c0,0,1-23.9,36.4-40.7c0,0-2-3.6-9.9-3.6c-3.7,0-8.7,0.8-15.5,3.1c0,0-1.4-12.4-11-17.2c0,0,14.8-5.7,19.1-9.6
				c0,0,2.9,16.3,17.2,16.3c0,0-1.4-14.8-12.4-18.2c0,0,9.1-5.7,10.5-14.8C417.3,298,430.7,288.4,438.8,287.5 M443.1,284.9l-4.5,0.5
				c-8.6,1-23.2,11-24.8,21.4c-1.3,8-9.5,13.3-9.6,13.4l-2,1.3l-0.3-1.6l-2.8,2.5c-3.3,2.9-14.5,7.6-18.5,9.2l-4.4,1.7l4.2,2.1
				c8.5,4.2,9.9,15.5,9.9,15.6l0.3,2.6l2.5-0.8c5.8-2,10.7-3,14.8-3c2.8,0,4.7,0.5,6,1.1c-33.2,17-34.5,40-34.6,41l-0.1,1.9l1.9,0.2
				l23,2.9l1.3,0.2l0.7-1.1c13.2-20.5,27.6-23,27.8-23l0.8-0.1l0.5-0.6c0.7-0.9,16.8-21.2,4.7-34.3c-9.5-10.4-1.3-19.8-0.9-20.2
				l1.2-1.3l-1.1-1.4c-8.5-11.1,1.4-26.1,1.5-26.3L443.1,284.9L443.1,284.9z M415.2,337.8c-10.3-1.8-12.6-14.2-12.6-14.3l0-0.2
				l2.2,0.7C411.6,326.1,414.3,333.8,415.2,337.8L415.2,337.8z"/>
		</g>
		<path id="XMLID_469_" class="st17" d="M450.3,329.6c0,0,4.3-5.3,1.4-10.1c0,0,16.8-13.4,8.6-30.6c0,0,11.5,11.5,10.1,23
			c-1.4,11.5,2.9,14.4,2.9,14.4s-12.9,3.4-14.4,10.5C457.5,344,450.3,329.6,450.3,329.6z"/>
		<path id="XMLID_468_" class="st17" d="M460.3,342.5c0,0,9.1-2.9,11-9.6c0,0,0,8.1,6.2,11c0,0-11.5,3.4-12.9,8.1L460.3,342.5z"/>
		<g id="XMLID_467_">
			<path class="st13" d="M391.9,394.2l0.3-1.2c8.1-29.5,39.9-34.3,40.2-34.3l0.8-0.1l4,8.7l-0.3,0.5c-1.4,2.2-2.5,3.5-2.5,3.6
				l-0.3,0.3l-0.4,0.1c-0.1,0-15.1,2.6-28.5,23.5l-0.4,0.6L391.9,394.2z"/>
			<path d="M432.6,359.8l3.4,7.5c-1.4,2.2-2.5,3.5-2.5,3.5s-15.3,2.4-29.2,23.9l-11.1-1.4C401.3,364.2,432.6,359.8,432.6,359.8
				 M433.8,357.5l-1.6,0.2c-0.3,0-8.3,1.2-17.3,6.1c-12.1,6.5-20.3,16.5-23.7,29l-0.6,2.3l2.4,0.3l11.1,1.4l1.3,0.2l0.7-1.1
				c13.1-20.4,27.6-23,27.8-23l0.8-0.1l0.5-0.6c0-0.1,1.2-1.4,2.6-3.7l0.6-1l-0.5-1l-3.4-7.5L433.8,357.5L433.8,357.5z"/>
		</g>
		<g id="XMLID_466_">
			<path class="st13" d="M454.2,388c-3.6,0-8.6-0.5-11.8-2.6c-0.4-0.3-0.8-0.5-1.2-0.8c-5.5-3.6-14.8-9.6-11.5-36.1
				c-2-0.9-7.2-3.7-9.5-9.6c-2.2-5.6-1.3-12.3,2.7-20c0.2-0.4,0.5-0.6,0.9-0.6c0.1,0,0.3,0,0.4,0.1c0.5,0.2,0.8,0.8,0.6,1.3
				c0,0.1-2.3,6.6,0.5,12.2c1.4,2.8,3.9,5,7.5,6.3c1.3-3.1,5.9-12.5,16.1-13.1c0.4-0.1,0.8-0.1,1.1-0.1c4.8,0,8.3,4.9,9.2,6.3
				c2.1,0.6,6.1,2.1,6.1,4.4c0,1.9,0,5,0.6,8.1c0.6,2.8,4.5,7.4,6.3,8.6c1.3,0.8,1.9,2.5,1.6,4.2c-0.3,1.7-1.6,3-3.2,3.4
				c-0.7,0.2-1.7,0.7-2.6,1.3c-1.8,1.1-4,2.4-6.7,2.4c0,0,0,0,0,0c-1,0-2-0.2-3-0.5c-3.2-1.1-5.1-2.2-6.1-2.9
				c-1,1.8-2.6,5.7-1.6,9.8c0.9,3.4,3.6,6.3,8,8.4c0.6,0.3,2,0.9,2,0.9c0.5,0.2,0.7,0.7,0.6,1.2l-1.6,6.4c-0.1,0.4-0.5,0.7-0.9,0.8
				C458.6,387.8,456.8,388,454.2,388z"/>
			<path d="M423.8,319.4c0,0-5.4,15.3,9.6,20.1c0,0,4.1-12.8,15.6-13.4c0.3-0.1,0.7-0.1,1-0.1c4.9,0,8.6,6.2,8.6,6.2
				s5.7,1.6,5.7,3.5c0,1.9,0,5.1,0.6,8.3c0.6,3.2,4.8,8,6.7,9.3c1.9,1.3,1.6,5.1-1.3,5.7c-2.4,0.5-5.2,3.7-9.1,3.7
				c-0.8,0-1.7-0.1-2.7-0.5c-5.4-1.9-6.7-3.5-6.7-3.5s-9.1,13.2,6.2,20.8c0.7,0.3,2.1,0.9,2.1,0.9l-1.6,6.4c0,0-1.9,0.2-4.4,0.2
				c-3.5,0-8.3-0.4-11.2-2.5c-5.1-3.5-16-8-12.1-36.7C430.8,347.8,412.3,341.4,423.8,319.4 M423.8,317.3c-0.8,0-1.5,0.4-1.9,1.1
				c-4.2,8-5.1,15-2.7,20.9c2.2,5.6,6.9,8.6,9.3,9.8c-3.1,26.5,6.3,32.7,12,36.3c0.4,0.3,0.8,0.5,1.2,0.8c2.7,1.9,6.9,2.8,12.4,2.8
				c2.6,0,4.6-0.2,4.7-0.2c0.9-0.1,1.6-0.7,1.8-1.6l1.6-6.4c0.2-1-0.3-2-1.2-2.4c-0.4-0.2-1.5-0.6-2-0.9c-4.1-2-6.6-4.6-7.4-7.8
				c-0.8-3.1,0.1-6.1,1-8c1.2,0.7,2.9,1.5,5.3,2.4c1.1,0.4,2.2,0.6,3.4,0.6c3,0,5.4-1.4,7.3-2.5c0.9-0.5,1.7-1,2.3-1.2
				c2.1-0.5,3.6-2.1,4-4.2c0.4-2.1-0.4-4.2-2-5.3c-1.6-1.1-5.3-5.4-5.8-7.9c-0.6-3-0.6-6.1-0.6-7.9c0-2.7-3.4-4.3-6.5-5.3
				c-1.3-1.8-4.9-6.5-9.9-6.5c-0.4,0-0.8,0-1.3,0.1c-9.9,0.6-14.8,8.9-16.6,12.8c-2.8-1.2-4.8-3.1-6-5.4c-2.6-5.1-0.4-11.3-0.4-11.3
				c0.4-1-0.1-2.2-1.1-2.6C424.4,317.3,424.1,317.3,423.8,317.3L423.8,317.3z"/>
		</g>
		<g id="XMLID_465_">
			<path class="st11" d="M451.7,379.8c-3.8,0-6.8-1.3-8.8-3.9c-5.3-6.8-2.7-20.6-1.9-23.9l10.1,6.8c-0.9,1.5-3.5,6.4-2.1,11.6
				c0.9,3.6,3.5,6.5,7.6,8.8C454.9,379.6,453.2,379.8,451.7,379.8C451.7,379.8,451.7,379.8,451.7,379.8z"/>
			<path d="M441.4,352.9l9.1,6.1c-1.1,1.9-3.2,6.6-1.9,11.6c0.9,3.3,3.1,6.2,6.6,8.4c-1.2,0.2-2.4,0.3-3.5,0.3
				c-3.7,0-6.4-1.2-8.3-3.7C438.6,369.4,440.5,357.1,441.4,352.9 M440.7,351.1c0,0-7.5,29.2,11,29.2c1.9,0,4-0.3,6.4-0.9
				c-15.3-7.6-6.2-20.8-6.2-20.8L440.7,351.1L440.7,351.1z"/>
		</g>
		<g id="XMLID_464_">
			<path class="st6" d="M396.8,443.6c-4.6,0-5.7-0.8-6.2-1.6c-0.5-0.8-3.8-2.6-5.5-3.6c-0.8-0.4-1.5-0.9-2.1-1.2
				c-2.4-1.5-4.1-7.2-4.8-10.1c-1.6-0.4-5.1-1.6-12.3-4.7c-5.8-2.5-30.8-11.4-52.9-19.2c-20.6-7.3-38.4-13.6-40.7-14.8
				c-1.7-0.8-4.1-1.3-6.6-1.7c-4.3-0.8-8.7-1.6-11.4-4.6c-3.4-3.9-19.9-20.4-57.8-55.2c-19.4-17.8-27.3-38.3-21.3-54.9
				c3.8-10.4,12.7-17,23.9-17.4c0.2,0,0.4,0,0.5,0c20.2,0,52.3,51.1,69.5,78.5c4.5,7.2,8.8,14,9.8,14.8c1.3,0.9,2.6,1.3,4.2,1.9
				c1.6,0.5,3.3,1.1,5.7,2.3c15.2,7.1,33.6,17.1,48.4,25.2c11.9,6.5,24.2,13.2,26.1,13.4c1.1,0,4.5-0.7,8-1.4c6.6-1.3,14.8-3,20.7-3
				c0.9,0,1.8,0,2.5,0.1c7.2,0.8,12.5,5.8,14.4,8.6c1,1.4,1.4,2.6,1.3,3.5c0.3,0.4,1,1.1,1.6,1.6c2.5,2.4,7.1,6.8,3.4,11.8
				c-2,2.6-1.2,5.4-0.5,8.1c0.6,2.5,1.3,5-0.6,6.9c-1.2,1.2-2.3,4.4-3.4,7.3c-1.5,4.2-2.5,6.8-4.1,7.7
				C404.5,443.2,399.3,443.6,396.8,443.6z"/>
			<path d="M199.6,256.2c25.7,0,73.7,90,78.4,93c2.9,1.9,5.3,1.9,10.1,4.3c29.7,13.9,71.3,38.8,75.2,38.8c3.5,0,19.5-4.4,28.8-4.4
				c0.8,0,1.6,0,2.4,0.1c8.6,1,14.8,8.6,14.4,10.5c-0.5,1.9,9.6,6.7,5.3,12.4c-4.3,5.7,1.9,12-1,14.8c-2.9,2.9-4.8,13.4-7.2,14.8
				c-1.4,0.8-5.5,1.3-8.9,1.3c-2.5,0-4.5-0.3-4.9-0.9c-1-1.4-5.7-3.8-8.1-5.3c-2.4-1.4-4.3-10.1-4.3-10.1s-1.9,0-12.9-4.8
				c-11-4.8-88.8-31.5-93.6-33.9c-4.8-2.4-13.7-1.7-17.5-6c-3.8-4.3-21.5-21.8-57.9-55.3c-36.4-33.5-23.9-68.5,1.6-69.6
				C199.3,256.2,199.4,256.2,199.6,256.2 M199.6,253c-0.2,0-0.4,0-0.6,0c-11.8,0.5-21.3,7.4-25.3,18.5c-2.9,7.9-2.7,17,0.6,26.4
				c3.6,10.4,10.7,20.6,21.1,30.1c37.8,34.8,54.2,51.3,57.7,55.1c3,3.4,8,4.3,12.3,5.1c2.4,0.4,4.7,0.9,6.2,1.6
				c2.3,1.2,17.1,6.4,40.9,14.8c22.1,7.8,47.1,16.6,52.8,19.1c3.9,1.7,8.5,3.6,11.6,4.5c1,3.7,2.7,8.6,5.3,10.1
				c0.6,0.4,1.4,0.8,2.2,1.2c1.4,0.8,4.4,2.4,5,3.1c1.1,1.6,3.2,2.2,7.5,2.2c0.8,0,7.7-0.1,10.6-1.8c2.1-1.2,3.1-3.9,4.8-8.6
				c0.9-2.5,2.1-5.8,3-6.7c2.5-2.5,1.7-5.8,1-8.4c-0.8-2.9-1.1-4.9,0.3-6.7c4.6-6.1-1.1-11.5-3.5-13.8c-0.3-0.3-0.8-0.8-1.1-1.1
				c-0.1-1.2-0.6-2.4-1.6-3.8c-2.8-4.1-8.7-8.5-15.6-9.2c-0.8-0.1-1.7-0.1-2.7-0.1c-6.1,0-14.4,1.7-21,3.1c-3.1,0.6-6.4,1.3-7.6,1.4
				c-2.5-0.7-14.2-7-25.5-13.2c-14.8-8.1-33.2-18.1-48.4-25.2c-2.4-1.2-4.3-1.9-5.8-2.4c-1.5-0.5-2.6-0.9-3.7-1.6
				c-1.2-1.2-5.4-7.9-9.4-14.4C246.4,294,219.1,253,199.6,253L199.6,253z"/>
		</g>
		<g id="XMLID_463_">
			<path class="st17" d="M326,424.6c-1.8,0-3.7-0.2-5.7-0.6c-17.5-3.5-19-28.1-20-44.4l0-0.1c-0.8-13.2-1.9-20.2-2.2-22l-13.8-7.2
				l1.7-0.9c0.3-0.2,7.1-3.9,15-3.9c5.8,0,10.7,2,14.5,6c8.4,9.3,9.7,22.4,10.8,34c1.1,10.7,2,19.9,8.1,23.5
				c1.5,0.9,5.2,2.8,7.8,4.1l0.8,0.4l-0.3,0.9C342.7,414.3,338.9,424.6,326,424.6z"/>
			<path d="M301.1,346.5c4.6,0,9.6,1.3,13.8,5.6c15.9,17.6,5.6,49.7,19.1,57.6c1.6,0.9,5.3,2.8,7.9,4.1c0,0-3.5,9.7-15.8,9.7
				c-1.7,0-3.5-0.2-5.4-0.6c-16.8-3.4-18.2-27.8-19.1-43.6c-1-15.8-2.3-22.6-2.3-22.6l-12.6-6.5
				C286.6,350.2,293.3,346.5,301.1,346.5 M301.1,344.4L301.1,344.4c-8.2,0-15.2,3.9-15.5,4l-3.4,1.9l3.4,1.8l11.6,6.1
				c0.4,2.4,1.4,9.2,2.1,21.4l0,0.1c1,16.6,2.5,41.7,20.8,45.4c2,0.4,4,0.6,5.9,0.6c13.6,0,17.6-10.6,17.8-11.1l0.6-1.7l-1.7-0.8
				c-1.5-0.7-6-3-7.7-4c-5.6-3.3-6.5-12.3-7.6-22.7c-1.2-11.7-2.5-25-11.1-34.5l0,0l0,0C312.3,346.5,307.2,344.4,301.1,344.4
				L301.1,344.4z"/>
		</g>
		<g id="XMLID_462_">
			<path class="st17" d="M370,439.2c-1.5,0-2.9-0.1-4.2-0.4c-12.7-2.8-16.4-16.3-18.5-30.5c-0.4-2.9-0.7-5.6-1-8.2
				c-1.4-11.8-2.3-19.5-11.4-24.2L333,375l1.9-0.9c0.2-0.1,4.6-2.2,10.8-2.2c4.8,0,9.2,1.3,13.3,3.8c6.3,3.9,9.1,16,11.9,27.6
				c2.4,9.9,4.8,20,8.9,21.6c1,0.2,2,0.3,3,0.5c3.9,0.5,8.4,1.1,9.7,5.5l0.2,0.8L392,432C391.5,432.3,380.4,439.2,370,439.2z"/>
			<path d="M345.7,372.9c3.8,0,8.3,0.9,12.7,3.6c11.5,7.2,11.5,46,21.1,49.3c4.8,1,10.5,0.5,12,5.3c0,0-11.2,7.1-21.4,7.1
				c-1.3,0-2.7-0.1-3.9-0.4c-11-2.4-15.3-13.4-17.7-29.7c-2.4-16.3-1.3-27.2-13-33.1C335.3,375,339.7,372.9,345.7,372.9
				 M345.7,370.8L345.7,370.8c-6.4,0-11,2.2-11.2,2.3l-3.8,1.8l3.7,1.9c8.6,4.4,9.5,11.5,10.8,23.4c0.3,2.6,0.6,5.3,1,8.2
				c2,13.9,5.9,28.5,19.3,31.4c1.4,0.3,2.8,0.4,4.4,0.4c10.7,0,22.1-7.1,22.5-7.4l1.3-0.8l-0.5-1.5c-1.5-5.1-6.5-5.7-10.6-6.3
				c-1-0.1-1.9-0.3-2.8-0.4c-3.5-1.4-6-11.7-8.1-20.8c-2.8-11.9-5.8-24.1-12.4-28.3C355.3,372.1,350.6,370.8,345.7,370.8
				L345.7,370.8z"/>
		</g>
		<g id="XMLID_1037_">
			<path id="XMLID_461_" class="st11" d="M259.3,124.3c-0.3,0-0.9-4.5-1.7-11.9c-0.8-7.4-1.8-17.6-4-28.7
				c-1.1-5.5-2.4-10.8-3.9-15.4c-1.5-4.7-3.1-8.7-4.6-12.1c-3.1-6.7-5.6-10.6-5.3-10.8c0.2-0.1,3.1,3.5,6.6,10.2
				c1.7,3.3,3.5,7.4,5.1,12.1c1.6,4.7,3,10,4.1,15.6c2.2,11.2,3,21.6,3.5,29C259.4,119.6,259.5,124.2,259.3,124.3z"/>
		</g>
		<g id="XMLID_1035_">
			<path id="XMLID_460_" class="st11" d="M279.8,139.5c-0.3-0.1,1.5-6.4,4.5-16.6c2.9-10.2,7.1-24.3,10.2-40.1
				c1.5-7.9,2.6-15.5,3.1-22.5c0.5-6.9,0.5-13.2,0.3-18.4c-0.5-10.5-1.9-16.9-1.6-16.9c0.2-0.1,2.1,6.2,3,16.8
				c0.4,5.3,0.6,11.6,0.1,18.6c-0.4,7-1.4,14.7-3,22.7c-3.1,16-7.6,30.1-10.8,40.2C282.3,133.4,280,139.6,279.8,139.5z"/>
		</g>
		<g id="XMLID_459_">
			<path class="st13" d="M296.4,87.4c-2.1-0.1-4.2-1.1-5.7-2.8c-2.1-2.3-3.2-5.6-3-9.1c0.3-6.2,4.5-11.1,9.5-11.1c0.1,0,0.2,0,0.4,0
				c2.1,0.1,4.2,1.1,5.7,2.8c2.1,2.3,3.2,5.6,3,9.1c-0.3,6.2-4.5,11.1-9.5,11.1C296.6,87.4,296.5,87.4,296.4,87.4z"/>
			<path class="st11" d="M297.2,65.4c0.1,0,0.2,0,0.3,0c4.5,0.2,8,5.1,7.7,10.9c-0.3,5.6-4.1,10.1-8.5,10.1c-0.1,0-0.2,0-0.3,0
				c-4.5-0.2-8-5.1-7.7-10.9C289.1,69.8,292.8,65.4,297.2,65.4 M297.2,63.3c-5.6,0-10.3,5.3-10.6,12.1c-0.2,3.8,1,7.4,3.3,9.9
				c1.8,1.9,4,3.1,6.5,3.2c0.1,0,0.3,0,0.4,0c5.6,0,10.3-5.3,10.6-12.1c0.2-3.8-1-7.4-3.3-9.9c-1.8-1.9-4-3.1-6.5-3.2
				C297.5,63.3,297.4,63.3,297.2,63.3L297.2,63.3z"/>
		</g>
		<g id="XMLID_458_">
			<path class="st18" d="M256.8,96.8c-3.7,0-7-3.4-7.6-8c-0.4-2.7,0.3-5.4,1.7-7.3c1.1-1.4,2.6-2.3,4.2-2.5c0.2,0,0.5,0,0.7,0
				c3.7,0,7,3.4,7.6,8c0.4,2.7-0.3,5.4-1.7,7.3c-1.1,1.4-2.6,2.3-4.2,2.5C257.3,96.8,257,96.8,256.8,96.8z"/>
			<path class="st11" d="M255.8,79.8c3.3,0,6.2,3.1,6.8,7.3c0.6,4.4-1.7,8.4-5.2,8.8c-0.2,0-0.4,0-0.6,0c-3.3,0-6.2-3.1-6.8-7.3
				c-0.6-4.4,1.7-8.4,5.2-8.8C255.4,79.8,255.6,79.8,255.8,79.8 M255.8,78.1c-0.3,0-0.6,0-0.8,0.1c-1.9,0.2-3.6,1.2-4.8,2.8
				c-1.6,2.1-2.3,5-1.9,7.9c0.7,5,4.3,8.7,8.5,8.7c0.3,0,0.6,0,0.8-0.1c1.9-0.2,3.6-1.2,4.8-2.8c1.6-2.1,2.3-5,1.9-7.9
				C263.6,81.9,260,78.1,255.8,78.1L255.8,78.1z"/>
		</g>
		<g id="XMLID_761_">
			<path class="st18" d="M313,110.4c-0.6,0-1.2-0.1-1.7-0.3c-1.3-0.5-2.3-1.5-2.9-2.8c-0.8-1.8-0.7-4.1,0.1-6.2
				c1.3-3,3.9-5.1,6.6-5.1c0.6,0,1.2,0.1,1.7,0.3c1.3,0.5,2.3,1.5,2.9,2.8c0.8,1.8,0.7,4.1-0.1,6.2
				C318.4,108.4,315.7,110.4,313,110.4L313,110.4z"/>
			<path class="st11" d="M315.1,96.7c0.5,0,1,0.1,1.5,0.3c2.7,1,3.8,4.6,2.3,8.1c-1.2,2.8-3.6,4.7-6,4.7c-0.5,0-1-0.1-1.5-0.3
				c-2.7-1-3.8-4.6-2.3-8.1C310.3,98.6,312.8,96.7,315.1,96.7 M315.1,95.4c-3,0-5.9,2.2-7.3,5.5c-0.9,2.3-1,4.7-0.1,6.7
				c0.7,1.5,1.8,2.6,3.2,3.2c0.6,0.2,1.3,0.4,2,0.4c3,0,5.9-2.2,7.3-5.5c0.9-2.3,1-4.7,0.1-6.7c-0.7-1.5-1.8-2.6-3.2-3.2
				C316.5,95.5,315.8,95.4,315.1,95.4L315.1,95.4z"/>
		</g>
		<g id="XMLID_760_">
			<path d="M284,170c15,20.7,32.4,3.2,32.4,3.2s3.5,2.5,3.5,7.4c-1.2-2-3.2-3.9-6-4c0,0,2.1,2.2,1.9,7.3c-1-2-3.4-4.4-5.8-4.7
				c0,0,2.6,3,0.9,8c-1.2-2.9-2.5-4.4-4.7-6.5c0,0,0.2,4.9-1.8,8.8c-0.8-5.1-4-7.6-4-7.6s0.5,2.9-2.7,8.7c-0.1-5.1-0.2-6.8-2.2-9.7
				c0,0,0,3.5-2.9,6.7c0.2-3.6,0-5.6-1.3-8.9c0,0-0.7,3-3.2,5c0.6-2.4,0.3-6.2-1.1-8c0.2,4-2.6,5-2.6,5S285.4,176.1,284,170z"/>
		</g>
		<g id="XMLID_759_">
			<path d="M261.7,166.3c-1.1,0.9-0.8-1.6-1.9-0.9c-26.4,16.9-41.5-5.9-41.5-5.9s-3.8,2-5.1,7c2-1.8,5.2-0.1,8.8,0.4
				c0,0-2.6,1.7-3.6,7c1.7-1.9,5.4-3.9,8.4-3.7c0,0-4,2.6-3.1,8.3c2.2-2.8,4.2-4.1,7.5-5.8c0,0-1.5,5.1,0,9.7
				c2.3-5.2,6.9-7.1,6.9-7.1s-1.3,3,1.2,9.7c1.4-5.4,2-7.1,5.2-9.7c0,0-0.9,3.7,2,7.7c0.6-3.9,1.4-5.9,3.8-9c0,0,0.1,3.3,2.8,6
				c-0.1-2.6,1.2-6.6,3.4-8.2c-1.2,4.2,2,5.8,2,5.8S258.4,172.5,261.7,166.3z"/>
		</g>
		<g id="XMLID_1009_">
			<path id="XMLID_758_" class="st11" d="M340.4,344.7l-2.3-9.4c-3.1-12.9-12.2-25.1-16.3-30.1c0.2,5.4-0.7,9.5-0.8,9.7l-0.4,1.9
				l-1.3-1.5c-8.9-9.7-22.8-12.2-28.8-12.8c3.4,2.4,9.6,5.3,12.2,6.4l2.8,1.2l-3,0.8c-5.8,1.5-13,2.6-16.6,3.1
				c6.7,5.4,15.9,11,16,11l2.6,1.6l-3,0.4c-14.5,1.8-29.2-2.6-29.8-2.7l-3.2-3c0.1,0,16.7,4.8,29.7,4c-3.7-2.4-10.6-6.9-15.4-11.1
				l-1.7-1.5l2.3-0.3c0.1,0,8.3-1,15.7-2.7c-3.9-1.8-10.5-5.1-12.3-7.7l-1.2-1.7l2,0c0.8,0,19.5,0.4,31.8,12.2
				c0.3-2.2,0.7-6,0.2-10.2l-0.4-3.2l2.2,2.4c0.5,0.6,11.2,12.3,16.7,26.8c0.1-10.5,0.8-29.7,4.7-35.1l1.8-2.4l0.1,3
				c0,0.1,0.2,4.6,2.1,9.3c1.1-3.8,3.4-10.5,6.9-13.9l1.7-1.7l0.1,2.4c0,0.1,0.2,5.6,0.5,9.4c1.2-1.9,2.9-4.9,3.8-8.1l0.8-2.8
				l1.2,2.6c0.1,0.3,2.9,6.4,2.2,13.6c1.3-2,3.5-6.5,3.9-9.3l0.7,3.4c-0.8,6.3-5.5,10.5-5.7,10.8l-3,3.2l1.3-4.2
				c1.6-5.3,0.6-10.6-0.3-13.8c-1.8,4.5-4.6,8-4.7,8.2l-1.4,1.8l-0.4-2.3c-0.4-1.9-0.6-6.6-0.7-9.6c-3.4,5.1-5.3,13.5-5.4,13.6
				l-0.6,2.7l-1.3-2.4c-1.7-3.2-2.6-6.6-3.1-9c-2.8,8.9-3,29.4-2.8,37.6L340.4,344.7z"/>
		</g>
		<g id="XMLID_1007_">
			<path id="XMLID_757_" class="st11" d="M328.3,356.5l-1-3.2c6.7-20.1,0.5-31.9-1.4-35c-1.6,4.6-3.1,9.4-3.1,9.5l-0.4,1.4l-0.6-1.3
				c-4.8-11.5-17.5-11.4-21.5-11l15.1,11.3l-0.9,0.3c-14.6,5.9-34.3,2.5-34.5,2.5l-4.7-2.3c0.2,0,23.7,4.5,38-0.8l-15.6-11.7
				l1.2-0.2c0.2,0,16.9-2.9,23.4,10.2c0.6-1.9,1.9-5.8,3.1-9.2l0.3-0.9l0.6,0.7C326.2,317,336.4,332.4,328.3,356.5z"/>
		</g>
		<g id="XMLID_1005_">
			<path id="XMLID_756_" class="st11" d="M352.3,342.7c-0.1-0.1-12-17.2-8.5-30.9l0.3-1.3l0.6,1.2c0,0,1.7,3.2,3.8,4.4
				c0.8-2.2,3.7-9.6,10.2-12.6l1-0.5l-3.2,12.5c1.7-0.3,7.5-3.5,11.5-8.6l-0.6,2.5c-5.3,6.7-11.3,7.2-11.5,7.2l-0.7,0l3-11.8
				c-6.3,3.7-8.8,12-8.8,12l-0.2,0.6l-0.5-0.2c-1.7-0.7-3.3-2.7-4.1-4c-2.5,12.8,7.1,25.8,7.2,25.9L352.3,342.7z"/>
		</g>
		<g id="XMLID_1003_">
			<polygon id="XMLID_755_" class="st11" points="307.2,715.5 306.6,669.5 300.6,712.1 294.8,667.3 292.3,710.8 280.4,653.6 
				282.4,653.1 291.1,695 293.4,656.1 295.5,656 300.7,696.6 306.4,656 308.5,656.1 309.1,698.8 318.8,658 320.9,656.5 			"/>
		</g>
		<g id="XMLID_1001_">
			<path id="XMLID_754_" class="st11" d="M306,653c-14.8,0-26.1-3.1-26.2-3.2l-0.2-2.8c0.2,0.1,21.1,6.6,42.1,2.5l-0.2,2.1
				C316,652.7,310.9,653,306,653z"/>
		</g>
		<g id="XMLID_999_">
			<path id="XMLID_753_" class="st11" d="M341.2,778.8c-1.4,0-2.9-0.1-4.4-0.2c-7.3-0.6-12.1-2.6-16.6-4.6
				c-5.7-2.4-11.1-4.7-21.3-4.5c-12.8,0.2-18.6-5-18.8-5.3l-0.2-2.9c0.1,0.1,7.1,6.3,19,6.1c10.7-0.2,16.5,2.3,22.2,4.7
				c4.6,2,9,3.8,16,4.4c16,1.4,28.7-5.9,29.9-7.8l1.6,1.4C366.7,773,355.3,778.8,341.2,778.8z"/>
		</g>
		<path id="XMLID_752_" d="M260.1,165.8c0,0-4.4-22.4-20.7-22.4c-16.4,0-23.5,16-23.5,16s-7.5,3.1-18-1.1c0,0,9.2,6.3,21.6,3.6
			l-1.1-2.5c0,0,4.4-12.2,19.7-12.2c10,0,17,9,20.9,18.5C259.4,166.8,260.1,165.8,260.1,165.8z"/>
		<path id="XMLID_751_" d="M226,149c0,0-12-6.1-16.2-18.3c0,0,3.2,14.6,11.5,22.1L226,149z"/>
		<path id="XMLID_750_" d="M241.1,145.2c0,0-11.7-10.2-14.4-21.9c0,0,1.8,14.6,6.7,22.1L241.1,145.2z"/>
		<path id="XMLID_749_" d="M255.8,156.9c0,0,0.2-12.2-4.5-20.9c0,0,1.3,9.3-0.5,13.7L255.8,156.9z"/>
		<path id="XMLID_748_" d="M296.9,136.6c0,0-5.8,7.5-8.2,22.2l3.5-1.9C292.2,156.8,293.1,143.4,296.9,136.6z"/>
		<path id="XMLID_747_" d="M306.2,156.7c0,0,9.1-7.3,14.3-21.3c0,0-11.9,16.6-20.4,19.9L306.2,156.7z"/>
		<path id="XMLID_457_" d="M312.1,160c0,0,11-5.8,16.6-12.4c0,0-5.6,7.7-14.7,15.2L312.1,160z"/>
		<path id="XMLID_456_" d="M315.4,166.3c0,0,9.9-1,15.2-3c0,0-8.9,4.7-14.5,5.9L315.4,166.3z"/>
		<path id="XMLID_455_" d="M282.4,167c0,0,9.7-13.8,22.4-9.1s10.5,15.9,10.5,15.9l2.6,0.3c0,0,2.8-15.4-11.8-20
			c-14.7-4.5-22.9,7.1-24.7,12.1L282.4,167z"/>
		<path id="XMLID_454_" d="M283.5,163.2c0,0,3.8,15.9,16.1,15.9s17.3-7.6,17.3-7.6l0.3,2.2c0,0-8.4,8.2-17.3,8.2
			c-11.5,0-17.6-12.8-18.5-15.7L283.5,163.2z"/>
		<path id="XMLID_453_" d="M293.3,154.4c0,0-18.8,6-18.8,20.4c0,14.4,8,16.2,2.9,21.4c0,0,4.5-0.6,2.2-6.8
			c-2.3-6.3-9.9-22.4,16.3-32.6L293.3,154.4z"/>
		<g id="XMLID_746_">
			<path class="st5" d="M227.3,864.3c-1.4,0-2.9-0.1-4.4-0.2c-18.6-1.6-24.5-13.4-30.3-24.8c-0.8-1.7-1.7-3.4-2.6-5.1l-0.1-0.1
				c-0.4-0.9-0.8-1.8-1.3-2.8c-4.7-10-9.5-20.4-8.8-31.6c0.3-5.5,1.9-9.9,3.4-14.1c1.7-4.6,3.2-9,3.2-14.8v-0.4l4.9-12
				c6.4-26.5,12.1-65.7,14.6-99.8l0.1-1.9l1.9-0.1c2.9-0.1,5.9-0.1,8.9-0.1c12.5,0,25.6,0.8,38.8,2.5l2.7,0.3l-1,2.5
				c-10.9,28.5-18.3,53.5-21.9,74.6l-9,54.4c8.3,17.1,9.6,24.1,10.3,28.3c0.5,3,0.8,4.3,3.4,7.4c2.2,2.6,4.1,4.2,5.9,5.6
				c3.7,3.1,6.4,5.3,6.4,13.3c0.2,4.7-1.1,8.6-4.1,11.7C244.1,861.8,236.6,864.3,227.3,864.3C227.3,864.3,227.3,864.3,227.3,864.3z"
				/>
			<path d="M216.9,658.8c12.9,0,25.9,0.9,38.5,2.4c-9.5,24.7-17.9,51.2-22,75l-9.2,55.1c14.9,30.5,7.4,28.5,14.3,36.7
				c7,8.3,11.8,7,11.8,17.6c0.6,11.6-10.3,16.6-23.1,16.6c-1.4,0-2.8-0.1-4.2-0.2c-20.1-1.8-24.3-15.8-31.2-28.7
				c-4.9-10.6-10.6-21.6-9.9-33.4c0.7-11.1,6.7-17.3,6.7-29l4.8-11.7c6.6-27.5,12.2-66.6,14.6-100.3
				C211,658.8,213.9,658.8,216.9,658.8 M216.9,654.6c-3,0-6,0-8.9,0.1l-3.8,0.1l-0.3,3.8c-2.5,33.9-8.1,72.9-14.5,99.3l-4.7,11.4
				l-0.3,0.8v0.8c0,5.5-1.5,9.7-3.1,14.1c-1.6,4.3-3.2,8.8-3.6,14.7c-0.7,11.8,4.2,22.4,9,32.6c0.4,0.9,0.9,1.8,1.3,2.7l0.1,0.1
				l0.1,0.1c0.9,1.7,1.8,3.4,2.6,5c5.7,11.3,12.2,24.2,31.9,25.9c1.6,0.1,3.1,0.2,4.6,0.2c9.9,0,18-2.7,22.6-7.7
				c3.3-3.5,4.9-8.1,4.7-13.2c0-8.4-2.7-11.2-7.2-14.9c-1.6-1.4-3.5-2.9-5.6-5.3c-2.3-2.7-2.4-3.5-3-6.4c-0.8-4.2-2-11.3-10.2-28.2
				l8.9-53.8c3.6-20.9,10.9-45.8,21.8-74.2l1.9-5l-5.3-0.7C242.6,655.4,229.5,654.6,216.9,654.6L216.9,654.6z"/>
		</g>
		<g id="XMLID_980_">
			<polygon id="XMLID_745_" class="st11" points="223.6,741.1 232.9,686.1 214.3,740.6 220.7,687.3 207.9,734.9 207.1,673.6 
				209.2,673.6 209.8,719.8 222.5,672.6 224.5,673 218.7,721.1 235,673.3 237.1,673.8 228.9,722 246.9,676.7 248.9,677.5 			"/>
		</g>
		<g id="XMLID_978_">
			<path id="XMLID_744_" class="st11" d="M250.5,673.9c-24.6-5.8-43.1-2.6-43.3-2.6l0.1-2.3c0.2,0,18.6-3.1,43.7,2.8L250.5,673.9z"
				/>
		</g>
		<g id="XMLID_976_">
			<path id="XMLID_743_" class="st11" d="M227.6,855.2c-10.1,0-22.9-4-29.8-15.7c-12.2-20.5-14.6-45.5-14.7-45.8l0.8-3.8
				c0,0.3,3.7,28.4,15.7,48.5c7.1,12.1,21.1,15.3,30.9,14.5c9-0.8,17.5-6.1,19.7-11.8l0.5,3c-2.5,6.5-10.2,10.1-20,10.9
				C229.7,855.2,228.7,855.2,227.6,855.2z"/>
		</g>
		<path id="XMLID_742_" d="M234.1,201.2c0,0,5.3,9.4,22.7,13.3c2,0.5,5.8,1.5,8.8,2.6c2.1-0.1,5.7,0,9.8-0.3c4.1-0.4,7.8-1,13.2-3.4
			c0,0-6.4,2-13.8,1.8c-7.4-0.2-8.8-0.2-8.8-0.2s-4.9-2.1-9.9-3C249.5,210.7,240.3,207.9,234.1,201.2z"/>
		<path id="XMLID_741_" d="M222.6,220.6c0,0,16.2,2.6,23.6-9.7l2.3,0.7C248.5,211.6,242.7,224.7,222.6,220.6z"/>
		<path id="XMLID_740_" d="M276.7,216.6c0,0-0.2,12,16.7,17.7c0,0-15.4-1-19.2-17.7H276.7z"/>
		<path id="XMLID_739_" d="M275.4,218.8c0,0-6.3,7.3-16.2,6.3c-9.9-1.1-13.2-11.4-13.2-11.4l-0.8,0.8c0,0,1.5,12,14,13.3
			c12.5,1.3,17.3-7.9,17.3-7.9L275.4,218.8z"/>
		<path id="XMLID_738_" d="M283.6,215c0,0,1.3,13.5,8.9,18.2c0,0-5-6.8-5.5-11.8c-0.5-5-2.1-6.9-2.1-6.9L283.6,215z"/>
		<path id="XMLID_737_" d="M224.9,219.6c0,0,5.8-1.4,9-5.5c3.3-4.1,4.1-6.7,5.6-7.3l-1-1c0,0-3.3,2.7-5.8,7.5
			C231.5,216,224.9,219.6,224.9,219.6z"/>
		<path id="XMLID_736_" d="M315.4,185.3c0,0-3.7,19.2-15.2,34.6l9.6-11.9C309.9,208,316,201.7,315.4,185.3z"/>
		<path id="XMLID_735_" d="M200.6,175c0,0-0.3,14.3,3.3,25l-3.8-6.3C200.1,193.7,197.6,184.4,200.6,175z"/>
		<path id="XMLID_734_" d="M218.6,229.1c0,0,4.4,16.2-3,28.3c0,0,11.3-5.1,7.9-23.9L218.6,229.1z"/>
		<path id="XMLID_733_" d="M206.4,240.4c0,0-32.3-2.8-27.1-25.5c0,0-3,11.3,2.4,20.9C181.8,235.9,181.8,240.6,206.4,240.4z"/>
		<path id="XMLID_732_" d="M224.5,271.8c0,0,8.2-8.6,6.1-22c0,0,3.8,5.8,2.4,12.7c0,0,0.3,6.1-7.7,11L224.5,271.8z"/>
		<path id="XMLID_731_" d="M240.2,290.9c0,0,4.4-8.4,1.2-19.7c0,0,5.8,9.6,2.8,25.3L240.2,290.9z"/>
		<path id="XMLID_730_" d="M205.3,222.3c0,0-13.3-3.3-23.7-12.6c-10.2-9-12.7-17.1-11.5-28.8c0,0-5.9,17.5,8.7,33.3
			C178.8,214.3,193.6,222.8,205.3,222.3z"/>
		<path id="XMLID_729_" d="M284.9,236.6c0,0-14,12.2-33.2,18.2c0,0-16.2-0.7-22-7.7c0,0-3.5-3.5-7.3-4.9l1-8.7c0,0,15,13.3,28.3,14
			C265,248.1,284.9,236.6,284.9,236.6z"/>
		<g id="XMLID_956_">
			<path id="XMLID_728_" d="M189.6,217c0,0,0.6,15.4,16.6,20.9c0,0-12.4-5.6-13.9-19L189.6,217z"/>
			<path id="XMLID_727_" d="M192.4,218.3c0,0,2.3,15.9,20.7,22.3c0,0-13.3-5.2-17.9-20.4L192.4,218.3z"/>
			<path id="XMLID_726_" d="M181.1,212.9c0,0-4.9,15,9.6,20.5c0,0-10.7-5.5-7.5-18.6L181.1,212.9z"/>
			<path id="XMLID_725_" d="M183.6,214.1c0,0-3.3,15.5,13.3,21.9c0,0-11.8-5.1-11.1-19.9L183.6,214.1z"/>
			<path id="XMLID_724_" d="M186.2,215.4c0,0-1.6,15.7,15.5,22c0,0-12.2-5.1-13.2-20.1L186.2,215.4z"/>
		</g>
		<g id="XMLID_951_">
			<path id="XMLID_723_" d="M195.7,238.7c0,0,3.3,13.5,17.7,16c0,0-11.4-3.1-15.1-14.7L195.7,238.7z"/>
			<path id="XMLID_722_" d="M187.9,236.3c0,0-1.3,14,11.8,16.6c0,0-9.9-3.3-9.6-15.3L187.9,236.3z"/>
			<path id="XMLID_721_" d="M190.2,236.9c0,0,0.1,14.2,15.1,17.3c0,0-10.8-2.8-12.9-15.9L190.2,236.9z"/>
			<path id="XMLID_720_" d="M192.6,237.7c0,0,1.6,14.1,17,17.1c0,0-11.2-2.7-14.7-15.8L192.6,237.7z"/>
		</g>
		<path id="XMLID_719_" d="M166.9,389.8c0,0-11,17.6-26.5,20.6c0,0,17.3-9.6,23.6-25.1L166.9,389.8z"/>
		<path id="XMLID_718_" d="M133.2,408.3c0,0,20.9-7.5,31.1-20.7l-1.2-3.4C163.2,384.2,148.2,400.2,133.2,408.3z"/>
		<path id="XMLID_717_" d="M134.1,404.8c11.2-10.6,29-18.8,29-18.8l-0.7-3.1C162.4,382.8,142.8,390.7,134.1,404.8z"/>
		<path id="XMLID_716_" d="M134.5,397.1c12.5-9.4,27.3-13.6,27.3-13.6l0.1-3.5C162,380,145.7,383.6,134.5,397.1z"/>
		<path id="XMLID_715_" d="M135.4,389.4c12.1-6.2,26.3-6.3,26.3-6.3l0.1-3.6C161.9,379.4,146.2,378.5,135.4,389.4z"/>
		<path id="XMLID_714_" d="M155.4,467c0,0,6.6-23,87.3-57.2c0,0-68.4,16.1-90.4,52.4L155.4,467z"/>
		<path id="XMLID_713_" d="M161.2,438.2c0,0,19.4-26.3,75.4-40.9c0,0-38.8,3.8-65.4,24.1C171.2,421.3,161.5,432,161.2,438.2z"/>
		<path id="XMLID_712_" d="M176,503.3c0,0,48.2-58.3,70.2-74c0,0-42.2,22.3-72.3,69.1L176,503.3z"/>
		<path id="XMLID_711_" d="M287.7,541.3c0,0-3.1-57.2,5.6-103.3c0,0-13.6,44.7-15,103l5.6-1.4L287.7,541.3z"/>
		<path id="XMLID_710_" d="M227,525.3c0,0,12.6-48.9,36-79.9c0,0-40.1,42.9-41.2,78.5L227,525.3z"/>
		<path id="XMLID_709_" d="M340.4,531.9c0,0-11.5-39.8-16.8-88.3c0,0,2.8,63.2,11.5,91.4l2.4-2.1L340.4,531.9z"/>
		<path id="XMLID_708_" d="M374.3,510.6c0,0-19.5-33.9-24.8-72.3c0,0,0.3,33.9,20.9,77.5l1.4-3.8L374.3,510.6z"/>
		<path id="XMLID_707_" class="st19" d="M384.2,491.6l-14.1-4.7c0,0-11-57.1-23-53.9c-12,3.1,11.5,66,11.5,66l-3.1,14.7l-18.8-9.9
			c0,0,2.6-71.7-13.6-69.6c-16.2,2.1,1.6,71.7,1.6,71.7l-13.1,24.1l-16.2-21.5c5.2-9.9,16.8-77-2.1-75.9
			c-18.8,1-19.4,74.9-19.4,74.9l-24.1,20.9l-6.3-27.2c10.5-9.4,44.5-64.9,27.7-70.7c-16.8-5.8-49.2,61.3-49.2,61.3l-23.6,14.1
			l1.6-24.1c0,0,61.3-50.8,53.4-59.2s-58.6,27.7-66,43.5l-22.5,7.3l10.5-24.6c0,0,74.9-31.9,70.2-40.8s-57.6,15.7-66,24.6l-12.2-0.1
			c0,0,22.2-24.3,71.3-34.4c7.9-3.7-12.6-7.9-47.1,8.4l-8.9,1"/>
		<circle id="XMLID_706_" cx="310.1" cy="506" r="6.5"/>
		
			<ellipse id="XMLID_705_" transform="matrix(0.9608 -0.2773 0.2773 0.9608 -124.1541 115.8844)" cx="347.6" cy="496.8" rx="5.2" ry="6.5"/>
		
			<ellipse id="XMLID_704_" transform="matrix(0.9609 0.2769 -0.2769 0.9609 149.9488 -51.7262)" cx="258.1" cy="505" rx="6.4" ry="8"/>
		
			<ellipse id="XMLID_703_" transform="matrix(0.7587 0.6514 -0.6514 0.7587 367.3001 -20.0969)" cx="210.8" cy="485.8" rx="6" ry="7.5"/>
		
			<ellipse id="XMLID_702_" transform="matrix(0.7587 0.6514 -0.6514 0.7587 341.5103 -8.0596)" cx="181.6" cy="457" rx="5.2" ry="6.5"/>
		<path id="XMLID_701_" d="M182.3,427.6c2.9-2.1,4.1-5.5,2.4-7.8c-0.9,0.3-10.2,7-10.6,7.7C175.8,429.8,179.4,429.7,182.3,427.6z"/>
		
			<ellipse id="XMLID_700_" transform="matrix(0.9608 -0.2773 0.2773 0.9608 -118.3366 123.5041)" cx="377.4" cy="480.1" rx="5.2" ry="6.5"/>
		<path id="XMLID_699_" d="M339.2,559.1c0,0,0.5,24.6-22.5,31.4c0,0,17.8,3.4,24.1-14.9C340.8,575.6,342.1,560.7,339.2,559.1z"/>
		<path id="XMLID_698_" d="M266.4,586.5c0,0,22.5,3.5,32.2-18l-4.5,14.4C294.2,583,283.9,593.9,266.4,586.5z"/>
		<path id="XMLID_697_" d="M429.5,205.1c-1.6,4-8.1,8.5-8.1,8.5s-2,12.5-7.5,10.7c-5.2-1.7-2.3-8.4-0.9-12.8
			c1.4-4.4,11.8-14.9,11.8-14.9s1.3-4.8-1.9-2.3c-3.6,2.8-11.7,13.2-12.5,14.7c-0.5,3.7-3.7,11.8-8.1,8.4c-2.4-2,0.1-7.6,1-13.1
			c1.6-5.7,6.5-8.3,10.2-13.7c0,0,1.3-4.4,0.3-3.1c-2,2.7-10.9,9.7-11.9,13.8c-1.3,6.8-4.9,15.8-1.7,18.7c4.2,3.4,8.4,1.3,8.4,1.3
			s0.5,7.3,8.4,6.5c4.9-0.5,6-8.6,7.6-13.8C427.7,212,430,209.2,429.5,205.1z"/>
		<path id="XMLID_696_" class="st5" d="M402.7,209.7c0,0,1.2,2.3,4,2.4c0.2,2.8-0.6,5.3-3.2,5.1S401.7,211.3,402.7,209.7z"/>
		<path id="XMLID_695_" class="st11" d="M412.7,215.9c0,0,1.7,2.6,4.6,2.7c0.2,2.8-1.4,5.7-3.8,4.8
			C411.1,222.4,411.6,217.5,412.7,215.9z"/>
		<path id="XMLID_694_" d="M402,207.1c0,0-3.7-19-12.6-21.1c0,0,7.5,0,12.4,6.1c4.9,6.1,3.7,6.1,3.7,6.1S402.4,202.9,402,207.1z"/>
		<path id="XMLID_693_" d="M402.9,208.8c0,0,0.8,2.4,4.4,3c0,0,0.3,3.4-1.7,4.7c0,0,1.1-2.1,0.9-4.2c0,0-2.9-0.6-3.8-2.4
			L402.9,208.8z"/>
		<path id="XMLID_692_" d="M412.7,215.2c0,0,2.5,3.1,5.6,2.9c0,0-1,4.6-3.1,5.3c0,0,2-1.8,1.8-4.7c0,0-2.7-0.5-4.3-2.5
			c0,0-0.7,1.1-1,2.6C411.7,218.8,411.9,216.4,412.7,215.2z"/>
		<path id="XMLID_691_" d="M385.4,427.9c7.3,7,18.2,5.6,18.2,5.6c-9.1-1-15.4-10.5-15.4-10.5s-8.6,1.7-12.5-0.7
			C375.7,422.3,378.1,426.8,385.4,427.9z"/>
		<path id="XMLID_690_" d="M411.4,223.9c-5.8,3.5-8.6,6.5-8.6,6.5s1.7-4.1,7.3-8.6C410.9,220.8,411.4,223.9,411.4,223.9z"/>
		<path id="XMLID_689_" d="M346.2,381.4c0,0,2.6,9.2,5.5,30.4c1.7,12.8,6,26.2,25.9,21.7c0,0-19.5-0.7-22.3-22
			C352.5,389,346.2,381.4,346.2,381.4z"/>
		<path id="XMLID_688_" d="M301.5,356.8c0,0,3.7,15.7,5.5,39.5c1,12.9,5,27.5,25.9,21.7c0,0-19.7-0.7-22.3-22
			C307.5,369.6,301.5,356.8,301.5,356.8z"/>
		<path id="XMLID_687_" d="M389.7,386.6c0,0,7.3-19.9,30.9-30.9c0,0-21.5,5-35.9,31.9L389.7,386.6z"/>
		<path id="XMLID_686_" class="st20" d="M397.8,381.1c0,0,7.6,1.8,12.3,7.6"/>
		<path id="XMLID_685_" class="st20" d="M401.2,376.4c0,0,7.6,1.8,12.3,7.6"/>
		<path id="XMLID_684_" class="st20" d="M405.7,371.9c0,0,7.6,1.8,12.3,7.6"/>
		<path id="XMLID_683_" class="st20" d="M410.3,367.7c0,0,7.4,2.6,11.5,8.8"/>
		<path id="XMLID_664_" class="st20" d="M417,364.3c0,0,6.7,4,9.6,10.9"/>
		<path id="XMLID_663_" class="st20" d="M423,361.8c0,0,6.1,4.9,7.9,12.1"/>
		<path id="XMLID_662_" d="M421.4,346.8c0,0-20.4-6.5-23-17c0,0,1.3,7.9,5,10.7l-15.7-6.3l13.4,8.1c0,0-5.8,2.6-7.1,6
			C393.9,348.4,403.8,340.5,421.4,346.8z"/>
		<path id="XMLID_661_" d="M425.3,331.6c0,0-5-20.4,3.9-34.3c0,0-7.3,6.8-8.6,14.9c0,0-2.1,6-6.5,7.1c0,0,3.9,0.5,8.1-3.1
			C422.2,316.2,420.1,326.6,425.3,331.6z"/>
		<path id="XMLID_660_" d="M455.7,327.2c0,0,9.2-11.3,9.7-22.8c0,0,1.8,13.6-6.5,25.4L455.7,327.2z"/>
		<path id="XMLID_659_" d="M424.8,306.2c0,0,2.9,8.1,8.6,9.9c0,0-7.9-0.8-9.9-5.5L424.8,306.2z"/>
		<path id="XMLID_658_" d="M457.4,341.1c0,0-2.4,2.8-5.4,2c-3-0.8-5.8-12.9-14.1-6.7c0,0,6.5-3,8.5,3c2.1,6,3.2,7.7,7.1,6.4
			C457.6,344.3,457.4,341.1,457.4,341.1z"/>
		<path id="XMLID_657_" d="M448.6,343.6c0,0-1.7,5.1-8.6,2.8c-1.6-0.7-1.2-4.7-1.2-4.7s-1.6,6.1,3,6.8c7.3,0.9,8.6-3.5,8.6-3.5
			L448.6,343.6z"/>
		<path id="XMLID_656_" class="st21" d="M448.9,345.2c0,0-0.7-7.9-4.8-8.1C440,336.8,437.4,347.8,448.9,345.2z"/>
		<path id="XMLID_655_" d="M438.7,349.4c0,0,18.1,14.1,26.6,12.4c0,0-5.1,5.6-14,0.1S438.7,349.4,438.7,349.4z"/>
		<path id="XMLID_654_" d="M449.5,380.2c-16.6-2.6-9.4-29.2-9.4-29.2l2.6,2.9C442.7,353.9,437.2,374.4,449.5,380.2z"/>
		<path id="XMLID_653_" d="M465.2,357.7c0,0-2.7-1.6-4.1-1C459.9,357.1,461.2,359.9,465.2,357.7z"/>
		<path id="XMLID_652_" d="M470,356.3c0,0,0.5-3.1,1.4-2.5C472.3,354.3,470.7,356.3,470,356.3z"/>
		<path id="XMLID_651_" d="M458.4,344.2c0,0,5.4-4.6,1.6-9C460,335.2,466.4,340.7,458.4,344.2z"/>
		<path id="XMLID_649_" d="M435.1,351.6c0,0-2.9,14.9,3.1,24.6C438.3,376.3,429.2,367,435.1,351.6z"/>
		<path id="XMLID_648_" class="st22" d="M241,243.9l-9.7,4.7c0,0,2.1,9.9,1.3,12.6c0,0,35.3,14.9,50.8-16.5
			c4.5-8.4,5.2-10.5,5.2-10.5s0.4-0.5,1.2-1.3c-2.7-1.3-6.3-3.2-9-5.4C270,236.8,255.6,244.2,241,243.9z"/>
		<path id="XMLID_647_" class="st22" d="M316.7,182.7c0,0,3.7-22.8-9.7-24.3c0,0,5.8,11.8-7.3,21.7c0,0,4.7,14.4-3.1,29.1
			c-2.2,4.2-5.8,8.9-10.2,13.4c0.7,2.2,2.3,6.2,4.6,9.3c5.3-6,18.5-21.6,21.9-32.4c0,0,12-5.8,14.9-21.2
			C327.7,178.2,321.4,186.1,316.7,182.7z"/>
		<path id="XMLID_646_" class="st22" d="M224.8,221.2c0,0,13.4-3.9,18.3-11.8l-7.1-5.5c0,0,18.6,7.6,27.5,7.1c3.4,0,2.9,2.4,5.2,2.4
			s9.2-1.8,11.3-1c2.1,0.8,4.7,2.4,7.1,2.1c0,0-8.6,2.9-8.1,11l-3.1-7.3c0,0-12.3,7.1-30.1-2.9C245.7,215.1,233.2,223,224.8,221.2z"
			/>
		<path id="XMLID_645_" class="st22" d="M244.7,147.3c0,0,5.2,14.1-8.1,25.9c0,0,12.8,11.8,10.7,19.6c0,0,16-7.9,10.5-23.6l1.8-3.1
			C259.6,166.2,255.9,149.2,244.7,147.3z"/>
		<path id="XMLID_644_" class="st22" d="M297.3,28c0,0,2.6,24.9,0.8,35.6c0,0,8.9,13.1-3.7,24.3c0,0-10.5,39-14.4,50.8l13.6-3.1
			l10.7-8.6l-1.8,6.3l2.4-1.6c0,0,10.7-19.6,23-19.4l9.7-9.9c0,0-12.6-18.3-11.8-24.6l0.5-15.2l-5,9.7L297.3,28z"/>
		<path id="XMLID_643_" class="st22" d="M179.1,265.9c0,0-3.5,18.8,23.4,41.2s57.9,58.6,67,65.6c9.1,7,31.4,15.7,31.4,15.7
			s18.8-11.9,25.5,3.8c0,0,11.2,10.8,19.9,13.6c0,0,12.2-10.8,26.5,5.2c0,0,6.3,7.3,17.1,7.3c0,0,8.7,10.5,20.6,14
			c0,0-2.1,9.1-3.8,9.8c-1.7,0.7-15.4,1-15.4,1l-9.8-5.2l-15.4,2.8c0,0-5.6,5.6-14.7-1.7c-9.1-7.3-8.7-10.8-8.7-10.8
			s-5.2,5.9-18.1,4.5c-12.9-1.4-23.4-16.1-27.9-26.5c0,0-33.9-10.5-42.9-12.9c-9.1-2.4-22.3-16.8-22.3-16.8l5.9-9.1l-5.9-5.9
			l-7.7,5.9c0,0-19.9-20.2-23-34.6C200.8,332.9,159.9,299.8,179.1,265.9z"/>
		<path id="XMLID_642_" class="st22" d="M371.1,298c0,0-1.4,42.2-32.1,34.9c0,0-33.2,26.9-71.6-2.4l10.1,16.8l7.7,3.5
			c0,0,14.3-11.2,28.6-0.7c8,6.6,10.5,20.9,10.5,20.9l9.1,4.5c0,0,6.6-5.2,17.1-2.8l4.2-24.8C354.7,347.9,378.8,332.6,371.1,298z"/>
		<path id="XMLID_641_" class="st22" d="M390.3,497c0,0-27.2-10.8-39.8-51.3c0,0,1.7,30.7,17.1,56.9c0,0-30.7,3.5-42.9-48.2
			c0,0,5.6,55.5,7.7,62.1s-39.1-8.4-45-37l-6.6,46.1c0,0-36-15.7-33.5-57.9c0,0-30.7,25.8-56.5,16.8l1.7-7.3c0,0-17.5-20.6-2.4-43.6
			l32.8-16.1c0,0-40.5,14.7-53.4,9.1l-10.5,10.5l2.8,16.1l-7.7,12.2c0,0,3.1,20.2,22.7,31.8l-2.4,6.3c0,0,16.1,16.8,49.2,19.2
			c0,0,18.8,51.3,78.5,41.2c0,0,0.5-10.2,4.2-10.8c11.9,5.2,36.9-1.8,41.9-11.5l1.4-10.5c0,0,17.5-7.3,22.7-19.9
			C372.2,510.9,386.5,507.8,390.3,497z"/>
		<path id="XMLID_640_" class="st22" d="M298.9,568.9c0,0-17.8,15-42.6,15.4c0,0,12.2,3.8,20.2,3.8c0,0-53.4,94.2-68.8,194.1
			c-3.1,11.5-1.4,19.2,0.3,22.3c1.7,3.1,14.7,19.5,15,29.3c0.3,9.8,14.7,12.6,6.3,17.5c-8.4,4.9-27.9-0.7-42.9-45.7
			c0,0,10.5,48.9,28.3,57.2c17.8,8.4,39.8-6.3,38.4-18.8c-1.4-12.6-15.7-22-15.7-22l-9.8-30c0,0,16.8-116.6,47.5-172.1
			C292.6,584.6,298.9,568.9,298.9,568.9z"/>
		<path id="XMLID_639_" class="st22" d="M299.9,572.7c0,0-10.8,40.5-9.1,89.7c1.7,49.2-6.6,63.5-6.6,63.5l-9.1-103l16.4-36
			L299.9,572.7z"/>
		<path id="XMLID_638_" class="st22" d="M340.4,559.1c0,0-12.9,26.9-26.9,32.1c0,0,10.4-3.2,10.5,0.3c0.5,24.8-18.3,81.7-8,136.1
			c1.5,7.9,15.7-139.6,15.7-139.6S344.2,568.2,340.4,559.1z"/>
		<path id="XMLID_637_" class="st22" d="M360.3,782.2c0,0,3.8-7-7.3-8.7c-11.2-1.7-32.5-5.9-42.2-10.8s-29.3,0-33.2-10.5l-0.7,19.2
			c0,0,15.4,9.8,33.5,7.7C328.5,776.9,335.9,790.5,360.3,782.2z"/>
		<path id="XMLID_636_" class="st22" d="M302.7,741.7c0,0-13.6,1.7-14.3-11.5C288.4,730.1,282.1,751.4,302.7,741.7z"/>
		<path id="XMLID_635_" class="st22" d="M372.2,321.4c0,0,16.2,0,36.1-39.3l-12.6,43.5l-15.7,8.9c0,0,10.5,5.2,9,12.1
			c-4.7,13.2-11,27.7-15.9,27.2c-8.9-1-20.4-10.5-20.4-10.5l1.9-15.4C354.7,347.9,368.5,336.6,372.2,321.4z"/>
		<path id="XMLID_630_" class="st22" d="M384.2,192.4c0,0,8.1,11.3,8.6,16.2s-7.1,30.4,12.8,34.3c3.7,0.3-10.5,3.9-17.3-1.3
			c-6.8-5.2-0.5-33-0.5-33L384.2,192.4z"/>
		<path id="XMLID_625_" class="st22" d="M399.9,219.1c0,0,2.4,5.8,6.8,5.8c0,0,8.9,9.4,13.9,1c5-8.4,12.3-14.7,9.2-22.8
			c0,0-3.4,6.3-8.9,7.6c0,0-1.8,14.4-5.5,14.4c-3.7,0-6.8-5.2-6.5-7.6c0.3-2.4-9.9,0.3-8.4-6.5C400.4,210.9,398.6,215.9,399.9,219.1
			z"/>
		<path id="XMLID_620_" class="st22" d="M401.7,189.2c0,0,9.7-0.5,17.3-18.3l-3.9,17.5l-10.2,9.2l-3.9-5.2L401.7,189.2z"/>
		<path id="XMLID_452_" class="st22" d="M346,253.4c0,0-10.7-2.6-18.6-10.7c0,0,2.9,8.9,2.6,15.7c0,0,8.1,9.9,1.6,12.6l9.7,5.2
			l6.5-9.2L346,253.4z"/>
		<path id="XMLID_451_" class="st22" d="M135.9,447.1c0,0-19.2-23-7.7-35.6c11.5-12.6,31.1-11.9,35.6-26.5c0,0,8,4.5,6.6-2.8
			c0,0,5.2,4.5,5.9-2.8c0,0,5.6,4.5,4.9-3.8c0,0,6.6,3.5,5.6-3.5c0,0,8.4,1.4,6.6-5.9c0,0,20.2,3.8,26.5,3.1l-18.5,4.2
			c0,0-26.2,20.9-31.8,19.9c0,0-13.3,17.1-20.6,20.6s-18.8,8.7-12.2,24.8c5.2,7.7,7.3,11.2,4.5,11.9
			C138.7,451.3,135.9,447.1,135.9,447.1z"/>
		<path id="XMLID_450_" class="st22" d="M429.1,355.3c0,0-11.5,31.4-44.7,22.7l-5.2,9.1c0,0,22.3-2.1,27.9,5.2l23.4-17.5
			L429.1,355.3z"/>
		<path id="XMLID_449_" class="st22" d="M421.4,325.3c0,0-2.4,13.6,10.5,17.8l-2.1,5.6C429.8,348.6,414.7,339.2,421.4,325.3z"/>
		<path id="XMLID_581_" class="st22" d="M441.3,353.9c0,0-7,13.6,11.2,19.5l1.7-12.2c0,0,17.5,7.7,20.6-6.6c0,0-10.8,4.2-15,2.4
			C455.6,355.3,441.3,353.9,441.3,353.9z"/>
		<path id="XMLID_582_" class="st22" d="M450.7,323.9c0,0,13.3-5.9,15.4-20.6c0,0,3.1,20.2,1.7,25.8c0,0-1.4,14,6.3,17.8l-5.2,1.7
			c0,0-5.2-4.9-4.2-13.3l-5.2-3.5C459.4,331.9,454.5,322.8,450.7,323.9z"/>
		<path id="XMLID_583_" class="st22" d="M450,342.7c0,0-5.9,1-8-3.5c0,0-3.1,7.3,4.2,7.3C453.5,346.5,450,342.7,450,342.7z"/>
	</g>
	<g id="XMLID_518_" class="st3">
		<text id="XMLID_520_" transform="matrix(0.2038 -0.979 0.979 0.2038 260.178 596.0695)" class="st23 st24 st25">crearperu.com</text>
		
			<rect id="XMLID_519_" x="254.6" y="597.2" transform="matrix(-0.2038 0.979 -0.979 -0.2038 896.2695 470.174)" class="st23" width="4.6" height="4.6"/>
	</g>
</g>
</svg>
