<?xml version="1.0" encoding="utf-8"?>
<!-- Generator: Adobe Illustrator 19.0.0, SVG Export Plug-In . SVG Version: 6.00 Build 0)  -->
<svg version="1.1" id="Layer_1" xmlns="http://www.w3.org/2000/svg" xmlns:xlink="http://www.w3.org/1999/xlink" x="0px" y="0px"
	 viewBox="0 0 567.9 685" style="enable-background:new 0 0 567.9 685;" xml:space="preserve">
<style type="text/css">
	.st0{fill:#88A319;}
	.st1{fill:#A7CA2E;}
	.st2{fill:#FFFFFF;}
	.st3{clip-path:url(#SVGID_2_);}
	.st4{fill:#1A1A1A;}
	.st5{fill:#636363;}
	.st6{fill:#FBDC9B;}
	.st7{fill:#F3AA41;}
	.st8{fill:#F8C569;}
	.st9{fill:#7E1616;}
	.st10{fill:#560D07;}
	.st11{fill:#FBE0AB;}
	.st12{fill:#C51713;}
	.st13{fill:#9A1519;}
	.st14{fill:#357E2E;}
	.st15{fill:none;stroke:#7DB420;stroke-width:3.2264;stroke-miterlimit:10;}
	.st16{fill:none;stroke:#7DB420;stroke-width:2.1509;stroke-linecap:round;stroke-miterlimit:10;}
	.st17{fill:#7DB420;}
	.st18{fill:#EBDDC1;}
	.st19{fill:#F2AC92;}
	.st20{fill:#ED906F;}
	.st21{fill:#FCEAC6;}
	.st22{fill:#E86D03;stroke:#000000;stroke-width:2.1509;stroke-miterlimit:10;}
	.st23{fill:#B84A10;}
	.st24{fill:#5E1D0C;}
	.st25{fill:#E86D03;}
	.st26{opacity:0.2;}
	.st27{opacity:0.4;}
</style>
<polygon class="st0" points="18.2,200.8 18.2,507.6 283.9,661 283.9,47.4 "/>
<polygon class="st1" points="549.6,200.8 283.9,47.4 283.9,661 549.6,507.6 "/>
<polygon class="st2" points="485.1,470.3 283.9,586.5 82.8,470.3 82.8,238 283.9,121.9 485.1,238 "/>
<g>
	<defs>
		<polygon id="SVGID_1_" points="485.1,470.3 283.9,586.5 82.8,470.3 82.8,94.1 283.9,20.7 485.1,94.1 		"/>
	</defs>
	<clipPath id="SVGID_2_">
		<use xlink:href="#SVGID_1_"  style="overflow:visible;"/>
	</clipPath>
	<g id="XMLID_2549_" class="st3">
		<g id="XMLID_2698_">
			<path d="M460.7,810.5c-5.3,0-10.9-0.9-16.7-2.7c-10.5-3.2-17.7-4.6-24.1-4.6c-2.9,0-5.5,0.3-8.5,0.6c-1.4,0.1-2.9,0.3-4.5,0.4
				c-0.4,0-0.9,0.1-1.3,0.1c-12.6,0-24.7-14.8-26.1-16.5c-0.8-1-1.1-2.3-0.8-3.6l1.7-7.8c-0.1-3.5-0.4-20.3,6-31.5
				c3.3-5.8-1.9-26.4-5.7-41.4c-2.6-10.2-5-19.8-5.9-27.4c-2-16.8-2.4-40.6-2.5-49.6c-3.1-1.4-5.8-2.2-7.5-2.2c-0.3,0-0.5,0-0.6,0
				c-0.4,0.1-0.9,0.1-1.3,0.1c-5.2,0-9-5.7-14.6-15c-1.4-2.3-3.2-5.4-4-6.2c-1.6-1-7.2-2.4-11.5-3.2c-1.3-0.2-2.4-1.1-3.1-2.2
				c-1.8-3.5-4.6-8.3-7-11.8c-5.8,10-9.8,21.6-12.2,28.6c-0.4,4.3-2.1,8.4-4.9,11.9c-0.5,0.7-1.1,1.4-1.8,2c0,8.8-1.6,17.9-4.3,24.6
				c-16,40.6-20.3,93.5-20.8,100.4c1.8,6.4,5,22.6,4.6,27.7c-0.6,7.6-4.9,11.7-15.9,15.2c-3,1-6.4,2.5-10.1,4.2
				c-9.6,4.4-21.6,10-36.8,10c-21.6,0-30.9-8.7-31.3-9.1c-0.8-0.8-1.3-1.8-1.3-2.9c-0.4-7.8,1.6-14.1,5.9-18.7
				c6.1-6.5,15.3-7.8,22-7.8c2.2,0,4,0.1,5.2,0.3c5.8-3.9,10.1-11.4,11.7-14.8c0.2-4,0.8-20.9,2.1-33.4c1.2-33.6-3.6-66.5-6.9-84.5
				c-0.3,2-0.5,3.6-0.7,4.9c-0.3,2.5-0.5,5.2-0.7,8c-0.6,8-1.3,17-4.3,27.2c-0.4,1.2-0.7,2.3-1.1,3.5l-4.1-1.3l4.1,1.4
				c-0.4,1.2-0.8,2.3-1.3,3.5c0,0,0,0.1,0,0.1c-1.5,3.8-3.3,7.6-5.4,11.3c-1.8,3.1-3.6,6.8-5.4,11.1c-2.4,5.6-4.8,12.3-7,19.1
				c-5.6,18-7.6,31.1-7.1,33.4c0.5,1.8-0.3,3.8-2,4.7c-0.7,0.4-1.4,0.6-2.2,0.6c-1.1,0-2.1-0.4-2.9-1.1
				c-0.8-0.7-16.2-15.1-21.9-30.4c-6.9,7.8-18.8,20.3-27.8,24.2c-0.6,0.2-1.1,0.4-1.7,0.4c-1.1,0-2.2-0.4-3-1.2
				c-1.3-1.2-1.6-3.1-0.9-4.7c0.1-0.2,8.4-20,9.4-31.5c0.9-10.7,6.9-26.1,11.1-34.2c-2.6-1-6-1.9-9.5-1.9c-1.2,0-2.3,0.1-3.3,0.4
				c-0.3,0.1-0.7,0.1-1,0.1c-1.4,0-2.7-0.7-3.5-1.8c-1-1.4-1-3.4,0-4.8c0-0.1,3.8-5.7,8.1-14.1c0.9-1.7,1.7-3.4,2.5-5.1l0.1-0.1
				c0.9-1.8,1.7-3.7,2.5-5.5l4,1.6l-4-1.7c0.9-2,1.6-4,2.3-5.9c0,0,0-0.1,0-0.1c0.8-2.1,1.5-4.2,2.1-6.2c0.7-2.3,1.2-4.4,1.7-6.5
				c0.9-4.1,3.2-10.1,7.3-18.4l1.5-3.1c0.9-1.8,1.8-3.6,2.8-5.4l0.2-0.4c0.4-0.9,0.9-1.7,1.3-2.6l0.2-0.4c1-2,2.1-4,3.2-6.1l3.8,1.9
				l-3.8-2c0.5-1,1.7-3.2,1.7-3.2c2.9-5.3,6.3-11.5,10.3-18.7l3.4-6.1l9.7-17.2c2.5-4.4,4.9-8.7,7.3-12.9
				c5.3-9.4,9.2-16.6,12.3-22.6c1.2-2.3,2.2-4.3,3.1-6.2c-0.1-0.1-0.1-0.2-0.2-0.3c-1.5,0-3.1,0.1-4.6,0.1c-9.9,0-16.4-0.7-16.6-0.8
				c-1.2-0.1-2.2-0.7-3-1.7c-0.7-0.9-1-2.1-0.8-3.3l2.5-14.5c-1.8-3.3-3.7-7.4-5.7-12.2c-4.9-11.6-21.1-22.2-34.1-30.7
				c-10.9-7.1-18.8-12.3-20.8-17.8c-1.7-4.7-7.9-13.3-13.4-20.9c-6.1-8.5-11.4-15.8-13-20.6c-1.8-5.3-1.4-15.4,23.3-40.7
				c8.5-8.7,18.2-22.3,28.9-40.6c4.1-7,10-15.4,14.9-22.1c-4.9,0.3-9.7,0.5-14.2,0.5c-30.9,0-52.4-7.9-63.9-23.4
				c-7.8-10.5-10.6-20.5-8.6-30.7c4.1-20.5,27.2-41.7,82.1-74.9c-3.6-6.2-7.9-15.2-8.7-23.5c-1.5-16,12.3-30.6,22.9-40.2
				c4-3.7,7.3-7.6,10.4-11.5c6.6-8.1,13.4-16.4,27.1-21.1c0.2-0.1,0.3-0.1,0.5-0.1c3-0.7,6-1,8.8-1c14.5,0,26.1,8.8,35.7,27
				c2.2,4.1,4.4,8.1,6.5,12c33.6-18.1,60.8-29.9,83.4-29.9c12.3,0,22.5,3.5,31.2,10.6c2.5,2,4.8,4.4,6.8,7.1c1.3-1.1,2.4-2.1,3.4-3
				c4.4-4,7.9-7.1,13.4-7.1c1.2,0,2.4,0.2,3.8,0.5c6.3,1.5,11,7.8,11.7,15.7c0.7,7.3-2.3,16.7-12.6,21.4c-2.8,1.4-5.6,2.9-8.6,4.5
				c1.3,18.8-4.7,38.5-16.9,55.9c-0.1,0.1-0.1,0.2-0.2,0.3c-13.8,16.7-27.7,30.8-42.5,43.1c1.2,3.1,2.3,6.1,2.9,7.7
				c3.6,2.8,6.2,8.8,7.5,12.4c0.5,1.3,0.3,2.7-0.5,3.8c-0.3,0.4-6.9,10.3-17.1,16.2c-5.7,3.2-15.9,3.7-21.4,3.7c-0.8,0-1.6,0-2.4,0
				c0,0.1-0.1,0.2-0.2,0.3c-0.3,0.7-0.7,1.5-1.1,2.5c3,1.9,7.3,5.5,13.1,12.1c1.5-0.1,3.1-0.2,4.6-0.2c25.4,0,53.1,17.6,73.3,30.5
				c9.5,6,18.5,11.7,22.7,12.5c17.3,3.2,33,12.7,37.7,19.6c1.2,1.8,3.7,4.4,6,7c6.3,6.8,11.3,12.1,9.5,17.1
				c-1.8,4.9-3.8,7.5-6.1,10.5c-1.3,1.6-2.7,3.5-4.5,6.1c-9.3,17.3-22.7,23.8-30.8,27.7c-1.6,0.8-3,1.5-4.1,2.1
				c-5.8,3.4-11,3.9-13.5,3.9c-0.1,0-0.2,0-0.3,0c-3,1.6-6.2,2.4-9.2,2.4c-0.3,0-0.6,0-0.9,0c11.9,27.6,15.6,50.9,15.7,52
				c0.3,2.1-1,4.2-3.1,4.8c-4,1.1-8.1,1.7-12.2,1.7c-2,0-4-0.1-6.1-0.4c4.1,20.6,13.2,40.8,27.1,60.2c13.4,18.7,28.3,32.4,38.3,40.6
				c3.2,2.6,5.7,4.4,6.8,5.3c0.9,0.7,2.6,2,2.7,2.1c0.7,0.6,1.2,1.4,1.5,2.3c0,0,0.1,0.2,0.1,0.6c5.7,8,13.4,17.7,18.4,21.9
				c1.1,0.9,1.8,2.2,1.9,3.7c0.1,1.4-0.3,2.8-1.3,3.9c-0.8,1-2,1.6-3.2,1.8c1.3,4.1,2,8.5,1.8,13.1c-0.1,2-1.3,3.8-3.1,4.6
				c-0.5,2.3-2.4,4.1-4.8,4.3c-0.3,1.2-1.1,2.2-2,2.9c0,0.4,0,0.8,0,1.1c0,2.2-1.4,4.1-3.4,4.9c-0.1,1.3-0.3,2.6-0.6,3.8
				c-0.4,1.8-1.7,3.3-3.4,3.9c-0.1,0.4-0.2,0.9-0.3,1.3c-0.6,2.5-2.7,4.2-5.2,4.2c-0.4,0-0.8,0-1.2-0.1c0,0,0,0,0,0
				c-1,1.4-2.6,2.3-4.4,2.3c-0.8,0-1.6-0.2-2.3-0.5c-1.3-0.6-2.3-1.7-2.7-3.1c-0.5-1.4-0.4-2.8,0.2-4.1c3.3-6.8,2.5-13.4,1.7-17
				c-0.3-0.5-0.5-1-0.6-1.5c-0.1-0.4-0.3-1.3-1.4-3c-1.1-1.7-2.8-3.7-5.1-6.3c-2.6-2.8-5.7-6-9.3-9.7c-2.2-2.3-4.6-4.7-7.1-7.2
				c-0.8,4.4-2.4,7.9-4.8,10.4c0.2,0.6,0.3,1.3,0.2,2c0,3.2-2.1,5.8-3.7,7.3c-1.2,11.2-8.1,75.4-9.8,121.3
				c4.3,6.1,14.8,19.1,22.5,22.5c3.1,1.3,6.8,2.2,10.5,3c9.2,2,19.5,4.3,22.1,15.4c0,0.1,0,0.2,0,0.2c0.9,5.3-1.2,9.9-1.4,10.4
				c-0.3,0.6-0.7,1.1-1.2,1.5C481,805,473.9,810.5,460.7,810.5z M203.3,398c1.3,0.8,3.7,2.2,6.4,4.3c-0.8-8.8-2.6-21.4-6.5-32.4
				c-3.6,6.1-7.1,11.3-9.3,14.3C197.7,388.5,201.7,395.1,203.3,398z"/>
			<path d="M233,65.5c11.7,0,22.4,6.7,31.9,24.7c3.2,6.1,6.1,11.3,8.7,15.8c33.4-18.1,62-31.4,85-31.4c10.8,0,20.3,2.9,28.5,9.6
				c3.3,2.7,6.2,6.1,8.6,10.1c9.1-7,12.1-12.1,17.8-12.1c0.8,0,1.8,0.1,2.7,0.4c9.9,2.4,13.4,22.2-1.7,28.9c-3.8,1.9-7.6,3.9-11.3,6
				c1.8,16.9-2.6,37-15.9,55.8c-15,18.2-29.7,32.6-44.3,44.4c2.2,5.8,4.5,12,4.5,12c3.5,1.3,7,11,7,11s-6.2,9.4-15.6,14.8
				c-3.4,2-10.6,3.1-19.3,3.1c-1.7,0-3.5,0-5.3-0.1c-0.1,0.3-0.3,0.8-0.5,1.4c-0.2,0.5-0.4,1-0.7,1.6c-0.9,1.9-2.1,4.5-3.5,7.3
				l0.2,0.2l0.6-1.2c0,0,5.6,1.3,16.8,14.5c2.1-0.3,4.3-0.4,6.4-0.4c36.9,0,80.6,40.2,95.3,43c15.9,3,30.9,11.8,35,17.7
				c4,5.9,16.4,16.3,15.1,20.2c-2.4,6.7-5.1,8.1-10.2,15.9c-10.5,19.6-26.3,24.2-33.3,28.2c-5,2.9-9.3,3.3-11.4,3.3
				c-0.8,0-1.3-0.1-1.3-0.1c-3.3,2-6.1,2.5-8.2,2.5c-1.5,0-2.7-0.3-3.2-0.4c-1.1,0.9-2.3,1.7-3.4,2.5c13.3,29.1,17.2,54.8,17.2,54.8
				c-3.8,1.1-7.5,1.5-11.1,1.5c-4,0-7.8-0.6-11.4-1.6c4,26.8,15.8,49.9,28.9,68.2c14.1,19.7,29.8,33.9,39.1,41.5
				c3.2,2.6,5.6,4.4,7,5.4c0.8,0.6,2.6,2,2.6,2s0.1,0.5,0.3,1.3c2.6,3.6,12.8,17.6,19.6,23.4c0.5,0.4,0.5,1.1,0.1,1.5
				c-0.2,0.3-0.5,0.4-0.8,0.4c-0.2,0-0.5-0.1-0.7-0.3c-5.7-4.8-13.3-14.7-17.5-20.4c0.1,1,0.2,2,0.3,3.2
				c2.8,2.7,17.2,17.4,16.3,34.5c0,0.6-0.5,1-1.1,1c0,0,0,0-0.1,0c-0.6,0-1-0.5-1-1.1c0.7-13.8-9.4-26.3-13.9-31.1
				c0,1.3,0.1,2.7,0,4.2c0,0,0.1,0.1,0.1,0.1c0.5,0.6,12.6,14.2,13,30.6c0,0.6-0.5,1.1-1,1.1c0,0,0,0,0,0c-0.6,0-1.1-0.5-1.1-1
				c-0.3-12.4-7.9-23.5-11.1-27.5c-0.1,1.1-0.1,2.2-0.3,3.4c1.4,2.3,9.5,16.5,8.8,28.1c0,0.6-0.5,1-1.1,1c0,0,0,0-0.1,0
				c-0.6,0-1-0.5-1-1.1c0.6-8.7-4.4-19.3-7.1-24.3c-0.2,1.2-0.4,2.4-0.6,3.7c0.1,0.1,0.3,0.2,0.4,0.4c0.3,0.6,7.4,15,7.2,25.7
				c0,0.6-0.5,1.1-1.1,1.1c0,0,0,0,0,0c-0.6,0-1.1-0.5-1.1-1.1c0.2-8-4.2-18.6-6.1-22.8c-0.1,0.6-0.3,1.3-0.4,1.9
				c0.1,0.1,0.2,0.2,0.3,0.3c0.3,0.7,7.3,16.1,4.6,28.5c-0.1,0.5-0.6,0.8-1.1,0.8c-0.1,0-0.2,0-0.2,0c-0.6-0.1-0.9-0.7-0.8-1.3
				c2-9.2-1.9-20.6-3.6-25.2c-0.3,1.1-0.7,2.3-1.1,3.4c0.5,1,6.3,13.7,3.1,27.4c-0.1,0.5-0.6,0.8-1,0.8c-0.1,0-0.2,0-0.2,0
				c-0.6-0.1-0.9-0.7-0.8-1.3c2.3-10-0.5-19.8-2.1-23.9c-0.2,0.5-0.4,1-0.6,1.6c0,0,0,0,0,0.1c0.2,0.5,5.3,12.3-1,25.2
				c-0.2,0.4-0.6,0.6-1,0.6c-0.2,0-0.3,0-0.5-0.1c-0.5-0.3-0.8-0.9-0.5-1.4c4.4-9,2.7-17.6,1.6-21.4c0,0.1-0.1,0.2-0.1,0.3
				c-0.2-1.4-1-2.9-2.1-4.7c-1.3-2-3.2-4.3-5.6-6.9c-5.7-6.3-14.1-14.2-23.4-24.4c0.4,6.7-0.3,13.9-4.2,17.7
				c-1.4,1.5-2.6,1.9-2.6,1.9c4.7,3.6-1.8,8.2-1.8,8.2s-8.2,73.7-10,124.7c0,0,14,20.3,25.1,25.1c11.1,4.8,27.2,3.2,30.1,15.4
				c0.7,4-1.1,7.7-1.1,7.7s-6.1,4.9-17.9,4.9c-4.4,0-9.5-0.7-15.4-2.5c-12.3-3.8-19.5-4.8-25.4-4.8c-4.6,0-8.5,0.6-13.3,1
				c-0.3,0-0.6,0-0.9,0c-10.9,0-22.7-14.9-22.7-14.9l1.8-8.3c0,0-1.1-18.4,5.4-29.7c6.5-11.3-8.6-50.7-11.1-71.5
				c-2.3-18.7-2.5-46.3-2.5-51.7c-2.3-1.2-7.8-3.9-11.8-3.9c-0.5,0-1,0-1.5,0.1c-0.1,0-0.3,0-0.4,0c-5,0-12.9-18.4-16.1-20.5
				c-3.2-2.2-13.3-3.9-13.3-3.9s-7-13.5-11.3-17.1c-7.5,11-12.5,24.9-15.9,35c0,0,0,0,0,0.1c-0.3,3.9-1.8,7.3-4.1,10.1
				c-0.5,0.7-1.1,1.3-1.8,1.9c-0.3,0.3-0.6,0.6-0.9,0.8c0.2,7.4-0.8,17.2-4,24.8c-17.6,44.5-21.2,102.5-21.2,102.5
				c1.8,5.7,5,22.6,4.7,26.9s-1.8,7.9-12.9,11.5c-11.1,3.6-25.5,14-45.5,14c-20.1,0-28.3-7.9-28.3-7.9c-1-19.2,14.6-21.9,23.6-21.9
				c3.6,0,6.1,0.4,6.1,0.4c9.7-5.4,15.1-18.3,15.1-18.3s0.7-20.1,2.2-34.1c1.6-45.3-7.3-88.6-9.5-98.6c-1-0.5-1.8-0.9-2.3-1.1
				c-0.1,0-0.2-0.2-0.3-0.4l-0.8-0.5c-0.4,2.4-0.8,4.7-1.1,6.8c-0.9,5.6-1.6,10.2-2,13.3c-1.1,9.5-0.9,21.2-4.9,34.6
				c0,0,0,0.1,0,0.1c-0.3,1.1-0.7,2.1-1,3.2c0,0,0,0.1,0,0.1c-0.4,1.1-0.8,2.2-1.2,3.3c0,0,0,0.1,0,0.1c-1.4,3.5-3,7.1-5.1,10.7
				c-1.9,3.4-3.8,7.3-5.6,11.5c-2.6,6.2-5,12.9-7.1,19.5c-5.1,16.3-8.2,31.9-7.2,35.7c0,0-21.5-19.9-22.6-36.6
				c0,0-19.4,24.2-31.7,29.6c0,0,8.6-20.4,9.7-32.8s9.7-32.3,12.9-36.6c0,0-7.7-4.2-15.6-4.2c-1.4,0-2.9,0.1-4.3,0.5
				c0,0,3.9-5.8,8.3-14.5h0c0.9-1.7,1.7-3.4,2.6-5.3c0,0,0-0.1,0.1-0.1c0.9-1.8,1.7-3.7,2.5-5.7c0,0,0-0.1,0.1-0.1
				c0.8-2,1.6-4,2.4-6.1c0,0,0-0.1,0-0.1c0.8-2.1,1.5-4.3,2.1-6.4c0.7-2.3,1.3-4.5,1.8-6.8c0.8-4,3.3-10,6.9-17.5
				c0.1-0.2,0.2-0.3,0.2-0.5c0.3-0.7,0.7-1.4,1-2c0.1-0.2,0.2-0.4,0.3-0.6c0.9-1.7,1.8-3.5,2.7-5.4c0.1-0.1,0.1-0.3,0.2-0.4
				c0.4-0.8,0.9-1.7,1.3-2.5c0.1-0.1,0.1-0.3,0.2-0.4c1-2,2.1-4,3.2-6c0,0,0-0.1,0.1-0.1c0.5-1,1.1-2,1.6-3c0,0,0-0.1,0.1-0.1h0
				c3.2-6,6.7-12.2,10.3-18.6c0,0,0-0.1,0.1-0.1c1.1-1.9,2.2-3.9,3.3-5.8c0,0,0.1-0.1,0.1-0.1c1-1.9,2.1-3.7,3.1-5.6
				c0.2-0.4,0.5-0.9,0.7-1.3c0.6-1.1,1.3-2.2,1.9-3.4c1.3-2.3,2.6-4.7,4-7c2.5-4.4,4.9-8.7,7.3-13c4.6-8.2,8.9-16,12.4-22.7
				c1.7-3.2,3.1-6.2,4.4-8.8c0,0,0,0,0,0c-1.1-0.9-2-2.3-2.8-4c-2.5,0.1-4.9,0.1-7.1,0.1c-9.8,0-16.2-0.7-16.2-0.7l2.8-16
				c-1.8-3.2-3.9-7.4-6.3-13.1c-9.1-21.8-51.1-38.2-54.8-48.4c-3.8-10.2-23.4-32.8-26.3-41.4c-3-8.6,11.6-25.3,22.3-36.3
				c10.8-11,21.5-27.7,29.6-41.4c5.9-10,15.6-23.1,20.4-29.5c-7.9,0.9-15.8,1.4-23.4,1.4c-25.7,0-48.6-5.7-60.5-21.7
				c-22-29.7-1.8-54.9,75.9-101.6c-3-4.8-9.4-15.9-10.3-25.3c-1.2-12.5,8.6-24.8,21.5-36.6c12.9-11.7,17.2-25.3,36-31.7
				C227.9,65.8,230.5,65.5,233,65.5 M214.7,412.6c-0.2-6.1-1.4-33.8-10.9-52.3c-7,12.9-15.4,24.5-15.4,24.5
				c4.3,3.2,11.8,16.4,11.8,16.4S207.8,405.2,214.7,412.6 M233,56.9C233,56.9,233,56.9,233,56.9c-3.1,0-6.4,0.4-9.7,1.1
				c-0.3,0.1-0.6,0.2-0.9,0.3c-14.9,5.1-22.1,13.9-29.1,22.5c-3.2,3.9-6.2,7.6-10,11c-11.2,10.2-26,25.9-24.3,43.7
				c0.7,7.4,4,15.3,7.2,21.5c-53.5,32.8-76.3,54.3-80.5,75.6c-2.3,11.4,0.8,22.5,9.3,34.1c12.4,16.7,35.1,25.1,67.4,25.1
				c1.8,0,3.6,0,5.5-0.1c-3.6,5.1-7.2,10.5-9.9,15.2c-10.6,17.9-20.1,31.3-28.3,39.8c-20.4,20.9-27.8,34.8-24.3,45.1
				c1.9,5.4,7.3,12.9,13.6,21.7c5,7,11.3,15.7,12.8,19.9c2.5,6.9,10.9,12.4,22.5,19.9c12.5,8.2,28.1,18.4,32.5,28.8
				c1.8,4.3,3.5,8,5.2,11.2l-2.3,13c-0.4,2.3,0.2,4.7,1.6,6.6c1.4,1.9,3.6,3.1,5.9,3.4c0.3,0,6.1,0.7,15.1,0.8c0,0,0,0.1-0.1,0.1
				c-3.1,5.9-7,13.1-12.2,22.5c-2.1,3.7-4.3,7.7-7.3,12.9l-3.9,7l-1.3,2.3l-0.6,1.1l-0.5,0.9l-0.2,0.4c-1,1.9-2.1,3.7-3.1,5.6
				l-0.1,0.2c-1.1,1.9-2.2,3.8-3.2,5.8c0,0,0,0.1-0.1,0.1c-4.1,7.4-7.4,13.3-10.3,18.7c0,0.1-0.1,0.1-0.1,0.2c-0.6,1-1.1,2-1.6,3
				c0,0,0,0,0,0.1l0,0.1c-1.1,2.1-2.2,4.1-3.2,6.1l0,0.1l-0.2,0.4c-0.4,0.8-0.9,1.7-1.3,2.5l-0.1,0.2l-0.1,0.1
				c-1,1.9-1.9,3.7-2.8,5.5l-0.3,0.6c-0.3,0.7-0.7,1.4-1,2.1l-0.1,0.2l-0.2,0.4c-4.2,8.8-6.6,14.9-7.6,19.4c-0.4,1.9-0.9,4-1.6,6.2
				c-0.6,1.9-1.2,3.9-2,6c0,0,0,0,0,0.1c0,0,0,0,0,0.1c-0.7,1.8-1.4,3.7-2.2,5.7c0,0,0,0.1,0,0.1l0,0.1l0,0
				c-0.7,1.8-1.6,3.6-2.4,5.4c0,0,0,0,0,0.1c0,0,0,0.1,0,0.1c-0.8,1.6-1.6,3.3-2.4,5c-4.1,8.1-7.8,13.6-7.8,13.7
				c-2,2.9-1.9,6.8,0.1,9.7c1.6,2.3,4.3,3.7,7.1,3.7c0.7,0,1.3-0.1,2-0.2c0.7-0.2,1.5-0.2,2.3-0.2c1.1,0,2.3,0.1,3.4,0.4
				c-4.1,9.1-8.5,21.8-9.3,31.1c-0.8,9-6.8,24.9-9,30.2c-1.4,3.2-0.6,7,1.9,9.5c1.6,1.6,3.8,2.5,6.1,2.5c1.2,0,2.3-0.2,3.4-0.7
				c8-3.5,17.7-12.7,24.8-20.4c6.9,13.2,18.4,24.2,20.2,25.8c1.6,1.5,3.7,2.3,5.8,2.3c1.5,0,3-0.4,4.4-1.2c3.2-1.9,4.8-5.6,4-9.1
				c-0.2-2.7,1.8-14.7,7-31.4c2.1-6.7,4.5-13.2,6.8-18.7c1.7-4.1,3.5-7.7,5.1-10.6c2.1-3.8,4-7.8,5.6-11.8l0-0.1
				c0.5-1.2,0.9-2.4,1.3-3.7c0,0,0,0,0-0.1l0-0.1c0.4-1.2,0.8-2.4,1.1-3.6c0,0,0-0.1,0-0.1c0.8-2.8,1.5-5.6,2-8.2
				c1.7,15.4,2.8,33.1,2.2,51.1c-1.2,11.8-1.9,27.4-2.1,32.6c-1.5,3-4.6,8.2-8.7,11.4c-1.1-0.1-2.5-0.2-4-0.2
				c-7.5,0-17.9,1.6-25.1,9.1c-5.2,5.5-7.6,12.8-7.1,21.9c0.1,2.2,1.1,4.2,2.6,5.8c1.1,1.1,11.4,10.3,34.3,10.3
				c16.1,0,28.6-5.7,38.6-10.4c3.7-1.7,6.8-3.2,9.6-4c12.6-4.1,18.1-9.6,18.8-18.9c0.5-5.8-2.7-21.6-4.5-28.5
				c0.7-9.1,5.1-59.6,20.4-98.4c2.8-6.7,4.4-15.6,4.6-24.4c0.3-0.4,0.6-0.7,0.9-1.1c3.2-4,5.2-8.7,5.8-13.6
				c1.8-5.3,4.6-13.2,8.3-20.9c1,1.7,2,3.4,2.8,5.1c1.2,2.4,3.5,4,6.1,4.5c3.6,0.6,7.7,1.7,9.5,2.4c0.8,1.1,2.1,3.3,3.1,5
				c5.3,8.8,10.2,17.1,18.3,17.1c0.7,0,1.3-0.1,2-0.2c0.5,0,1.6,0.3,3.2,0.8c0.1,10.5,0.7,31.8,2.5,47.2c1,7.9,3.4,17.6,6,28
				c2.2,8.7,4.5,17.7,5.7,25.2c1.7,10.2,0.6,12.8,0.4,13c-6.7,11.7-6.7,28.3-6.5,33.2l-1.6,7.3c-0.5,2.5,0.1,5.1,1.7,7.2
				c2.4,3,15.2,18.2,29.5,18.2c0.5,0,1.1,0,1.6-0.1c1.6-0.1,3.1-0.3,4.6-0.4c2.9-0.3,5.4-0.6,8.1-0.6c4.2,0,10.2,0.5,22.8,4.4
				c6.2,1.9,12.2,2.9,17.9,2.9c14.4,0,22.4-6,23.3-6.7c1-0.8,1.8-1.8,2.4-3c0.5-1,3-6.5,1.8-13c0-0.2-0.1-0.3-0.1-0.5
				c-3.2-13.7-16-16.6-25.4-18.6c-3.6-0.8-7-1.6-9.7-2.7c-5.5-2.4-14.3-12.3-19.8-19.8c1.7-44,8-103.8,9.5-118
				c1.9-2.1,3.8-5.3,3.9-9.2c0-0.2,0-0.5,0-0.7c0.8-1.1,1.6-2.3,2.2-3.6c0.7,0.7,1.4,1.4,2.1,2.1c3.6,3.7,6.7,6.8,9.2,9.6
				c2.2,2.4,3.7,4.3,4.7,5.8c0.6,0.9,0.8,1.4,0.8,1.5c0.1,0.8,0.4,1.5,0.7,2.2c0.6,3,1.1,8.3-1.5,13.6c-1.1,2.3-1.3,5-0.4,7.4
				c0.8,2.4,2.6,4.4,4.9,5.5c1.3,0.6,2.8,1,4.2,1c2.2,0,4.4-0.8,6.1-2.2c4.2-0.2,7.7-2.9,8.9-6.9c1.9-1.4,3.4-3.4,3.9-5.8
				c0.2-0.7,0.3-1.5,0.4-2.2c2-1.6,3.4-4,3.6-6.7c0.3-0.3,0.6-0.7,0.8-1.1c2.4-0.9,4.3-2.8,5.4-5.1c2.2-1.7,3.6-4.2,3.8-7.2
				c0.2-3.8-0.2-7.5-1-11c0.5-0.4,1-0.8,1.4-1.3c1.7-2,2.5-4.5,2.3-7.1c-0.2-2.6-1.4-4.9-3.4-6.6c-4.5-3.8-11.8-13.1-17.2-20.4
				c-0.5-1.7-1.5-3.2-2.9-4.3c-0.3-0.3-1.9-1.6-2.9-2.3c-1.1-0.8-3.5-2.5-6.6-5.1c-8.1-6.6-23.7-20.5-37.5-39.8
				c-12.3-17.1-20.7-34.9-25.1-53c0.2,0,0.4,0,0.6,0c4.5,0,9-0.6,13.4-1.9c4.2-1.2,6.8-5.3,6.2-9.6c-0.1-1-3.4-21.9-13.8-47.7
				c1.7-0.4,3.3-1,4.9-1.8c3.2-0.1,8.7-0.9,14.9-4.4c1-0.5,2.3-1.2,3.9-2c8.5-4.1,22.6-10.9,32.6-29.3c1.6-2.4,2.9-4.1,4.2-5.7
				c2.4-3.1,4.8-6.1,6.8-11.6c2.7-7.4-3.4-13.9-10.4-21.5c-2.2-2.4-4.6-4.9-5.6-6.4c-6-8.9-23.8-18.3-40.5-21.4
				c-3.5-0.6-12.9-6.6-21.2-11.9c-20.7-13.2-49-31.2-75.7-31.2c-1,0-1.9,0-2.8,0.1c-2.3-2.5-4.3-4.5-6.2-6.2
				c6.4-0.3,13.7-1.4,18.5-4.2c10.9-6.2,17.8-16.4,18.5-17.5c1.5-2.3,1.8-5.1,0.9-7.6c-1.6-4.6-4.2-10.1-7.9-13.5
				c-0.4-1.1-0.9-2.4-1.5-3.9c14.1-12,27.4-25.7,40.7-41.6c0.1-0.2,0.3-0.3,0.4-0.5c12.2-17.3,18.4-36.9,17.8-55.9
				c2.1-1.1,4.1-2.1,6-3.1c10.1-4.6,16.1-14.7,15.1-25.6c-0.9-9.7-6.9-17.5-15-19.5c-1.7-0.4-3.2-0.6-4.8-0.6
				c-7.1,0-11.6,4-16.3,8.2c0,0-0.1,0-0.1,0.1c-1.4-1.6-3-3-4.6-4.3c-9.4-7.7-20.8-11.6-33.9-11.6c-22.6,0-49.2,11.2-81.7,28.5
				c-1.5-2.7-3-5.4-4.4-8.2c-5.2-9.9-11-17.1-17.6-22C248.4,59.3,241,56.9,233,56.9L233,56.9L233,56.9z M199.3,384.1
				c0.8-1.1,1.6-2.4,2.5-3.8c0.9,3.5,1.6,7.1,2.1,10.5C202.6,388.6,201,386.2,199.3,384.1L199.3,384.1z"/>
		</g>
		<path id="XMLID_2697_" class="st4" d="M479,362.7c1.4-3.8-11-14.3-15.1-20.2s-19.1-14.8-35-17.7c-15.9-3-65.3-49.5-103.8-42.2
			S411,411.9,411,411.9s5.1,2.2,11.8-1.9c0,0,5.6,0.8,12.6-3.2c7-4,22.9-8.6,33.3-28.2C473.9,370.8,476.6,369.4,479,362.7z"/>
		<path id="XMLID_2696_" d="M398.9,371.8c0,0-2.3-28.3,10.9-38.7c0,0-21.3,10.2-18.3,42.5L398.9,371.8z"/>
		<path id="XMLID_2695_" d="M395.3,374.1c0,0-5.3-30.8,6.8-43.5c0,0-20.2,13.2-13.8,48.3L395.3,374.1z"/>
		<path id="XMLID_2694_" class="st5" d="M421.5,325.6c0,0-11.8-1.1-23.7-12.4c-16.4-15.7-45.2-30.1-63.6-29.8
			c0,0,28.7,7.7,57.7,30.3C414.6,331.5,421.5,325.6,421.5,325.6z"/>
		<path id="XMLID_2693_" class="st4" d="M425.2,469.4c0,0-7.1-46.8-34.7-85.6c-27.4-38.4-26.5-71.1-39.4-86.7
			c0,0-5.4-16.7-25.8-14.5l41.9,160.8C367.2,443.4,392.2,478.6,425.2,469.4z"/>
		<path id="XMLID_2687_" d="M391.8,375.2c0,0-10.8-31.8,2.6-47.7c0,0-23.3,18.1-10.5,54.3L391.8,375.2z"/>
		<path id="XMLID_2677_" d="M410.7,474c0,0-29-110.2-55.4-158.1l1.1,21.5c0,0,13.4,79.6,10.8,103C380.1,459.5,410.7,474,410.7,474z"
			/>
		<path id="XMLID_2676_" d="M373.8,321.7c0,0-4.4,8.9-5.7,23.8c-1.2,13.3-2.2,29.1-1.8,41.4c0,0-8.1-62.9-9.7-68.3
			C355.1,313.2,368.4,316,373.8,321.7z"/>
		<g id="XMLID_2675_">
			<path class="st5" d="M365.3,384.6c-7.9-53.4-46.5-110-46.9-110.6l-1.9-2.7l3.1,1.1c17.5,6.2,48.8,35.3,50.1,36.5l1.3,1.2
				l-1.7,0.6c-8.8,2.9-6,45.6-2,73.6L365.3,384.6z"/>
			<path d="M319.3,273.4c17.5,6.2,49.7,36.3,49.7,36.3c-12.9,4.3-2.7,74.7-2.7,74.7C358.3,330.2,319.3,273.4,319.3,273.4
				 M313.8,269.2l3.7,5.5c0.4,0.6,38.8,57,46.7,110.1l4.3-0.6c0-0.2-2.6-17.7-3.5-35.6c-1.7-32.1,3.2-36.3,4.7-36.8l3.4-1.1
				l-2.6-2.5c-1.3-1.2-32.8-30.5-50.5-36.8L313.8,269.2L313.8,269.2z"/>
		</g>
		<path id="XMLID_2674_" class="st6" d="M179.6,162.5c0,0-10.7-15.3-11.9-27.7c-1.2-12.5,8.6-24.8,21.5-36.6
			c12.9-11.7,17.2-25.3,36-31.7c14.8-3.3,28.2,1.8,39.7,23.8c11.5,21.9,19.8,33.6,19.8,33.6L179.6,162.5z"/>
		<path id="XMLID_2672_" class="st7" d="M225.2,72.9c-15.1,16.7-12.9,37.6-24.7,46.2s-30.1,15.1-26.9,7c3.3-8.2,14.7-7.1,22-19.9
			C205.9,88.5,216.6,75,225.2,72.9z"/>
		<g id="XMLID_2671_">
			<path class="st8" d="M162.6,284.9c-30,0-50.8-7.5-61.8-22.3c-7.4-10-10-19.5-8-29.1c6-27.6,52.7-58.2,137-105.1
				c5.1-2.9,10.2-5.7,15.2-8.5c45.1-25.3,84-47.1,113.6-47.1c11.6,0,21.3,3.3,29.5,10c19.7,16.2,25.6,55.7,0.5,91.2l-0.1,0.1
				c-41.3,50-79.6,71.1-114.7,86.5C251.6,270.4,203.7,284.9,162.6,284.9z"/>
			<path d="M358.6,74.5c10.8,0,20.3,2.9,28.5,9.6c19.3,15.8,24.5,54.5,0.2,89c-39.1,47.3-75.8,69.3-114.1,86
				c-23.3,10.2-70.5,24-110.6,24c-25.8,0-48.6-5.7-60.5-21.7c-26.3-35.5,7.8-64.6,128.5-131.7C282.7,100.9,326.2,74.5,358.6,74.5
				 M358.6,71.3v3.2V71.3c-30,0-69.1,21.9-114.4,47.3c-5,2.8-10,5.6-15.2,8.5c-49,27.3-78.8,45.5-99.6,61
				c-23.4,17.5-35.2,31.4-38.2,45.1c-2.2,10,0.5,19.9,8.3,30.4c11.3,15.2,32.5,23,63.1,23c41.4,0,89.6-14.5,111.9-24.3
				c35.4-15.5,73.8-36.7,115.3-86.9l0.1-0.1l0.1-0.1c25.6-36.3,19.5-76.8-0.8-93.4C380.6,74.7,370.6,71.3,358.6,71.3L358.6,71.3z"/>
		</g>
		<path id="XMLID_2670_" class="st7" d="M137.7,254.1c-45.9-25.8,50.6-71.7,96.1-97.5c43-24.4,107.5-70.3,126.9-54.5
			c19.4,15.8,21.5,96.1-103.2,142.7C187.9,271.3,157.8,265.6,137.7,254.1z"/>
		<path id="XMLID_2669_" d="M334.9,128.8c0,0-61.3-13.4-94.6,31.2l83.3-4.8L334.9,128.8z"/>
		<path id="XMLID_2667_" class="st4" d="M234.9,618.3l-5.7,5.4c0,0,11.8,49.1,10,100.7c-1.4,14-2.2,34.1-2.2,34.1
			s-5.4,12.9-15.1,18.3c0,0-31.2-5.4-29.8,21.5c0,0,8.2,7.9,28.3,7.9s34.4-10.4,45.5-14c11.1-3.6,12.5-7.2,12.9-11.5
			s-2.9-21.2-4.7-26.9c0,0,3.6-58.1,21.2-102.5c5-12.2,4.7-29.8,2.5-34.4C295.8,612.2,234.9,618.3,234.9,618.3z"/>
		<path id="XMLID_2666_" class="st4" d="M434.6,628.3c0,0-8.2,73.7-10,124.7c0,0,14,20.3,25.1,25.1c11.1,4.8,27.2,3.2,30.1,15.4
			c0.7,4-1.1,7.7-1.1,7.7s-11.5,9.1-33.3,2.4c-21.9-6.7-27.6-4.7-38.7-3.8c-11.1,0.9-23.7-14.9-23.7-14.9l1.8-8.3
			c0,0-1.1-18.4,5.4-29.7c6.5-11.3-8.6-50.7-11.1-71.5c-2.5-20.8-2.5-52.7-2.5-52.7S410.2,615.2,434.6,628.3z"/>
		<g id="XMLID_2665_">
			<path class="st9" d="M260.8,643.6c-1,0-1.9-0.2-2.8-0.5c-3.6-1.3-11.8-6-19-10.2c-5.4-3.1-10.6-6.1-12.2-6.7
				c-1.8-0.6-3.6-1.3,0.9-57c2.2-26.9,4.9-54.1,4.9-54.3l0-0.4l34.6-58.3l105.1-17.5l0.6,1c0.3,0.5,30.9,55.3,41.4,94.3
				c4.4,16.5,15.7,32.3,22.4,41.7c3.5,4.9,5.2,7.4,5.6,8.9c2.2,8.8,6,29-3.3,35.9c0.6,1,0.8,1.9,0.8,2.7c-0.1,3.4-3.7,6.2-4.2,6.5
				l-0.6,0.4l-0.7-0.2c-0.2-0.1-22.5-5.3-41.7-5.3c-5.7,0-10.6,0.5-14.5,1.3l-0.6,0.1l-0.5-0.3c-0.1,0-7.4-4.2-12.1-4.2
				c-0.4,0-0.8,0-1.1,0.1c-0.2,0.1-0.5,0.1-0.8,0.1c-3.8,0-7.4-5.7-12.3-13.7c-1.7-2.9-3.8-6.4-4.7-7c-2.4-1.6-10-3.2-12.7-3.7
				l-0.8-0.1l-0.4-0.7c-3.4-6.5-8-13.8-10.5-16.3c-3,5.7-13.1,25.4-13.7,33.6c-0.8,11.1-10.7,18.3-19.7,19.4
				c-7.1,0.9-12.7,1.7-14.2,2.9c-0.3,0.2-0.6,0.5-1,0.9C270.4,639.3,265.9,643.6,260.8,643.6z"/>
			<path d="M371.5,440.5c0,0,30.7,54.7,41.2,93.9c6.5,24,26.9,46.2,28,50.5c1.1,4.3,7.2,29.8-4.3,35.1c4.7,3.6-1.8,8.2-1.8,8.2
				s-22.4-5.3-42.1-5.3c-5.3,0-10.5,0.4-14.9,1.4c0,0-7.7-4.4-12.9-4.4c-0.5,0-1,0-1.5,0.1c-0.1,0-0.3,0-0.4,0
				c-5,0-12.9-18.4-16.1-20.5c-3.2-2.2-13.3-3.9-13.3-3.9s-8.6-16.5-12.5-17.9c0,0-14,25.8-14.7,35.8c-0.7,10-9.7,16.8-18.3,17.9
				c-8.6,1.1-13.3,1.8-15.1,3.2c-1.6,1.3-6.7,7.2-12.1,7.2c-0.8,0-1.5-0.1-2.3-0.4c-6.1-2.2-27.2-15.4-31.2-16.8
				c-3.9-1.4,6.8-109.7,6.8-109.7l34.1-57.4L371.5,440.5 M373.2,436.9l-2.2,0.4l-103.2,17.2l-1.5,0.2l-0.8,1.3l-34.1,57.4L231,514
				l-0.1,0.7c0,0.3-2.7,27.4-4.9,54.4c-1.3,15.9-2.1,28.6-2.5,37.8c-0.2,5.5-0.3,9.8-0.2,12.8c0.1,4.1,0.4,7.1,3,8.1
				c1.5,0.5,7,3.7,11.9,6.6c7.7,4.4,15.6,9,19.3,10.3c1.1,0.4,2.2,0.6,3.3,0.6c5.7,0,10.5-4.6,13.2-7c0.4-0.4,0.8-0.7,0.9-0.9
				c1.3-1,8.6-1.9,13.4-2.5c9.6-1.2,20.2-8.9,21.1-20.9c0.5-6.6,7.9-22.2,12.4-30.9c2.5,3.1,6,9,8.8,14.3l0.7,1.4l1.6,0.3
				c3.9,0.7,10.1,2.2,12,3.4c0.8,0.7,2.8,4.1,4.3,6.5c5.2,8.8,9,14.5,13.6,14.5c0.4,0,0.7,0,1.1-0.1c0.2,0,0.5-0.1,0.8-0.1
				c3.5,0,9.5,3,11.3,4l1.1,0.6l1.2-0.3c3.9-0.9,8.6-1.3,14.2-1.3c19.1,0,41.1,5.2,41.4,5.2l1.4,0.3l1.2-0.9
				c0.8-0.6,4.8-3.6,4.8-7.8c0-0.7-0.1-1.4-0.4-2.3c8.8-8.1,5.1-27.9,2.9-36.7c-0.5-1.8-2.1-4.2-5.8-9.4c-6.6-9.3-17.8-25-22.1-41.2
				c-10.5-39.2-40.3-92.4-41.5-94.7L373.2,436.9L373.2,436.9z"/>
		</g>
		<path id="XMLID_2664_" class="st10" d="M360.2,450.4c0,0-18.8,13.4-50,18.8c0,0-3.8,20.4-16.1,25.8c0,0-2.7,23.1,9.1,28
			c0,0-17.7,2.7-28-5.9c0,0-2.7,14.5-11.8,15.6c0,0-1.6,11.8-15.1,14c0,0-17.2,64.3-4.3,87.4l-19.4-11l13.4-110.2l35.5-30.1
			l25.3-27.4l60.2-9.7L360.2,450.4z"/>
		<path id="XMLID_2662_" d="M274.3,499.7c0,0-1.1,13.6-7.5,15.4c0,0-1.4,7.9-10.8,10.4c0,0-4.4,11-10.8,12.9l-12.2,49.5l5.4-67.8
			C238.5,520.1,261.8,488.9,274.3,499.7z"/>
		<path id="XMLID_2661_" class="st10" d="M353.6,524.4c0,0-33.7,32.3-52.3,79.6c-3.2,12.9-7.9,23.7-22.2,26.5c0,0,20.4,2.2,24.7-9.7
			s11.8-38.2,26.3-51.6C344.6,555.8,353.6,524.4,353.6,524.4z"/>
		<path id="XMLID_2660_" class="st10" d="M352.1,451.3c0,0,19.4,15.8,22.2,34.4c2.9,18.6,30.1,97.5,46.6,111.8
			c16.5,14.3,17.2,17.9,15.4,22.6c0,0,10.4-3.2,4.7-26.9c-5.7-23.7-66.7-147.7-76.7-148.4C354.3,444.1,352.1,451.3,352.1,451.3z"/>
		<path id="XMLID_2659_" d="M410.7,611.4c-0.7-0.4,31.7,9.9,30.9-17.2l6.5,10.5C448.1,604.7,448.9,634.5,410.7,611.4z"/>
		<g id="XMLID_2658_">
			<path class="st11" d="M304.3,415.1c-5.5,0-10.9-0.3-16.1-0.8l-0.7-0.1l-52.5-139.7l15.2-14.1l59.3,6.5l21.8,21.5l0,0.1
				c0.3,0.4,34.3,44.8,37.1,114.6l0,0.8l-0.7,0.3C367.6,404.3,338.9,415.1,304.3,415.1z"/>
			<path d="M250.7,261.6l58.4,6.5l21.5,21.2c0,0,34.1,43.7,36.9,114c0,0-28.5,10.8-63.2,10.8c-5.2,0-10.6-0.2-16-0.8l-52-138.4
				L250.7,261.6 M249.9,259.4l-0.7,0.7l-14.3,13.3l-1.1,1l0.5,1.4l52,138.4l0.5,1.2l1.3,0.1c5.2,0.5,10.7,0.8,16.2,0.8
				c34.8,0,63.7-10.9,64-11l1.4-0.6l-0.1-1.5c-1.5-36.6-11.6-66-19.7-84.1c-8.9-19.7-17.3-30.6-17.7-31.1l-0.1-0.1l-0.1-0.1
				l-21.5-21.2l-0.5-0.5l-0.7-0.1l-58.4-6.5L249.9,259.4L249.9,259.4z"/>
		</g>
		<g id="XMLID_2657_">
			<path class="st12" d="M318,406.4c-0.6,0-1-0.1-1.3-0.4c-1.8-1.6-0.7-3.6,2.9-10.3c0.9-1.6,1.9-3.4,3-5.6
				c3.1-5.8,0.4-10.3-2.1-14.6c-1.9-3.2-3.7-6.3-2.4-9.3c2.1-5.1,4.5-18.2,5.2-21.8c-2.5-0.9-9.5-3.5-11.6-7.9
				c-0.8-1.6-0.8-3.3-0.1-5c3.6-8.5,2.1-17.6,2.1-17.7l-0.1-0.8l10.7-5.5l0.5,0.4c0.6,0.4,14,10,23,41.2c5.5,19.4-0.6,33-6.6,41
				C332.7,401.4,321,406.4,318,406.4C318,406.4,318,406.4,318,406.4z"/>
			<path d="M324.2,308.9c0,0,13.6,9.4,22.6,40.6c10.9,38.5-23.5,55.8-28.7,55.8c-0.3,0-0.5,0-0.6-0.1c-1.5-1.3,0.4-3.8,6.2-14.5
				c5.7-10.8-7-17.9-4.5-24c2.5-6.1,5.4-22.9,5.4-22.9s-15-4.3-11.9-11.7c3.8-8.9,2.2-18.3,2.2-18.3L324.2,308.9 M324.3,306.4
				l-1.1,0.6l-9.4,4.8l-1.4,0.7l0.3,1.6c0,0.1,1.4,8.9-2,17.1c-0.8,1.9-0.8,4,0.1,5.8c2,4.3,8.2,7,11.3,8.1c-0.8,4.5-3,16-4.9,20.7
				c-1.4,3.5,0.5,6.9,2.5,10.2c2.5,4.3,4.9,8.4,2.1,13.6c-1.2,2.2-2.2,4-3,5.6c-1.8,3.2-2.8,5.2-3.4,6.6c-0.3,0.8-1.2,3.2,0.7,4.9
				c0.5,0.4,1.2,0.7,2,0.7c4,0,15.8-5.7,24-16.6c6.2-8.2,12.4-22.1,6.8-41.9c-9.1-31.6-22.8-41.4-23.4-41.8L324.3,306.4L324.3,306.4
				z"/>
		</g>
		<path id="XMLID_2656_" class="st13" d="M320.9,315c0,0,14.3,12.9,22.2,29.4c0,0-7.2-19.7-18.3-32.6L320.9,315z"/>
		<path id="XMLID_2655_" d="M320,317.7c0,0,18.6,15.2,23.1,26.7c0,0-9.5-21.2-18.6-28L320,317.7z"/>
		<g id="XMLID_2797_">
			<path class="st12" d="M312.7,318c-17.4,0-29.7-11.3-30.2-11.8l-0.6-0.6l0.5-0.7c3.6-5.8,17.3-19.2,17.9-19.7l0.3-0.3l21.1,1.4
				l0.3,0.2c0.2,0.2,2.3,1.8,2.3,4c0,0.6-0.1,1.4-0.7,2.2c1.4,1.7,2.5,3.2,3.3,4.4c1.5,2.3,0.6,4,0.2,4.8c0,0.1-0.1,0.1-0.1,0.2
				c0.5,1.2,4.2,5.1,7.6,8l1.1,1l-1.3,0.8C327.5,315.8,320.2,318,312.7,318C312.7,318,312.7,318,312.7,318z"/>
			<path d="M301,285.8l20.3,1.3c0,0,3.7,2.9,0.8,5.3c1.5,1.7,2.9,3.5,3.9,5c1.6,2.5-0.3,3.7-0.2,4.4c0.4,2.2,8,8.8,8,8.8
				c-7.5,4.5-14.6,6.2-21.1,6.2c-17.2,0-29.5-11.5-29.5-11.5C286.9,299.6,301,285.8,301,285.8 M300.2,283.6l-0.7,0.7
				c-0.6,0.6-14.4,14.1-18.1,19.9l-0.9,1.5l1.3,1.2c0.5,0.5,13.1,12.1,30.9,12.1c7.6,0,15.1-2.2,22.2-6.5l2.5-1.5l-2.2-1.9
				c-2.9-2.5-6.1-5.8-7.1-7.2c0.5-1,1.3-3-0.4-5.6c-0.8-1.1-1.7-2.4-2.9-3.9c0.4-0.8,0.5-1.5,0.5-2.1c0-2.6-2.3-4.5-2.7-4.8
				l-0.5-0.4l-0.7,0l-20.3-1.3L300.2,283.6L300.2,283.6z"/>
		</g>
		<path id="XMLID_2654_" class="st13" d="M322.1,292.4c0,0-17.5-4.7-22.1-0.9c0,0,2.8-4.8,4.8-5c2-0.2,17.9,2.2,17.9,2.2
			S325,290.6,322.1,292.4z"/>
		<path id="XMLID_2653_" class="st13" d="M333.8,310.7c0,0-30.5,1.1-41.2-8.6l-5.4,5.4C287.2,307.5,309.5,325.1,333.8,310.7z"/>
		<path id="XMLID_2652_" d="M291.2,299.4c0,0,10.9,10.8,33.9,11.5c0,0-14.5,3-28-2c0,0,7.2,5.2,19.5,4.8c0,0-11.7,2-25.6-4.3
			c0,0,11.8,7.7,25.5,7.3c0,0-11.8,3.9-31.9-8.6L291.2,299.4z"/>
		<g id="XMLID_2651_">
			<path class="st14" d="M369.7,420.1c-1-10.9-1.8-20.4-1.8-20.4c-49.5,16.5-77.4,8.2-77.4,8.2s-14.9,8.2-27,18.1
				C276.9,433,315.4,447.9,369.7,420.1z"/>
		</g>
		<path id="XMLID_2650_" class="st15" d="M299.2,414.6c0,0,35.8,4,72.9-12.6"/>
		<path id="XMLID_2649_" class="st15" d="M371.4,414.4c-35.7,20.1-73.3,15.7-73.3,15.7"/>
		<g id="XMLID_10804_">
			<path id="XMLID_2647_" class="st16" d="M474.6,633.7c0,0,5.2,11.7-1,24.3"/>
			<path id="XMLID_2646_" class="st16" d="M480.3,609.8c0,0,9.6,15.6,8.8,27.8"/>
			<path id="XMLID_2645_" class="st16" d="M480.4,595.9c0,0,17.3,15.8,16.4,34.1"/>
			<path id="XMLID_2644_" class="st16" d="M479.1,587.4c0,0,12.3,17.6,20.4,24.4"/>
			<path id="XMLID_2643_" class="st16" d="M478.5,622.8c0,0,7.1,15.7,4.5,27.8"/>
			<path id="XMLID_2642_" class="st16" d="M481.1,603.8c0,0,12.3,13.7,12.7,29.9"/>
			<path id="XMLID_2640_" class="st16" d="M479.8,617.8c0,0,7.3,14.6,7.1,25.2"/>
			<path id="XMLID_2639_" class="st16" d="M476.3,629.1c0,0,6.2,13,3,26.8"/>
			<path id="XMLID_2638_" class="st14" d="M480.3,586.4c0,0-1.7-1.4-2.6-2c0.3,9.3,0.2,31.8-5.6,47.3c1.1,1.7,1.9,3.3,2.1,4.7
				C486.4,609.9,480.3,586.4,480.3,586.4z"/>
			<g id="XMLID_2637_">
				<path class="st14" d="M465.8,625.6c-2.6-2.9-5.8-6.1-9.4-9.8c-24.2-24.6-64.6-65.7-74.6-137.3c-3.1-15.4-27-28.6-27.2-28.8
					l-1.8-1l18.7-9.3l0.4,0.1c1.2,0.3,28.8,7,32,29.2c3.4,23.4,13.1,46.3,28.8,68.2c13.6,19,28.7,32.9,38.9,41.3l0.4,0.3l0,0.5
					c0.3,6.6,0.9,29.3-4.2,46.2L467,627L465.8,625.6z"/>
				<path d="M371.5,440.5c0,0,28,6.5,31.2,28.3c3.9,27,15.8,50.3,29,68.7c14.1,19.7,29.8,33.9,39.1,41.5c0.3,7.1,0.9,29.3-4.2,45.9
					c-19.9-21.9-72.3-64.4-83.8-146.5c-3.2-16.1-27.8-29.6-27.8-29.6L371.5,440.5 M371.2,438.2l-0.7,0.3l-16.5,8.2l-3.7,1.8l3.6,2
					c0.2,0.1,23.7,13.1,26.7,28.1c4.4,31.2,15.3,60.4,32.4,86.9c14.5,22.5,30.7,38.9,42.6,51c3.6,3.7,6.8,6.9,9.4,9.8l2.6,2.8
					l1.1-3.6c5.2-17.1,4.6-40,4.3-46.6l0-1l-0.7-0.6c-10.2-8.3-25.1-22.1-38.7-41.1c-15.6-21.8-25.2-44.6-28.6-67.8
					c-3.3-23-31.6-29.8-32.8-30.1L371.2,438.2L371.2,438.2z"/>
			</g>
			<path id="XMLID_2636_" class="st17" d="M477.7,584.4c-1.4-1-3.8-2.8-7-5.4c0.3,7.1,0.9,29.3-4.2,45.9c2.3,2.6,4.2,4.9,5.6,6.9
				C478,616.2,478,593.7,477.7,584.4z"/>
		</g>
		<g id="XMLID_2635_">
			<path class="st17" d="M262.6,427c-16.7,13.6-27.4,29.4,12.5,32.5c68.8,5.4,96.4-19,96.4-19c-0.6-6-1.2-13.5-1.8-20.4
				C318.5,444.4,278.2,434,262.6,427z"/>
		</g>
		<path id="XMLID_2633_" d="M296.4,485.7c0,0,48.8-69.2-26.5-167.1L296.4,485.7z"/>
		<g id="XMLID_2632_">
			<path class="st4" d="M214.5,509.7c-9.7,0-16.2-0.7-16.3-0.7c-0.3,0-0.6-0.2-0.7-0.4c-0.2-0.2-0.2-0.5-0.2-0.8l16.4-94
				c0-2-0.7-35.3-12-55c0-0.1-0.1-0.1-0.1-0.2c-0.1-0.2-5.7-18.7-10.4-37.7c-9.6-39-5.7-41.8-4.3-42.8c6.1-4.4,10.7-5.3,15.7-5.3
				c1.7,0,3.5,0.1,5.2,0.2c0.6,0,1.3,0.1,1.9,0.1c6.8,0,14.7-2.3,19-4.5c0.1-0.1,0.3-0.1,0.5-0.1c0.3,0,6.2,0,8.9,3.4
				c0,0,0,0.1,0.1,0.1c0.3,0.4,25.7,38.7,39,57.5c17.9,25.4,42.2,86.3,20,153.1c0,0.2-0.1,0.3-0.2,0.4
				C274.7,506.2,235.8,509.7,214.5,509.7z"/>
			<path d="M229.2,269.4c0,0,5.6,0,8.1,3c0,0,25.5,38.4,39,57.5c13.4,19.1,43.8,80.1,19.9,152.2c-21.9,23-60,26.5-81.7,26.5
				c-9.8,0-16.2-0.7-16.2-0.7l16.4-94.1c0,0-0.3-35-12.1-55.7c0,0-22.6-73.9-15.1-79.3c5.7-4.1,10-5.1,15.1-5.1
				c1.6,0,3.3,0.1,5.1,0.2c0.7,0,1.3,0.1,2,0.1C216.8,274.1,224.8,271.6,229.2,269.4 M229.2,267.3c-0.3,0-0.7,0.1-1,0.2
				c-4.3,2.1-11.9,4.4-18.5,4.4c-0.6,0-1.3,0-1.9-0.1c-1.7-0.1-3.5-0.2-5.2-0.2c-5.2,0-10,0.9-16.3,5.5c-1.8,1.3-3.4,4.3-1.7,16.7
				c0.9,6.9,2.8,16,5.6,27.2c4.7,19,10.3,37.6,10.4,37.8c0,0.2,0.1,0.3,0.2,0.4c11,19.2,11.8,51.6,11.8,54.4l-16.4,93.9
				c-0.1,0.6,0,1.2,0.4,1.7c0.4,0.5,0.9,0.8,1.5,0.8c0.3,0,6.6,0.7,16.4,0.7c21.4,0,60.7-3.5,83.2-27.2c0.2-0.2,0.4-0.5,0.5-0.8
				c10.5-31.6,11.9-64.3,4.1-97.1c-7.4-31.3-20.5-51.5-24.3-57c-13.3-18.8-38.7-57.1-39-57.5c0-0.1-0.1-0.1-0.1-0.2
				C236,267.4,229.9,267.3,229.2,267.3L229.2,267.3z"/>
		</g>
		<g id="XMLID_2631_">
			<path class="st18" d="M189.7,764c-0.8-0.8-19.1-17.8-22.6-33.9c-5.6,6.6-19.9,22.8-30,27.2l-3.7,1.6l1.6-3.7
				c0.1-0.2,8.5-20.3,9.6-32.3c1-11.7,8.3-29.3,12.2-35.8c-2.6-1.2-7.9-3.3-13.3-3.3c-1.4,0-2.7,0.1-3.9,0.4l-4,0.9l2.3-3.4
				c0.1-0.2,14.9-22.6,19.7-44.6c2.6-12.3,20.5-44,37.8-74.6c15-26.5,29.1-51.5,32.1-61.6c6.5-22.1,31.3-34.7,34.2-35
				c0.3,0,0.7,0,1,0c2.3,0,4.9,0.7,7.5,1.5c3,0.9,6.4,1.9,10.1,1.9c0.8,0,1.6,0,2.3-0.1c0.4,0,0.7-0.1,1.1-0.1
				c8.3,0,11.5,11.8,14.9,24.2c2.9,10.7,6,21.7,12,26.2l4.8,3.5l-5.9-0.6c-3.5-0.3-34.7-3.7-35.9-14.9c-1-9.8-7.3-21.3-7.3-21.4
				l-0.1-0.1l0-0.2c-0.3-0.9-1.4-3.3-2.9-3.3c-0.1,0-0.3,0-0.5,0.1c-2.4,1.6-11.4,19.5-18.9,36c-0.4,2.5-4.4,26.9-6.9,47.6
				c-1.5,12.3-4.7,30.9-7.5,47.3c-2.3,13.3-4.2,24.7-4.9,30.6c-0.3,2.6-0.5,5.3-0.7,8.2c-0.9,12.2-2.1,27.3-11.8,44.6
				c-12.3,21.8-21.1,60.1-19.7,65.5l1.3,5.3L189.7,764z"/>
			<path d="M262.6,467.5c4.7,0,10.5,3.4,17.6,3.4c0.8,0,1.7,0,2.5-0.2c0.3,0,0.6-0.1,0.9-0.1c13.5,0,12.3,40.1,26,50.1
				c0,0-33.3-3.2-34.4-13.4c-1.1-10.2-7.5-22-7.5-22s-1.3-4.4-4.4-4.4c-0.3,0-0.6,0-1,0.1c-3.8,1.1-19.9,37.1-19.9,37.1
				s-4.3,25.8-7,47.9c-2.7,22-10.8,64.5-12.4,78c-1.6,13.4-0.5,31.2-12.4,52.2s-21.5,60.2-19.9,66.7c0,0-21.5-19.9-22.6-36.6
				c0,0-19.4,24.2-31.7,29.6c0,0,8.6-20.4,9.7-32.8s9.7-32.3,12.9-36.6c0,0-7.7-4.2-15.6-4.2c-1.4,0-2.9,0.1-4.3,0.5
				c0,0,15.1-22.6,19.9-45.2c4.8-22.6,63.5-114,69.9-136c6.5-22,31.2-33.7,32.8-33.9C262.1,467.5,262.4,467.5,262.6,467.5
				 M262.6,464.3c-0.4,0-0.8,0-1.2,0.1c-3.1,0.3-28.8,12.9-35.6,36.2c-2.9,9.9-17.7,36-31.9,61.3c-17.4,30.7-35.3,62.5-38,75
				c-4.6,21.7-19.3,43.8-19.4,44.1l-4.5,6.8l8-1.9c1.1-0.3,2.3-0.4,3.5-0.4c4.1,0,8.3,1.3,11,2.4c-4.1,7.6-10.5,23.8-11.5,34.9
				c-1,11.7-9.4,31.6-9.4,31.8l-3.1,7.4l7.4-3.2c9.4-4.1,22-17.7,28.6-25.3c5,15.7,21.4,31,22.2,31.7l7.9,7.4l-2.6-10.5
				c-0.5-1.9,0.7-11.3,4.9-26.2c4.2-15.1,9.6-29,14.7-38.1c9.9-17.6,11.1-32.9,12-45.3c0.2-2.9,0.4-5.6,0.7-8.1
				c0.7-5.9,2.6-17.3,4.9-30.5c2.8-16.4,6-35.1,7.5-47.4c2.5-20.2,6.3-43.9,6.9-47.3c6.6-14.8,15-31.6,17.9-34.9
				c0.3,0.3,0.9,1.2,1.2,2.1l0.1,0.3l0.2,0.3c0.1,0.1,6.2,11.4,7.2,20.8c0.6,5.8,7.2,10.2,20,13.3c8.6,2.1,16.9,2.9,17.3,3l11.7,1.1
				l-9.5-7c-5.6-4.1-8.7-15.3-11.4-25.3c-3.6-13.1-7-25.4-16.5-25.4c-0.4,0-0.9,0-1.3,0.1c-0.7,0.1-1.4,0.1-2.1,0.1
				c-3.4,0-6.5-0.9-9.6-1.8C267.8,465.1,265.2,464.3,262.6,464.3L262.6,464.3z"/>
		</g>
		<path id="XMLID_2630_" d="M268.8,475.9c0,0,8.8,7.3,9.5,17.6c1.4,20.7,17.6,25.8,17.6,25.8s-21.5,0.4-23.3-19.4
			c-0.9-5.9-1.5-6.2-1.5-6.2L268.8,475.9z"/>
		<g id="XMLID_2629_">
			<path class="st19" d="M243.8,525.9c-0.7,0-1.4,0-2.2-0.1l-0.5-0.1l-0.3-0.4c-0.2-0.3-0.5-0.8,0.4-4.7c-3-0.9-11.8-3.9-16.2-6.4
				c-3.4-2-4.9-8-6.4-13.8c-0.9-3.7-1.8-7.2-3-8.8c-0.7-0.9-0.6-2.1,0.1-3.7c3.5-7.8,25.4-26.6,31.6-27.1l0.5,0l0.3,0.3
				c0.1,0.1,10.2,9.3,15.1,12c6.4,3.5,10.5,8.5,11,13.3c0.3,3.2-0.9,6.2-3.5,8.7c1.7,4.5-0.4,8.7-5.9,11.6c0.1,1.7,0.1,5.7-2.3,8.5
				c-1.5,1.8-3.7,2.7-6.6,2.7c0,0,0,0,0,0c-0.4,0-0.7,0-1.1,0C254.2,520.3,251.9,525.9,243.8,525.9z"/>
			<path d="M247.3,461.9c0,0,10.3,9.3,15.3,12.1c8.9,4.8,14.8,13.8,6.7,20.8c2.2,4.5-0.1,8.5-5.7,11.3c0,0,1.6,10.7-7.7,10.7
				c-0.6,0-1.3,0-2-0.1c0,0-0.6,8.2-10.1,8.2c-0.6,0-1.3,0-2-0.1c-0.5-0.1,0.7-4.8,0.7-4.8s-11.8-3.7-16.9-6.6
				c-5.1-3-5.9-18-9.1-22.3S240.8,462.5,247.3,461.9 M248,459.7l-0.9,0.1c-6.6,0.6-28.8,19.5-32.5,27.7c-0.9,1.9-0.9,3.5,0,4.8
				c1.1,1.4,2,5,2.9,8.4c1.5,6,3.1,12.3,6.9,14.5c4,2.3,11.9,5,15.5,6.2c-0.7,3.5-0.4,4,0,4.6c0.4,0.5,0.9,0.9,1.6,0.9
				c0.8,0.1,1.6,0.1,2.3,0.1c7.5,0,10.8-4.5,11.9-8c0.1,0,0.2,0,0.3,0c3.1,0,5.6-1,7.4-3.1c2.3-2.7,2.6-6.5,2.6-8.6
				c5.3-3.1,7.4-7.4,6-12c3.2-3.3,3.6-6.7,3.4-9.1c-0.6-5.2-4.9-10.5-11.6-14.1c-4.8-2.6-14.8-11.7-14.9-11.8L248,459.7L248,459.7z"
				/>
		</g>
		<path id="XMLID_2628_" class="st12" d="M176.8,694.3c0,0-3.9-4.3-8.6-5.4l-12.2,3.9c0,0-6.5,12.2-7.9,22.6c0,0,14.3-5,23.7-2.5
			c8.6,2.3,23.9,12.6,26.2,14.1c2.1-6.6,4.5-13.3,7.1-19.5l-24.4-24L176.8,694.3z"/>
		<path id="XMLID_2627_" class="st12" d="M221.3,657.7l-28-16.5l-7.5,22.9l28.3,25.1c0.1-0.2,0.2-0.3,0.3-0.5c4.2-9.4,6-18,6.9-25.8
			C221.4,659.7,221.3,657.7,221.3,657.7z"/>
		<path id="XMLID_2626_" class="st12" d="M201.2,615.8l23.7,15.1c0.1-0.1,0.1-0.1,0.2-0.2c1.1-6.8,2.5-15,4-23.5l-19.9-13.3
			L201.2,615.8z"/>
		<path id="XMLID_2625_" class="st12" d="M221.6,552.7c-2.5,2.5-7.2,19.7-7.2,19.7l18.2,12.8c1.1-7.2,2.1-13.9,2.8-19.3
			c0.1-0.6,0.2-1.3,0.2-1.9c0-0.2-0.1-0.3-0.1-0.3L221.6,552.7z"/>
		<path id="XMLID_2623_" class="st12" d="M226.6,534.8l12.3,5.5c1.4-9.4,2.6-17.1,3.2-20.4l-10.1-3.3L226.6,534.8z"/>
		<path id="XMLID_2622_" class="st17" d="M190.1,650.9c0,0-18.8-5.6-32.8-6.6c-2.6,8.8-6.4,17.2-9.8,23.9
			c9.1,2.4,26.2,7.5,32.2,12.9C179.7,681,189,656.7,190.1,650.9z"/>
		<path id="XMLID_2621_" class="st17" d="M204.8,606.1c0,0-18.9-6.9-27.9-7.2c-4.7,8.7-8.9,16.8-12.1,23.5
			c4.3,0.9,22.2,4.7,31.2,9.1L204.8,606.1z"/>
		<path id="XMLID_2620_" class="st17" d="M218.4,559.7c-3.1-1.8-12.2-2.8-17.8-3.2c-4.4,7.8-9,15.9-13.4,23.7
			c8.9,1.2,24.3,6.8,24.3,6.8L218.4,559.7z"/>
		<path id="XMLID_2619_" class="st17" d="M230.2,523.7c-1.9-1.1-6.1-1.9-10.2-2.4c-3.5,6.7-7.8,14.5-12.4,22.7
			c7.7,1.9,16.2,5.1,16.2,5.1L230.2,523.7z"/>
		<path id="XMLID_2618_" d="M177.2,702.2c-12.7-6.5-23.8-10.4-23.8-10.4l-14.2-9.1c17.4-2.5,36.4,9.7,36.4,9.7s15.8-45.9,18.8-59.2
			c3-13.3,19.9-52.3,22.8-70.1c2.9-17.7,13.3-43,13.3-43s-8.2-4.3-11.1-6.5l5.7-2.2l17,7.7l1,2.7l-9.3-1.1c0,0-7.5,16.7-13.8,42.7
			c-6.3,26-6.1,29-12.7,45.3c-6.6,16.3-9,24.9-11.3,35.5C193.7,654.9,182,692.9,177.2,702.2z"/>
		<path id="XMLID_2617_" class="st20" d="M246.1,512.3c-10-1.8-17.6-6.7-21.1-12.7l21-34.7l-27.4,25.8l0.8,1.4l-1.8,1.8
			c0,0,2.2,14.5,7,18.6c4.8,4,18,7.4,18,7.4l-0.7,4.8c10.8,1.5,11.2-8.8,11.2-8.8C243.5,524,245,514.3,246.1,512.3z"/>
		<g id="XMLID_2616_">
			<path class="st4" d="M209.6,501.6c-4.3,0-9.4-7.3-15.7-22.3c-5.2-12.5-21.9-23.4-35.3-32.2c-10-6.5-17.9-11.7-19.5-16.2
				c-1.9-5.1-7.9-13.5-13.8-21.7c-5.7-7.9-11.1-15.4-12.6-19.8c-2.4-7,5.2-19.6,22.6-37.4c8.7-8.9,18.6-22.7,29.4-41.2
				c1.5-2.6,3.1-5.8,4.8-9.3c5.6-11.3,11.9-24.2,20.4-24.2l0.6,0l0.3,0.2c18,13.4,26.4,42.4,22.9,61.1c-3,16.1-20.3,41-23.8,45.9
				c4.1,3.8,10.1,14,11.2,15.8c2.2,1.2,15.9,9.1,22.2,22.7c6.5,13.9,28.3,32.8,28.5,33l0.6,0.5l-0.3,0.7
				c-4.2,11.5-38.9,42.9-40.5,43.8C210.9,501.4,210.3,501.6,209.6,501.6L209.6,501.6z"/>
			<path d="M189.8,278.5c0.1,0,0.2,0,0.2,0c18.3,13.6,25.7,42.6,22.5,60c-3.2,17.5-24.2,46.2-24.2,46.2c4.3,3.2,11.8,16.4,11.8,16.4
				s15.3,8.1,22,22.3c6.7,14.2,28.8,33.3,28.8,33.3c-4,11-37.9,41.9-40.1,43.3c-0.4,0.2-0.8,0.4-1.4,0.4c-2.6,0-7.2-3.7-14.7-21.6
				c-9.1-21.8-51.1-38.2-54.8-48.4c-3.8-10.2-23.4-32.8-26.3-41.4s11.6-25.3,22.3-36.3c10.8-11,21.5-27.7,29.6-41.4
				C172,300.4,179.6,278.5,189.8,278.5 M189.8,276.3c-9.1,0-15.6,13.1-21.4,24.7c-1.7,3.4-3.3,6.6-4.8,9.2
				c-10.8,18.4-20.7,32.2-29.3,41c-17.9,18.4-25.4,31-22.8,38.5c1.5,4.5,7,12,12.7,20c5.8,8.1,11.8,16.5,13.7,21.4
				c1.8,4.9,9.8,10.1,20,16.8c13.3,8.7,29.8,19.5,34.9,31.7c8.6,20.6,13.7,23,16.7,23c0.9,0,1.8-0.2,2.5-0.7
				c2.5-1.5,36.7-32.7,40.9-44.4l0.5-1.4l-1.1-1c-0.2-0.2-21.8-19-28.2-32.6c-6.3-13.3-19.5-21.3-22.4-23c-1.4-2.4-6.5-11-10.5-15.1
				c4.5-6.3,20.6-30,23.4-45.5c1.7-9.4,0.5-21.2-3.3-32.5c-4.2-12.6-11.4-23.1-20.1-29.6l-0.5-0.4l-0.7,0
				C190,276.3,189.9,276.3,189.8,276.3L189.8,276.3z"/>
		</g>
		<path id="XMLID_2615_" d="M147,431.8c0,0,38.2,18,55.7,34.1l15.1-5.9C217.7,460,174.7,439.3,147,431.8z"/>
		<path id="XMLID_2614_" d="M228.2,335c0,0,46.5-12.9,65.1,44.6c0,0-7-65.1-65.6-60.5L228.2,335z"/>
		<g id="XMLID_2613_">
			<path class="st5" d="M303.4,452.6c2.4-42.1-23.4-109-38.7-121c-5.6-4.4-13.7-6.6-24.3-6.6c-10,0-18.6,2.1-18.7,2.1l-1.3,0.3v-1.4
				c0-24.5,1.9-53.8,1.9-54.1l0-0.3l0.2-0.3c7-8.9,24.6-9.3,25.3-9.3l1.2,0l-0.1,1.2c0,0.2-1.8,23.9,19.9,53.6
				c38.1,52,37.7,106.3,37.7,106.9c0.3,12.7,0.3,28.2-1.2,29.7l-2,2.1L303.4,452.6z"/>
			<path d="M247.8,263.2c0,0-2.2,24,20.1,54.3c38.4,52.3,37.5,106.2,37.5,106.2s0.6,27.4-0.9,28.9c2.5-43.4-24-110.1-39.1-121.9
				c-6.8-5.3-16.4-6.8-24.9-6.8c-10.3,0-19,2.2-19,2.2c0-24.7,1.9-54,1.9-54C230.1,263.5,247.8,263.2,247.8,263.2 M250.1,261l-2.4,0
				c-0.8,0-18.9,0.4-26.1,9.7l-0.4,0.5l0,0.7c0,0.3-1.9,29.7-1.9,54.2v2.7l2.7-0.7c0.1,0,8.6-2.1,18.5-2.1c10.3,0,18.2,2.1,23.6,6.4
				c7.1,5.6,17.4,25,25.4,48.1c9.3,26.6,13.9,52.8,12.8,71.9l-0.3,5.8l4-4.2c0.7-0.8,1.5-1.6,1.6-16.5c0-6.7-0.1-13.4-0.1-13.9
				c0-1,0.1-14.3-4.4-33.9c-4.2-18.5-13.4-46.2-33.5-73.5c-21.4-29.3-19.7-52.6-19.7-52.8L250.1,261L250.1,261z"/>
		</g>
		<path id="XMLID_2612_" class="st5" d="M144,354.1c0,0,42.1-45.7,47.3-71.8c0,0-6.1,5.9-11.8,13.8
			C171.7,306.9,168.4,318.9,144,354.1z"/>
		<g id="XMLID_2611_">
			<path class="st19" d="M237.2,248.3c-3.9,0-7.9-1.5-11.4-4.4c-7.3-6-9.7-14.3-9.5-20.1c0.2-4.4,1.8-8,4.5-9.8c1.4-1,3-1.5,4.9-1.5
				c6.4,0,13.6,5.7,14.4,6.3c0.9,0.5,8.3,5.4,9.6,16.1c0.4,3.5-0.5,6.8-2.7,9.2C244.6,246.7,241.1,248.3,237.2,248.3
				C237.2,248.3,237.2,248.3,237.2,248.3z"/>
			<path d="M225.7,213.6c6.3,0,13.8,6.1,13.8,6.1s7.8,4.6,9.1,15.3c0.9,7.2-4.5,12.2-11.4,12.2c-3.4,0-7.2-1.3-10.7-4.1
				c-10.5-8.6-11.6-23.7-5.1-28.2C222.7,213.9,224.2,213.6,225.7,213.6 M225.7,211.4c-2.1,0-3.9,0.6-5.5,1.6
				c-3,2.1-4.7,5.9-4.9,10.7c-0.2,6,2.3,14.7,9.9,21c3.7,3,7.8,4.6,12,4.6c4.2,0,8-1.6,10.5-4.5c2.4-2.7,3.4-6.3,3-10.1
				c-1.4-11-8.8-16.1-10-16.8C239.7,217.1,232.3,211.4,225.7,211.4L225.7,211.4z"/>
		</g>
		<g id="XMLID_2610_">
			<path class="st19" d="M301,286.9c-1.6-0.1-40.5-2.5-56.8-26.8l-0.2-0.3l-0.5-16.1l-18.7-26.4l-5.8-13.1l0.1-0.4
				c0.1-0.3,8.5-31,35.3-51.7c4.2-3.2,9.1-4.9,14.4-4.9c25.8,0,55.5,37.6,56.7,39.2l0.3,0.4l-0.1,0.5c-0.4,2.8-9.7,68.4-10.2,71
				c-0.6,2.8-12.2,25.4-13.5,28l-0.3,0.6L301,286.9z"/>
			<path d="M268.8,148.3c25.6,0,55.9,38.8,55.9,38.8s-9.7,68.3-10.2,71c-0.5,2.7-13.4,27.7-13.4,27.7s-39.8-2.2-55.9-26.3l-0.5-16.1
				l-18.8-26.6l-5.6-12.6c0,0,8.1-30.4,35-51.1C259.3,149.7,264,148.3,268.8,148.3 M268.8,146.2L268.8,146.2
				c-5.6,0-10.7,1.7-15.1,5.1c-27.2,20.9-35.4,51-35.7,52.2l-0.2,0.7l0.3,0.7l5.6,12.6l0.1,0.2l0.1,0.2l18.4,26.1l0.5,15.5l0,0.6
				l0.3,0.5c16.5,24.8,55.9,27.2,57.6,27.3l1.4,0.1l0.6-1.2c3.1-5.9,13.1-25.5,13.6-28.3c0.5-2.7,9.8-68.3,10.2-71.1l0.1-0.9
				l-0.6-0.7C325.1,184.2,295.2,146.2,268.8,146.2L268.8,146.2z"/>
		</g>
		<g id="XMLID_2609_">
			<path class="st19" d="M239.5,219.7c0,0-11.6-9.4-18-4.8c-6.5,4.6-5.4,19.6,5.1,28.2c10.5,8.6,23.4,2.7,22-8.1
				S239.5,219.7,239.5,219.7z"/>
		</g>
		<path id="XMLID_2608_" class="st20" d="M254.6,225c0,0,11.5,28.7,28.3,36.9c10.3,5,3.2,20.1,3.2,20.1l15.2,4.8
			c0,0,11.7-23.7,13.1-28.8C315.9,253,265,225,254.6,225z"/>
		<path id="XMLID_2607_" d="M303.5,289.6c0,0-9.9,29.6-37.1,33.9c0,0-32.5-41.9-29.6-49.7C239.7,265.9,303.5,289.6,303.5,289.6z"/>
		<path id="XMLID_2606_" d="M332.8,299.8c0,0-17.2-12.9-33.1-9.7c0,0,4-4.6,6.7-5.4c2.7-0.8,20.2-4.3,20.2-4.3
			S336.5,293.1,332.8,299.8z"/>
		<g id="XMLID_2796_">
			<path class="st21" d="M265.2,317.8c-5-6.4-30-38.5-30-43c0-4.5,5.4-16.9,8.5-18.2c0.2-0.1,0.4-0.1,0.7-0.1c1.2,0,2.5,1,5.5,3.3
				c7.2,5.6,22.2,17.1,50.6,24.7l9.5-18.1l0.8,0.2c0.3,0.1,8.1,2.1,23.2,22.3l1.3,1.8l-2.2,0c-0.2,0-16.1-0.4-28.2-2.5l-2.2,0.7
				c-1.4,3.6-10.8,24.1-36.4,29.4l-0.7,0.1L265.2,317.8z"/>
			<path d="M244.5,257.6c3.1,0,17.4,17.9,56.6,28.2l9.5-18.1c0,0,7.5,1.8,22.6,21.9c0,0-16.1-0.4-28.3-2.5l-3,0.9
				c0,0-8.2,23.5-35.8,29.2c0,0-29.8-38-29.8-42.3s5.4-16.1,7.9-17.2C244.3,257.6,244.4,257.6,244.5,257.6 M244.5,255.5
				c-0.4,0-0.7,0.1-1.1,0.2c-3.8,1.6-9.2,14.6-9.2,19.2c0,1.2,0,3.4,15.3,24c7.4,9.9,14.8,19.5,14.9,19.6l0.8,1.1l1.3-0.3
				c25.4-5.3,35-24.8,36.9-29.6l1.5-0.4c12.1,2.1,27.5,2.4,28.1,2.5l4.4,0.1l-2.7-3.5c-15.1-20.1-23-22.5-23.8-22.7l-1.6-0.4
				l-0.8,1.5l-8.7,16.6c-27.7-7.5-42.3-18.8-49.4-24.3C247.4,256.6,246,255.5,244.5,255.5L244.5,255.5z"/>
		</g>
		<path id="XMLID_2795_" class="st22" d="M237.3,184.4c0,0,14.3,47.3,34.7,61.6c20.4,14.3,57.5,14.8,66.9,9.4
			c9.4-5.4,15.6-14.8,15.6-14.8s-3.5-9.7-7-11c0,0-6.2-16.7-8.1-20.7c0,0,5.1-8.9,2.7-14.5c-2.4-5.6-10.5-2.2-10.5-2.2
			s3.2-6.2,2.7-7.8c-0.5-1.6-8.1-7.3-8.1-7.3s39.3-41.6,88.2-65.8c15.1-6.7,11.7-26.5,1.7-28.9c-9.9-2.4-11,7.8-32.5,19.6
			s-63.3,38.3-73.5,39.6c-10.2,1.3-9.9-5.4-18.3-5.9s-28.2,0.3-40.3,16.7S237.3,184.4,237.3,184.4z"/>
		<path id="XMLID_2605_" d="M247.7,165.2c0,0-5,10.1-7.4,18.6c0,0,3,11.6,6.7,16.9c0,0-5.4-12.4-4.4-17.1
			C243.7,178.9,247.7,165.2,247.7,165.2z"/>
		<path id="XMLID_2604_" d="M247.1,175.4c0,0-2.5,4.2-4.9,12.8c0,0,3,11.6,6.7,16.9c0,0-5.1-10.8-4.1-15.5
			C245.8,185,247.1,175.4,247.1,175.4z"/>
		<path id="XMLID_2603_" d="M247.7,184.3c0,0-2.2,3.9-3.4,9.2c0,0,3,11.6,6.7,16.9c0,0-5.1-10.8-4.1-15.5
			C247.9,190.2,247.7,184.3,247.7,184.3z"/>
		<path id="XMLID_2602_" class="st23" d="M286,166.8c0,0,0.8-4.7-2.2-5.7s-12.1-0.3-14.8,0.5c-2.7,0.8-8.9,9.9-9.7,14.5
			c0,0,2.4-16.1,11.8-20.2C280.6,151.9,290.3,155.1,286,166.8z"/>
		<path id="XMLID_2601_" d="M252.6,173.6c0,0,5.3-18,16.9-23.1c4.9-1.4,16.9,3.8,21.5-0.4c0,0-3.5,6.6-6.5,7.3
			c-3,0.7-13.2-2.5-17.3,1.2C263,162.3,252.6,173.6,252.6,173.6z"/>
		<g id="XMLID_10652_">
			<path id="XMLID_2600_" class="st23" d="M261,212.8c0.2,0,0.1-2.4,0.4-6.1c0.3-3.7,1-8.9,3.2-14.2c1.1-2.6,2.5-4.9,4.1-6.8
				c1.6-1.9,3.3-3.2,4.9-4.1c3.2-1.8,5.6-2.1,5.6-2.3c0-0.1-0.6-0.1-1.7,0c-1.1,0.2-2.6,0.5-4.4,1.4c-1.7,0.9-3.7,2.2-5.4,4.1
				c-1.7,1.9-3.3,4.3-4.4,7.1c-2.3,5.5-2.8,10.9-2.9,14.7C260.3,210.5,260.8,212.9,261,212.8z"/>
		</g>
		<g id="XMLID_10647_">
			<path id="XMLID_2599_" class="st23" d="M251.9,208.1c0.2,0,0.6-1.7,1.3-4.5c0.8-2.7,2-6.5,4-10.3c2-3.8,4.6-6.8,6.8-8.5
				c2.2-1.7,3.9-2.4,3.8-2.6c0-0.2-1.9,0.2-4.4,1.8c-2.5,1.6-5.4,4.7-7.5,8.6c-2.1,3.9-3.2,7.9-3.8,10.7
				C251.7,206.3,251.7,208.1,251.9,208.1z"/>
		</g>
		<g id="XMLID_2598_">
			<path class="st2" d="M261.8,181.8l0.3-1.3c0.2-0.6,4.2-15.9,13-17.5c1.2-0.2,2.4-0.3,3.5-0.3c6.2,0,8.1,3.4,8.2,3.5l0.2,0.4
				l-0.1,0.4c-0.1,0.2-1.8,5.8-3.1,8.7l-0.2,0.5l-0.6,0.1c-1.6,0.2-9.7,1.7-16.3,5.3l-0.2,0.1H261.8z"/>
			<path d="M278.7,163.8c5.6,0,7.3,3,7.3,3s-1.8,5.7-3,8.6c-3.4,0.5-10.8,2.2-16.7,5.4h-3c0,0,3.9-15.2,12.2-16.7
				C276.6,163.9,277.7,163.8,278.7,163.8 M278.7,161.6L278.7,161.6c-1.1,0-2.4,0.1-3.7,0.3c-9.3,1.6-13.5,16.6-13.9,18.3l-0.7,2.7
				h2.8h3h0.5l0.5-0.3c6.4-3.5,14.4-4.9,16-5.1l1.2-0.2l0.5-1.1c1.3-2.9,3.1-8.6,3.1-8.8l0.3-0.9l-0.5-0.8
				C287.6,165.3,285.4,161.6,278.7,161.6L278.7,161.6z"/>
		</g>
		<circle id="XMLID_2597_" class="st17" cx="276.6" cy="170.3" r="5.6"/>
		<circle id="XMLID_2596_" cx="276.6" cy="170.3" r="1.9"/>
		<g id="XMLID_2794_">
			<path class="st2" d="M299.5,220.5c-4-0.2-10.6-5.3-13.4-9.5c-1.2-1.7-1.4-2.8-1.2-3.3c0.5-1.3,1.8-1.5,5.1-2
				c3.1-0.4,7.2-1,12.6-3.3c7.9-3.3,19.8-6.6,25.8-8.1c-2.3,2.6-5.7,6.9-8.3,12.3c-4.2,8.6-14.5,13.9-20.1,13.9
				C299.8,220.5,299.6,220.5,299.5,220.5z"/>
			<path d="M325.3,196.2c-2,2.6-4.4,6-6.3,9.9c-3.9,8.1-14,13.3-19.2,13.3c-0.1,0-0.2,0-0.3,0c-2.9-0.1-8.2-3.6-11.5-7.7
				c-1.8-2.2-2.1-3.5-2.1-3.7c0.2-0.6,1.2-0.9,4.2-1.3c3.1-0.4,7.4-1.1,12.9-3.3C309.5,200.6,318.9,197.9,325.3,196.2 M331.7,192.2
				c0,0-18.6,4.6-29.6,9.1c-11,4.6-16.9,2.2-18.3,5.9c-1.3,3.8,9.4,14,15.6,14.3c0.1,0,0.3,0,0.4,0c6.3,0,16.9-5.8,21.1-14.5
				C325.2,198.2,331.7,192.2,331.7,192.2L331.7,192.2z"/>
		</g>
		<path id="XMLID_2595_" d="M323.1,167.7c0,0-9.2,3-11.7,4.5c-2.4,1.5-4.5,8.3-5.9,9.3c0,0,3.3-0.5,5.5-2.1
			C313.2,177.7,320.2,173,323.1,167.7z"/>
		<g id="XMLID_10623_">
			<path id="XMLID_2594_" class="st23" d="M311.3,184.2c0-0.1-0.5-0.2-1.3-0.1c-0.8,0.1-1.9,0.3-3.3,0.5c-1.3,0.2-2.9,0.4-4.3,0.1
				c-0.7-0.1-1.3-0.4-1.8-0.8c-0.5-0.4-1-1-1.3-1.7c-0.6-1.4-0.7-3.1-0.5-4.8c0.1-1.7,0.4-3.3,0.7-4.6c0.5-2.7,0.7-4.5,0.5-4.6
				c-0.1,0-0.3,0.4-0.7,1c-0.4,0.7-1,1.6-1.7,2.9c-0.7,1.2-1.4,2.8-1.9,4.7c-0.3,1-0.4,2-0.4,3.2c0,1.2,0.2,2.5,0.8,3.7
				c0.6,1.2,1.5,2.3,2.6,3c1.1,0.7,2.4,1,3.5,1c1.1,0,2.1-0.2,2.9-0.5c0.9-0.3,1.6-0.6,2.2-0.9c1.3-0.6,2.2-1.2,2.9-1.6
				C310.9,184.5,311.3,184.3,311.3,184.2z"/>
		</g>
		<g id="XMLID_10621_">
			<path id="XMLID_2593_" class="st23" d="M386.5,117.5c-0.1-0.2-5,1.3-12.7,4.8c-7.7,3.4-17.9,8.9-28.7,15.8
				c-10.8,6.9-20.3,13.5-27.2,18.2c-6.9,4.7-11.2,7.6-11,7.8c0.1,0.2,4.6-2.4,11.7-6.9c7.1-4.5,16.6-11,27.4-17.8
				c10.7-6.8,20.8-12.5,28.3-16.1C381.8,119.6,386.6,117.7,386.5,117.5z"/>
		</g>
		<g id="XMLID_10619_">
			<path id="XMLID_2592_" class="st23" d="M356.1,129.3c-0.1-0.2-3.7,1.5-9.4,4.3c-5.7,2.8-13.6,6.8-22.2,11.6
				c-2.1,1.2-4.2,2.4-6.2,3.6l-5.7,3.4c-3.7,2.2-6.9,4.2-9.5,6.1c-2.6,1.9-4.6,3.6-5.8,5c-1.2,1.3-1.7,2.2-1.6,2.3
				c0.1,0.1,0.7-0.7,2.1-1.8c1.3-1.2,3.4-2.7,6-4.5c2.7-1.7,5.9-3.7,9.6-5.8c1.8-1,3.8-2.1,5.8-3.3c2-1.2,4-2.4,6.1-3.6
				c8.5-4.8,16.3-8.9,21.9-12C352.8,131.6,356.2,129.5,356.1,129.3z"/>
		</g>
		<g id="XMLID_10616_">
			<path id="XMLID_2591_" class="st23" d="M405.5,101.7c-0.1-0.2-2.6,1-6.4,3.2l-15,8.4c-5.9,3.2-11.3,6-15.2,7.9
				c-4,1.9-6.5,3-6.4,3.2c0.1,0.2,2.7-0.5,6.8-2.1c4.1-1.6,9.7-4.2,15.6-7.5c5.9-3.2,11.1-6.4,14.8-8.8
				C403.4,103.5,405.6,101.9,405.5,101.7z"/>
		</g>
		<g id="XMLID_10614_">
			<path id="XMLID_2590_" class="st23" d="M288,230.4c-0.1,0.1,2.6,2.5,7.7,5.2c5.1,2.7,12.7,5.5,21.5,6c4.4,0.2,8.6-0.2,12.4-1.1
				c3.7-0.9,6.9-2.3,9.4-3.8c2.5-1.5,4.3-2.9,5.5-4c1.2-1.1,1.7-1.8,1.6-1.9c-0.2-0.2-2.7,2.3-7.7,4.9c-2.5,1.3-5.6,2.5-9.2,3.3
				c-3.6,0.8-7.7,1.2-11.9,1c-8.6-0.4-16-3-21.1-5.4C291,232.2,288.1,230.2,288,230.4z"/>
		</g>
		<g id="XMLID_10612_">
			<path id="XMLID_2589_" class="st23" d="M321.1,141.6c-0.1-0.2-1.7,0.5-4.2,2c-2.5,1.4-5.7,3.7-9.3,5.9c-3.6,2.2-7.1,3.8-9.7,4.8
				c-2.6,1-4.3,1.4-4.3,1.6c0,0.2,1.8,0.2,4.6-0.5c2.8-0.7,6.5-2.2,10.2-4.5c3.7-2.3,6.8-4.7,9.1-6.3
				C319.8,142.8,321.2,141.8,321.1,141.6z"/>
		</g>
		<g id="XMLID_2588_">
			<g>
				<g>
					<path class="st5" d="M218.4,332.6c0.1,0,0.3-0.9,0.5-2.5c0.2-1.6,0.3-3.9,0.2-6.8c-0.3-5.8-1.6-13.7-4.9-21.9
						c-3.2-8.2-7.8-14.9-12.1-18.9c-2.1-2-4.1-3.3-5.5-4.1c-1.4-0.8-2.3-1.1-2.3-1c-0.2,0.3,3.1,1.8,7,5.9
						c3.9,4.1,8.2,10.7,11.4,18.7c3.2,8,4.7,15.8,5.2,21.4C218.5,329,218.1,332.6,218.4,332.6z"/>
				</g>
			</g>
		</g>
		<path id="XMLID_2587_" d="M419.5,343.7c0,0,0.5-12.9,13.1-14c0,0-9,2.2-7.7,13.3L419.5,343.7z"/>
		<path id="XMLID_2586_" d="M421.9,342.9c0,0,2.3-12.8,23.1-9.2c0,0-13.5-1-17.2,8.4L421.9,342.9z"/>
		<g id="XMLID_2793_">
			<g>
				<path class="st5" d="M462.5,345.5c0.1-0.1-0.7-0.6-2-1.4c-0.3-0.2-0.7-0.4-1.1-0.7c-0.4-0.2-0.9-0.4-1.4-0.7
					c-1-0.5-2.2-1-3.5-1.5c-0.7-0.2-1.4-0.5-2.1-0.7c-0.7-0.3-1.5-0.4-2.3-0.7c-1.6-0.5-3.4-0.8-5.2-1.1c-0.9-0.2-1.9-0.2-2.9-0.3
					c-0.5-0.1-1-0.1-1.5-0.2c-0.5,0-1,0-1.5-0.1c-1,0-2.1-0.1-3.1,0c-1.1,0-2.1,0.1-3.2,0.1c-2.2,0.2-4.3,0.5-6.3,0.9
					c-0.5,0.1-1,0.2-1.5,0.3c-0.5,0.1-1,0.3-1.4,0.4c-0.9,0.3-1.9,0.5-2.8,0.8c-1.8,0.6-3.5,1.2-5,2c-0.8,0.4-1.5,0.7-2.2,1
					c-0.7,0.4-1.3,0.7-1.9,1.1c-1.3,0.7-2.3,1.4-3.2,2.1c-0.5,0.3-0.9,0.6-1.3,0.9c-0.4,0.3-0.7,0.6-1,0.8c-1.2,1-1.8,1.6-1.8,1.7
					c0.1,0.1,0.8-0.3,2.2-1.1c0.3-0.2,0.7-0.4,1.1-0.7c0.4-0.2,0.9-0.5,1.4-0.7c1-0.5,2-1.1,3.3-1.7c0.6-0.3,1.3-0.6,2-0.9
					c0.7-0.3,1.4-0.5,2.2-0.8c1.5-0.6,3.2-1.1,4.9-1.6c0.9-0.2,1.8-0.4,2.7-0.7c0.5-0.1,0.9-0.2,1.4-0.3c0.5-0.1,1-0.2,1.4-0.2
					c1.9-0.4,3.9-0.6,6-0.8c1-0.1,2.1-0.1,3.1-0.2c1-0.1,2,0,3,0c0.5,0,1,0,1.5,0c0.5,0,1,0.1,1.4,0.1c0.9,0.1,1.9,0.1,2.8,0.2
					c1.8,0.2,3.5,0.4,5.1,0.8c0.8,0.2,1.6,0.3,2.3,0.5c0.7,0.2,1.4,0.4,2.1,0.6c1.3,0.3,2.5,0.8,3.6,1.1c0.5,0.2,1,0.3,1.5,0.5
					c0.4,0.2,0.8,0.3,1.2,0.5C461.7,345.3,462.5,345.6,462.5,345.5z"/>
			</g>
		</g>
		<g id="XMLID_2792_">
			<path class="st5" d="M426.7,340.5c6-6.9,16-8.2,23.5-6c0,0-12.8-0.5-14.3,4.9L426.7,340.5z"/>
		</g>
		<path id="XMLID_2791_" class="st23" d="M297.8,174.2c0,0-6,11.9-15.3,18.3c-6.7,4.6-15.9,7-15.9,7s6.2,4,9.4,3.5
			c0,0,2.4,22,15.1,29.6c0,0-13.2-15.9-10.2-30.7c0,0,13.4-8.6,17.5-17.7L297.8,174.2z"/>
		<path id="XMLID_2790_" class="st23" d="M259.3,155.1c0,0,10.4-10.9,20.7-9.1c4.2,0.7,20.2,0,24.1-1.5c2.3-0.9-3-2.4-9-3.2
			C269.1,136.7,259.3,155.1,259.3,155.1z"/>
		<path id="XMLID_2789_" class="st23" d="M413.2,88.7c0,0,3.8,9.1-7,17.5c-10.8,8.3-53.2,30.7-61,37.4c-7.8,6.7-29,21.2-33.6,22.6
			c0,0,13.2-4.6,21.2-9.9c0,0-7.3,7.3-12.6,8.6c0,0,6.7-2.2,11.8-4.6c0,0-5.6,12.9-15.3,19.6c0,0,16.7-10.8,22-19.1
			s27.8-24.2,40.9-32.8c19.6-12.9,44.6-19.9,43.6-31.5c0,0-3.2,7-11,11.8c0,0,10.5-8.9,8.6-18.6c0,0-2.4,8.3-7,11.8
			C413.7,101.6,417.5,95.2,413.2,88.7z"/>
		<path id="XMLID_2788_" class="st23" d="M333.4,185.1c0,0-1.7,7.9-3.6,9c-1.1,0.6-13.5,2-24.5,6.5c-7.9,3.3-17.7,4.8-21.1,5.2
			l-1.2-6c0,0,14.8-0.7,23.1-5C314.5,190.5,329.7,184.5,333.4,185.1z"/>
		<path id="XMLID_2787_" class="st23" d="M338.3,208.6c0,0,4.3-6.3,2.3-9.4c-3.7-5.5-27.2,35.9-42.9,33.9
			c-10.6-1.2-14.1-11.6-14.1-11.6s1.7,13.6,17.8,13.5C317.6,234.8,332.1,210.6,338.3,208.6z"/>
		<path id="XMLID_2786_" class="st23" d="M280.8,201.3c0,0,5,21.2,18.1,23.8c0,0-9.9,0.9-16.1-4.1c0,0,6.8,8.2,22.2,5.6
			c0,0-8.8,3.6-17.7,2.5c0,0,10.2,4.8,22.9-3.8c0,0-3.8,10.2-14.2,8.4C285.6,231.9,271.6,208.5,280.8,201.3z"/>
		<path id="XMLID_2785_" class="st23" d="M318.4,240.5c0,0,5-3.6,6.5-10.8c0,0,1.4,6.6-0.9,10.9c0,0,6.5-5.7,6.1-16.7
			c0,0,2.5,8.8-0.9,16.1c0,0,6.3-7.7,5.4-19.5c0,0,3.4,8.8,1.8,16.5C336.3,237.1,326,243.2,318.4,240.5z"/>
		<path id="XMLID_2585_" class="st23" d="M342.7,242.8c0,0-7,9.1-19.6,11c-6.7,1-26.6,2.7-51.4-12.9c-11-8.1-10.8-23.4-10.8-23.4
			s3,12.6,12.9,18C310.7,255.5,334.9,248.4,342.7,242.8z"/>
		<path id="XMLID_2584_" class="st23" d="M408.6,90.1c0,0-3.8,7.8-27.7,18.6C380.9,108.6,403.5,93.3,408.6,90.1z"/>
		<path id="XMLID_2583_" class="st20" d="M237.4,224.7c0,0-12.5-7.9-15.4-3.9c-2.9,3.9,2.2,14.7,5.7,16.8c0,0-6.1-10-3.6-11.8
			c2.5-1.8,9,1.1,10.8,2.5c1.8,1.4-2.9,7.5,0.7,8.6S237.4,224.7,237.4,224.7z"/>
		<path id="XMLID_2582_" class="st13" d="M313.5,329.8c0,0,2.8,6.4,9.2,7.8s26.2,13.6,25.5,23.3c-0.7,9.7-26.5,1.3-29.1,6.3
			c0,0,5.2-16.7,5.5-23.5C324.5,343.7,307,339.9,313.5,329.8z"/>
		<path id="XMLID_2581_" class="st13" d="M326,297.5c-0.6-0.6-18.7,1.4-24.1-3.6c0,0,5.6,9.1,23.9,8
			C325.8,301.9,327.3,298.5,326,297.5z"/>
		<g id="XMLID_2784_">
			<path class="st5" d="M256.4,413.1c-0.1,0-0.1,0-0.2,0c-1.1-0.2-27.3-4.2-28-15.7c-0.7-10.7-5.1-34.5-5.9-36.4
				c-0.2-0.3-0.2-0.6-0.1-0.9c0.1-0.3,0.4-0.6,0.7-0.7c0.7-0.2,16.5-5.6,26.5-7c2.9-0.4,6.2-0.6,9.7-0.6c8.8,0,16.7,1.3,16.8,1.3
				c0.4,0.1,0.8,0.4,0.9,0.9c0.2,1.2,5.5,29.3,4.4,38.5c-1.1,9.6-23.3,20.1-24.3,20.5C256.7,413.1,256.5,413.1,256.4,413.1z"/>
			<path d="M259.1,352.9c8.9,0,16.6,1.3,16.6,1.3s5.4,29.1,4.4,38.2c-1,9.1-23.7,19.7-23.7,19.7s-26.4-3.9-27.1-14.7
				c-0.7-10.8-5.4-35.9-6.1-36.9c0,0,16.3-5.6,26.2-7C252.6,353.1,255.9,352.9,259.1,352.9 M259.1,350.8L259.1,350.8
				c-3.6,0-6.9,0.2-9.8,0.6c-10,1.4-26,6.8-26.7,7.1c-0.6,0.2-1.1,0.7-1.4,1.4c-0.2,0.6-0.1,1.1,0.1,1.6c0.8,2.2,5.2,25.5,5.8,36
				c0.8,12.2,26,16.3,28.9,16.7c0.1,0,0.2,0,0.3,0c0.3,0,0.6-0.1,0.9-0.2c2.4-1.1,23.8-11.3,24.9-21.4c1.1-9.3-4.2-37.6-4.4-38.8
				c-0.2-0.9-0.9-1.6-1.8-1.7C275.7,352,268,350.8,259.1,350.8L259.1,350.8z"/>
		</g>
		<path id="XMLID_2783_" class="st13" d="M328.3,381.7c0,0-2,11.5,3.4,9.3c7.3-2.9,14.9-24.4,14.9-24.4s-2.7,29-25.6,35.8
			c-1.7,0.5-2.7-1.1,0.5-5.6C324.7,392.5,328.3,381.7,328.3,381.7z"/>
		<path id="XMLID_2782_" class="st4" d="M229.5,377.5c1.1,6.5,2.2,13.7,2.4,18.2c0.6,9.6,24,13,24,13s20-9.3,21-17.4
			c0.4-3.9-0.4-11.8-1.5-19C257.5,372.4,239.7,375.4,229.5,377.5z"/>
		<path id="XMLID_2781_" class="st5" d="M245.1,463.3c-0.8-1.7-1.7-3.1-2.6-4.2c-0.1-0.2-0.2-0.4-0.4-0.6c-0.7-1-1.9-2.4-4-3.4
			c-1-0.5-2.3-0.8-3.6-0.9c-1.3-0.1-2.7,0.1-4.1,0.3c-2.9,0.4-5.9,1.3-9,2.3c-6.2,2.2-11.6,4.8-15.4,6.8c-3.8,2-6.1,3.3-6,3.5
			c0.1,0.2,25.1-6.7,25.1-6.7c10.8,6.5-13.7,33.9-13.7,33.9L245.1,463.3z"/>
		<path id="XMLID_2780_" class="st5" d="M439.2,330.8c0,0-10.8,0.5-14.7,8.4C424.5,339.2,425.6,326.5,439.2,330.8z"/>
		<path id="XMLID_2779_" class="st5" d="M403.7,354.9c0,0,15.1-13.2,38.4-8.9c0,0-23.9,2.4-33.6,12.4L403.7,354.9z"/>
		<path id="XMLID_2778_" class="st5" d="M136,388.2c0,0,22.4-10.4,37.6-8.3C173.6,380,151,372.4,136,388.2z"/>
		<path id="XMLID_2777_" d="M209.3,481.5c4.5-1.8,9.5-16.7,9.5-16.7s-5,6.8-10.4,8.1s-10.4,2-10.4,2S204.8,483.3,209.3,481.5z"/>
		<path id="XMLID_2776_" class="st5" d="M209.4,476.3c4.5-1.8,9.3-11.5,9.3-11.5s-5.7,5.5-11.1,6.8s-9.7,3.2-9.7,3.2
			S205,478.1,209.4,476.3z"/>
		<path id="XMLID_2775_" class="st5" d="M191.3,391.6c0,0-25.8-10.4-45.2-1.1C146.2,390.5,170.9,394.1,191.3,391.6z"/>
		<path id="XMLID_2774_" class="st20" d="M254.3,509.8c0,0,0.4,3-0.4,6.9c0,0,4.7,0.1,6-1C261.2,514.6,257.5,510.3,254.3,509.8z"/>
		<path id="XMLID_2773_" class="st20" d="M260.7,499.8c0,0,2.7,4.8,3,7.3C263.7,507.1,271.5,499.8,260.7,499.8z"/>
		<path id="XMLID_2772_" class="st20" d="M269.3,494.8l-1.4-3.9l-3.4-3.6c0,0,6.5-0.7,7.8,3.6C272.3,491,270.7,493.8,269.3,494.8z"
			/>
		<path id="XMLID_2771_" class="st10" d="M332.2,562.2c0,0,12.4,18.8,16.7,22c4.3,3.2,28.5,1.6,43,10.2c0,0-39.3-3.8-53.8,0
			c0,0-7-22-17.2-22C320.9,572.4,327.4,564.4,332.2,562.2z"/>
		<path id="XMLID_2770_" class="st10" d="M372.6,611.1c10.2,1.1,35.1-0.9,44.8,4.5c0,0-35.7,0.9-39.4,2.5s-25.3-6.5-31.7-25.8
			C346.2,592.3,362.3,610.1,372.6,611.1z"/>
		<path id="XMLID_2769_" class="st10" d="M403.7,607.4c0,0-29-5.4-40.9-4.8L351,589.1C351,589.1,374.7,599.3,403.7,607.4z"/>
		<path id="XMLID_2580_" class="st10" d="M256.9,639.1c0,0,9.1-3.2,12.9-10.8c3.8-7.5,21-25.3,31.2-30.1c0,0-16.7,21.5-21.5,30.1
			S261.2,649.3,256.9,639.1z"/>
		<path id="XMLID_2579_" class="st5" d="M475.1,789.7c-3.6-4.7-21.5-8.6-28.3-8.6c0,0,13.3,3.9,10.4,7.9
			C454.3,792.9,478.7,794.3,475.1,789.7z"/>
		<path id="XMLID_2578_" class="st5" d="M247.5,783.2c0,0-36.3,12.5-44.9,2.9c-4.7-5,6.5-8.6,12.2-4.3
			C219.1,785,247.5,783.2,247.5,783.2z"/>
		<path id="XMLID_2577_" class="st5" d="M241,644.8c0,0,7.9,80.3,2.2,115.4c0,0,8.6-58.8,6.5-113.3L241,644.8z"/>
		<path id="XMLID_2575_" class="st5" d="M421.7,634.1c0,0,4.3,0,6.5,1.4c0,0-5.4,79.6-7.9,118.3
			C420.2,753.8,416.6,672.1,421.7,634.1z"/>
		<g id="XMLID_2768_">
			<path class="st24" d="M227.9,214.5l0.4-1c0.3-0.7,7.9-16.9,16.5-20.3c1.4-0.5,2.7-0.8,3.9-0.8c2.7,0,4.6,1.4,5,3.6
				c0.4,2.3-1,5.4-5.3,7.1c-10.5,4.1-14.1,13-14.2,13.1l-0.4,1.1L227.9,214.5z"/>
			<path d="M248.8,193.5c5.3,0,5.8,6.2-0.7,8.6c-11.1,4.3-14.8,13.7-14.8,13.7l-4-1.9c0,0,7.6-16.5,16-19.7
				C246.6,193.7,247.8,193.5,248.8,193.5 M248.8,191.3c-1.3,0-2.8,0.3-4.3,0.9c-9,3.5-16.8,20.1-17.1,20.8l-0.9,1.9l1.9,0.9l4,1.9
				l2.1,1l0.8-2.1c0-0.1,3.5-8.6,13.6-12.5c4.9-1.9,6.5-5.5,6-8.3C254.4,193.1,252,191.3,248.8,191.3L248.8,191.3z"/>
		</g>
		<g id="XMLID_2767_">
			<circle class="st25" cx="245.6" cy="198.7" r="1.9"/>
		</g>
		<path id="XMLID_2766_" d="M228.7,619.5c0,0,21.8,20.2,33.1,18.6c11.3-1.6,29.8-27.7,29.8-27.7s-3.8,13.4-6.5,18.6
			c0,0,15.6,3,26.3-27.7c0,0,9.4,39.3-34.4,34.7c0,0-7,11.3-18.6,9.1c-11.6-2.2-19.7-14.2-31.5-4.1L228.7,619.5z"/>
		<path id="XMLID_2765_" d="M350,533.7c0,0-9.1,21.5-19.1,32.8c-9.9,11.3-19.4,27.7-23.9,46.2l19.1-26.3c0,0,3.8-9.7,11.3-16.1
			S350,533.7,350,533.7z"/>
		<path id="XMLID_2764_" d="M331.7,572.7c0,0,7.5,12.6,8.9,16.7s29.3-2.4,51.4,5.1c0,0-13.4-2.7-53.8,0c-4.3,0-9.9-20.2-9.9-20.2
			L331.7,572.7z"/>
		<path id="XMLID_2763_" d="M355.9,592.1c0,0,3.5,8.6,9.1,12.1c5.6,3.5,21.5,7,36.3,7c0,0-26.3,2.4-37.1-2.2
			c-10.8-4.6-15.6-12.9-16.7-15.6L355.9,592.1z"/>
		<path id="XMLID_2762_" d="M372.3,635.9c0,0,16.4-11,36.8-9.1c0,0-22.9-5.9-36.6,0.3L372.3,635.9z"/>
		<path id="XMLID_2761_" d="M435.2,641.5c0,0-5.4-14-35.2-15.6c0,0,34.4,1.9,37.1,4.6C439.8,633.2,435.2,641.5,435.2,641.5z"/>
		<path id="XMLID_2760_" d="M238.4,516.7c0,0,4.5,5.8,2.3,12.3l3.3-1.2C243.9,527.9,245.9,519.7,238.4,516.7z"/>
		<path id="XMLID_2759_" d="M254,507.5c0,0,1.5,9.4-1.9,13.7l3.4-2C255.5,519.2,257.2,514.6,254,507.5z"/>
		<path id="XMLID_2758_" d="M258.2,497.9c0,0,6.4,7,6,12.5l1.7-3.5C265.9,506.8,264.8,502.1,258.2,497.9z"/>
		<path id="XMLID_2757_" d="M264.5,487.3c0,0,6.4,7,6,12.5l1.7-3.5C272.1,496.3,271.1,491.5,264.5,487.3z"/>
		<path id="XMLID_2756_" d="M261.8,467.6c0,0,16.7-0.7,23.1,18.6c0,0,1.7-13.6-8.7-17.9C265.7,463.9,261.8,467.6,261.8,467.6z"/>
		<path id="XMLID_2755_" d="M303.5,455c0,0,48.4-2.7,69-20.3l1.9,4.6c0,0-23.6,20.2-66.8,23.2c0,0-4.1,16.1-11.3,23.1l-0.5-3
			C295.8,482.6,300.7,476.2,303.5,455z"/>
		<path id="XMLID_2754_" d="M323.3,345.3c-18.5-7.5-9.9-17.9-9.9-17.9c-5.6,9.7,6.8,10.8,20.8,18.8c14,8.1,13.4,16.7,13.4,16.7
			S341.7,353.2,323.3,345.3z"/>
		<path id="XMLID_2753_" d="M327.9,300.5c0,0-13.6,2-21.5-2.7c0,0,6.3,6.6,22.9,7.7l-2.5-3L327.9,300.5z"/>
		<path id="XMLID_2752_" d="M333.7,335.1c0,0-3.8-11.3-11.8-17.7l-7.7,1.4l0.2,5.2c0,0,2.9,5.4,7,8.4c0,0-3.2-5.7-3.9-8.8
			c0,0,5.9,9.1,9,12l-5.4-12.5c0,0,10,15.2,13.4,19l-7.2-15.2L333.7,335.1z"/>
		<path id="XMLID_2751_" d="M270.4,245.2c0,0,11,12.1,32.5,19.9c0,0,5.9,6.7-5.1,8.6c0,0,7,3,19.9-5.6c12.9-8.6,1.6-9.7,1.6-9.7
			S290.5,256,270.4,245.2z"/>
		<path id="XMLID_2750_" d="M301,285.8l7.3-18.6l7,0.9C315.4,268.1,310,279.5,301,285.8z"/>
		<path id="XMLID_2749_" d="M356.4,450.1c0,0,16.9,2.4,27.4,20.2c0,0-7-19.6-26.1-22.3L356.4,450.1z"/>
		<path id="XMLID_2748_" d="M359.1,447.7c0,0,16.9,2.4,27.4,20.2c0,0-7-19.6-26.1-22.3L359.1,447.7z"/>
		<path id="XMLID_2747_" d="M361.8,445.2c0,0,16.9,2.4,27.4,20.2c0,0-7-19.6-26.1-22.3L361.8,445.2z"/>
		<path id="XMLID_2746_" d="M364.5,442.8c0,0,16.9,2.4,27.4,20.2c0,0-7-19.6-26.1-22.3L364.5,442.8z"/>
		<path id="XMLID_2745_" d="M367.2,440.4c0,0,16.9,2.4,27.4,20.2c0,0-7-19.6-26.1-22.3L367.2,440.4z"/>
		<path id="XMLID_2744_" d="M323.1,349.8c0,0,1.1,7.5,0.7,9.7c0,0,2.3-8.2,2.2-14c0,0,1.1,6.6-0.5,14.7c0,0,3.4-8.6,3.4-12.7
			c0,0,0.4,10.8-1.3,14.7c0,0,3.2-8.8,3.8-14c0,0,0.2,5.7-0.5,10c0,0,2.5-5.2,3-8.8c0.5-3.6-10.6-5.7-10.6-5.7L323.1,349.8z"/>
		<path id="XMLID_2743_" d="M170,156.2c0,0,37.6-19.4,62.7-30.8c0,0-50.5,31.5-59.9,35.5C163.6,164.8,170,156.2,170,156.2z"/>
		<path id="XMLID_2742_" d="M225.2,72.9c0,0-7.9,17-11.5,29.9s-17.6,28.7-40.9,28.3c0,0,26.2-5.7,29.8-20.4S218.8,77.3,225.2,72.9z"
			/>
		<path id="XMLID_2741_" d="M244.3,162.4c0,0,7.3-9.9,10.2-14.5c-14.8,5.9-59.2,60.8-65.3,85c-3.1,12.1,28.3,15.5,35.8,8.9
			c-16.4-16.1-5.1-25.8-5.1-25.8s9.1-1.9,20.4,6.5c0,0-6.2-8.1-15.3-11.8l-1.3-12.4C223.6,198.2,229.8,178.3,244.3,162.4z"/>
		<path id="XMLID_2740_" d="M248.6,235c0,0-3.4,13.1-14.4,12.1C234.2,247.1,251.8,252.7,248.6,235z"/>
		<path id="XMLID_2739_" d="M238.9,225.3c0,0-11.3-11.6-16.9-4.6c-4.3,4.8,5.7,16.8,5.7,16.8s-7.3-13.1-3-15.8
			c4.3-2.7,12.9,6.7,12.9,6.7L238.9,225.3z"/>
		<path id="XMLID_2738_" d="M231.5,222.2c0,0-7.3-0.4-1.8,10.2c0,0-2-8.1,4.3-8.4L231.5,222.2z"/>
		<path id="XMLID_2737_" d="M342.1,204.1c0,0-5.2-1.3-10.8,7.3c-5.6,8.6-19.7,25.6-35.7,23.1c0,0,16.3,4.8,34.8-17.4
			c5.7-6.6,8.8-7.2,8.8-7.2L342.1,204.1z"/>
		<path id="XMLID_2736_" d="M312.3,183.5c0,0-11.3,7.7-14.7,0.4c-3.4-7.3,2.3-15.5,2.3-15.5s-7.3,4.6-6.5,19.6
			c0,0-12,18.8-27.8,10.9c0,0,13.4,15.2,31.2-9C296.9,189.9,303.5,192.2,312.3,183.5z"/>
		<path id="XMLID_2735_" d="M274.5,202.6c0,0-3.2,27.6,31,36.9c0,0-27.8-9.9-27.8-37.3L274.5,202.6z"/>
		<path id="XMLID_2734_" d="M332.8,190.6c0,0-13.5,1.6-26,7.2c-10,4.5-20.3,2.9-25.5,4.4c0,0-2.9,12.1,7,21.6c0,0-6.8-13.5-3.1-17.7
			c10.5-1.5,12.7-2.6,20.6-5.4c12-4.3,18.2-3.9,24.2-6.6C330.1,194.1,331.9,191.5,332.8,190.6z"/>
		<path id="XMLID_2733_" d="M317.2,179.3c0,0,7-5.9,10.9-15.7c0,0-14.3,4.3-22.7,1.7c0,0,13.4,2.6,29.3-8.7
			c15.9-11.3,37.8-28.8,50.7-34.1c0,0-36.4,23.1-53.9,40.5C331.4,162.9,326.6,173.4,317.2,179.3z"/>
		<path id="XMLID_2732_" d="M334.2,165.7c0,0,2.3-8.8,21.7-19.7C355.9,146,339,158.5,334.2,165.7z"/>
		<path id="XMLID_2731_" d="M413.2,88.7c0,0,5.6,13.2-23.7,26.8c-29.4,13.6-45.7,23.8-55.9,31.5c0,0,28.1-17.2,57.5-29
			C420.4,106.2,414.1,91.3,413.2,88.7z"/>
		<path id="XMLID_2730_" d="M420.8,93.8c0,0-1.8,12.2-23.1,19.9C397.6,113.7,419.5,112.1,420.8,93.8z"/>
		<path id="XMLID_2729_" d="M334,187c0,0-7.3-1.1-29.4,8.6c0,0,17.9-11.5,29.8-11.2L334,187z"/>
		<path id="XMLID_2728_" d="M288.1,197.6c0,0,5.6,0.5,12-0.5c0,0-7.2,2.7-17.6,4.3L288.1,197.6z"/>
		<g id="XMLID_2727_">
			<path d="M342.3,243.2c0,0-0.3,0.3-1,0.7c-0.6,0.4-1.6,1-2.9,1.6c-2.5,1.2-6.3,2.7-11.1,3.7c-4.7,1-10.4,1.5-16.5,1.2
				c-3-0.1-6.1-0.5-9.3-1.1c-3.1-0.6-6.3-1.3-9.3-2.2c-3.1-0.9-6.2-2-9.1-3.2c-2.9-1.3-5.7-2.8-8.3-4.5c-2.6-1.7-4.9-3.6-6.8-5.7
				c-2-2.1-3.5-4.3-4.7-6.5c-1.2-2.2-1.9-4.4-2.4-6.3c-0.5-1.9-0.7-3.7-0.8-5.1c-0.1-1.4-0.1-2.5-0.1-3.3c0-0.8,0.1-1.2,0.1-1.2
				c0-0.3,0.3-0.5,0.6-0.5c0.3,0,0.5,0.2,0.5,0.5l0,0c0,0,0,0.4,0.1,1.1c0.1,0.7,0.2,1.8,0.4,3.1c0.5,2.6,1.5,6.4,3.9,10.3
				c1.2,1.9,2.7,3.8,4.6,5.6c1.9,1.8,4.1,3.4,6.5,4.9c2.4,1.5,5.1,2.8,7.9,3.9c2.8,1.2,5.7,2.2,8.7,3c3,0.8,6,1.6,9,2.2
				c3,0.6,6,1,8.8,1.2c5.8,0.5,11.2,0.3,15.8-0.3c4.6-0.6,8.3-1.6,10.9-2.5c1.3-0.4,2.3-0.8,2.9-1.1c0.7-0.3,1-0.5,1-0.5
				c0.3-0.1,0.6,0,0.7,0.2C342.6,242.8,342.5,243.1,342.3,243.2z"/>
		</g>
		<path id="XMLID_2726_" d="M291.2,176.5c0,0-22,4.5-40.5,12.2C250.7,188.7,272.7,171.5,291.2,176.5z"/>
		<path id="XMLID_2725_" d="M320,138.7c0,0-10.4,7-26.5,9c-16.1,2-18.6-6.1-34.2,7.5c0,0,8.8-14.9,26.2-10.8
			C302.8,148.5,320,138.7,320,138.7z"/>
		<path id="XMLID_2724_" d="M303.4,144.7c0,0-14.3-6.6-26.5-2.5c0,0,13.3-6.6,33.7,0.9C310.5,143.1,308.6,143.7,303.4,144.7z"/>
		<path id="XMLID_2723_" d="M259.1,184.3c0,0,2.3-16.8,9.9-22.7c0,0-8.5,3.8-12.4,23.8L259.1,184.3z"/>
		<path id="XMLID_2722_" d="M254,186.9c0,0,0.9-10.9,5-16.9c0,0-2.3,7.9-1.2,15.2L254,186.9z"/>
		<path id="XMLID_2721_" d="M254.7,175c0,0-1.3,9.3,0.3,11.7l-3.1,1.3C251.8,188.1,252.4,180.4,254.7,175z"/>
		<path id="XMLID_2720_" d="M295.7,165.6c0,0,3-7.5,17.5-16.4c14.5-8.9,40.3-19.1,40.3-19.1S305.6,154.6,295.7,165.6z"/>
		<path id="XMLID_2719_" d="M302.1,167c0,0,1.9-5.4,11.9-12.1c10-6.7,27.9-14.7,27.9-14.7s-15.2,10.1-27.2,18.3
			C309.3,162.2,304.2,164.5,302.1,167z"/>
		<path id="XMLID_2718_" d="M291.5,155.8c0,0,3.2,0.6,9.4-2.4c6.2-3,15.2-9.6,15.2-9.6s-9.4,4.6-16.8,8.2
			C295.9,153.6,293.3,155.5,291.5,155.8z"/>
		<path id="XMLID_2717_" d="M322.4,201.3c0,0-10,3.3-16,7c-6,3.7-13.7,4.6-13.7,4.6s8,0.2,14.6-3.1c6.7-3.3,13-5.7,14.3-5.1
			L322.4,201.3z"/>
		<path id="XMLID_2716_" d="M315,200.4c0,0,1.3,5.5,0.1,9.9C315.1,210.3,318.9,205.3,315,200.4z"/>
		<path id="XMLID_2715_" d="M319.2,198.1c0,0,1.3,5.5,0.1,9.9C319.3,208,323.1,203.1,319.2,198.1z"/>
		<path id="XMLID_2574_" d="M307.4,203.6c0,0,1.3,5.5,0.1,9.9C307.5,213.5,311.3,208.5,307.4,203.6z"/>
		<path id="XMLID_2573_" d="M300.7,205.9c0,0,1.3,5.5,0.1,9.9C300.7,215.8,304.5,210.8,300.7,205.9z"/>
		<path id="XMLID_2572_" d="M243.8,255.4c0,0,30.3,24.1,63.5,24.8c0,0-1,8.2-3.1,8.5c-2.1,0.3-30.6-7.3-60.7-31.3L243.8,255.4z"/>
		<path id="XMLID_2571_" d="M397.3,83.1c0,0-52.2,37.6-91.4,58.6c0,0,17.2-3.2,35.5-14.5c18.3-11.3,55.4-30.7,59.7-38.2
			C405.4,81.5,397.3,83.1,397.3,83.1z"/>
		<path id="XMLID_2570_" d="M417.2,119.7c0,0-31.7,8.1-86.6,60.2l-4.3-2.7c0,0,65.6-59.5,88.2-65.8
			C414.5,111.4,421,115.9,417.2,119.7z"/>
		<g id="XMLID_2714_">
			<path class="st19" d="M389.1,423.8c-3.7,0-7.6-1.1-8.6-3.6c-7.4-0.5-10.8-5-11.7-6.5c-1.9-0.4-8.4-2.4-10-9.6
				c-1-1.1-2.1-1.6-3.2-2.1c-1.4-0.7-2.9-1.4-3.8-3.4l0-0.1l0-0.1c-1.1-3.4-0.9-6.2,0.5-8.4c2.8-4.4,9.7-5.1,13.8-5.6
				c0.3,0,0.6-0.1,0.9-0.1c3.5-2.6,10.6-4.4,12.7-4.9c1-2.2,4.5-6.4,6.1-8.3c0.8-0.9,2.4-2.9,2.2-4.1c0-0.2-0.2-0.5-0.8-0.8
				c-4.7-2.2-9.8-5.7-12.4-14.4c-0.8-2.9-0.6-5.4,0.6-7.6c2.2-3.7,6.7-4.7,6.9-4.8l1-0.2l0.3,1c1,3.3,8.8,11,12.6,11.8
				c4.1,0.9,8.7,4.1,9.3,4.5c1.8,1,26.5,14.8,22.3,31.9c-4.3,17.6-22.5,29.1-26.8,31c-1.3,0.6-2.5,1.2-3.5,1.7
				c-2.3,1.2-4.2,2.1-6.8,2.5C390.4,423.8,389.8,423.8,389.1,423.8z"/>
			<path d="M382.8,340.7c1.1,3.7,9.3,11.7,13.4,12.5c4.1,0.9,8.9,4.4,8.9,4.4s25.9,13.9,21.8,30.7c-4.1,16.8-21.8,28.3-26.2,30.3
				c-4.4,2-6.4,3.6-9.9,4.1c-0.5,0.1-1.1,0.1-1.7,0.1c-3.4,0-7.5-1.1-7.7-3.6c-8.9-0.3-11.8-6.5-11.8-6.5s-8.1-1.1-9.7-9.1
				c-2.7-3-5.6-2.4-7-5.4c-3.7-11.6,9.7-12.1,14.7-12.7c3.7-3.1,13.1-5,13.1-5c0.2-1.7,6.1-8.5,6.1-8.5s4.8-4.8,1.1-6.6
				c-3.7-1.7-9.2-4.8-11.8-13.7C373.4,342.7,382.8,340.7,382.8,340.7 M384.3,338.1l-2,0.4c-0.2,0-5.2,1.2-7.6,5.3
				c-1.4,2.4-1.7,5.3-0.7,8.4c2.7,9.1,8.1,12.7,13,15.1c0.1,0,0.1,0.1,0.2,0.1c0,0.6-0.9,2-1.9,3l0,0l0,0.1c-3.1,3.6-5.1,6.3-6,8.1
				c-2.6,0.6-8.9,2.3-12.4,4.8c-0.2,0-0.4,0-0.6,0.1c-4.3,0.5-11.5,1.3-14.6,6.1c-1.6,2.5-1.8,5.6-0.7,9.3l0,0.1l0.1,0.1
				c1.1,2.3,2.8,3.1,4.3,3.9c0.9,0.4,1.8,0.9,2.7,1.7c1.6,6.4,6.9,9.2,10.3,10c1.3,1.9,4.7,5.9,11.6,6.6c1.5,2.7,5.7,3.7,9.3,3.7
				c0.7,0,1.3,0,2-0.1c2.8-0.3,4.8-1.4,7.1-2.6c1-0.5,2.1-1.1,3.4-1.7c4.4-2,22.9-13.8,27.4-31.7c4.4-17.8-20.5-31.8-22.7-33.1
				c-0.8-0.6-5.4-3.8-9.6-4.6c-3.4-0.7-10.9-8.1-11.8-11L384.3,338.1L384.3,338.1z"/>
		</g>
		<g id="XMLID_2713_">
			<path class="st20" d="M359.9,403.6c1.6,8.1,9.7,9.1,9.7,9.1s3,6.2,11.8,6.5c0.3,3,5.9,3.9,9.4,3.5c3.5-0.4,5.6-2.1,9.9-4.1
				c4.4-2,22-13.5,26.2-30.3c1.8-7.4-2.2-14.2-7.2-19.6c-4.1,6.9-2.1,31.7-12.4,41.3c-15.4,14.3-15.1,5-15.1,5
				c-14.3,4.7-17.2-4.7-10.8-5.4c6.5-0.7,11.8-7.2,11.8-7.2c-5-1.1-11.1,4.7-18.3,3.2c-7.2-1.4-9.7-5.4-7.9-7.2
				c1.8-1.8,11.1-3.9,16.1-3.9s11.8-8.2,11.8-8.2s-10.4,4.3-14,3.9c-3.6-0.4-13.6,3.9-16.1,2.5c-2.5-1.4-10.4,0-10.4,0
				c-1.2,1-1.9,2-2.3,2.9c0.1,0.8,0.3,1.6,0.6,2.5C354.3,401.2,357.2,400.6,359.9,403.6z"/>
		</g>
		<path id="XMLID_2712_" class="st20" d="M393.7,366.3c-6.5-1.4-11.8-16.8-14.3-18.6c-2.5-1.8-3.3,4-3.3,4c2.6,8.9,8.1,12,11.8,13.7
			c3.9,1.6-1.1,6.6-1.1,6.6C391.8,369.7,393.7,366.3,393.7,366.3z"/>
		<path id="XMLID_2711_" d="M399.8,353.2c0,0,27.1-21.5,58.6-8.8c0,0-25.1-9.3-54.7,10.5L399.8,353.2z"/>
		<path id="XMLID_2710_" d="M412.1,413.3c0,0,14.8,4.6,25.8-30.4c0,0-2.4,25.3-15.1,32.5C410.2,422.7,412.1,413.3,412.1,413.3z"/>
		<path id="XMLID_2709_" d="M434.7,394.7c0,0,15.6-3.2,24.2-18.6c6.3-11.2,17.2-15.9,17.2-15.9s-8.9,5.6-15.9,19.1
			c-7,13.4-17.7,22.6-30.9,26.3L434.7,394.7z"/>
		<path id="XMLID_2708_" d="M472.8,366.1c0,0-6.9,5.4-9.8,12.2c-1.4,3.2-5,9.8-9.6,13.3c0,0,8.4-4.6,12-13.1
			C468,372.4,472.8,366.1,472.8,366.1z"/>
		<path id="XMLID_2707_" d="M136.8,389.1c0,0,37.6-14.5,58.3,3.8l-2.4-8.6C192.7,384.2,165.8,371,136.8,389.1z"/>
		<path id="XMLID_2706_" d="M148.3,376.7c0,0,23.1-1.1,38.7,8.9l4.6-1.6C191.6,383.9,182.7,369.7,148.3,376.7z"/>
		<path id="XMLID_2705_" d="M209.1,313.8c0,0,4.6,14.7-3.2,33.3c-6.7,16.1-19.1,35.2-19.1,35.2l-8.6-2.7c0,0,19.6-27.4,23.9-37.6
			C206.4,331.8,209.6,325.9,209.1,313.8z"/>
		<path id="XMLID_2704_" d="M202.4,328.8c0,0-2.2,19.1-26.9,48.7l-6.7-1.3C168.8,376.2,192.7,353,202.4,328.8z"/>
		<path id="XMLID_2703_" d="M188.1,443.1c0,0-39.5-14-45.4-20.4c-5.9-6.5-14.2-25-14.2-25s20.2,23.1,32.3,29.6
			S188.1,443.1,188.1,443.1z"/>
		<path id="XMLID_2702_" class="st5" d="M223.6,434.5c0,0-12.4-19.9-24.2-24.5c-11.8-4.6-32-3.8-43.3-8.9c0,0,20.4,2.2,33.1,1.9
			C201.8,402.8,212.3,408.4,223.6,434.5z"/>
		<path id="XMLID_2701_" d="M218.8,435.6c0,0-7.8-19.6-29.6-24.2c-21.8-4.6-28.8-3.8-28.8-3.8S204.2,416.5,218.8,435.6z"/>
		<path id="XMLID_2692_" d="M242.4,519.9l-3.6,10.2l-0.4-6.8l-14.7,62l11.5-62l-11.5,36.6l7.9-36.2l1.1-5c0,0,5.4-1.6,8.2,1.4"/>
		<polygon id="XMLID_2691_" points="232,520.1 218,550.2 227.4,521.5 208,564.9 221.3,530.1 198.7,571 224.1,520.4 211.6,538.7 
			221.3,515.1 		"/>
		<path id="XMLID_2690_" d="M212.8,590.2c0,0-3.2,33.9-3.2,52.2c0,18.3-20.4,65.6-20.4,65.6s17.2-53.8,15.1-79.6
			c0,0-3.8,35.5-11.3,46.8c0,0,8.1-36.6,7-49.5C198.9,612.8,212.8,590.2,212.8,590.2z"/>
		<polygon id="XMLID_2689_" points="154.2,689.7 145.1,713.3 158.5,700.9 158.5,716 163.9,701.5 161.8,723 168.8,700.9 169.8,710.6 
			176.8,694.3 		"/>
		<path id="XMLID_2688_" d="M291.9,640.7c0,0-14,9.7-26.3,10.8l-12.4,108.1c0,0,8.1-18.8,17.2-19.9c0,0-2.7-33.3,5.9-55.4
			C284.9,662.2,292.4,651.5,291.9,640.7z"/>
		<path id="XMLID_2686_" d="M394.6,632.7c0,0-2.2,44.1,3.8,68.8s-0.5,50.5-0.5,50.5s-3.2-40.9-12.4-67.2s-5.9-50-5.9-50L394.6,632.7
			z"/>
		<path id="XMLID_2685_" d="M387.6,761.2c0,0,3,21,17.7,21.5c14.8,0.5,30.7,8.1,42.5,13.4c11.8,5.4,28,1.1,28,1.1s-4.8,9.7-35.5,2.2
			c-30.7-7.5-36-4.3-40.9-4.8S386,781.6,386,781.6l2.7-7.5C388.7,774.1,384.9,765.5,387.6,761.2z"/>
		<path id="XMLID_2684_" d="M196.2,789.1c0,0,18.3,15.1,51.6,2.2c16.7-5.9,28.1-12,26.3-17.2c-2.2-6.5-12.9-5.9-12.9-5.9
			s12.4-4.3,11.3-10.8c0,0,10.2,23.7-2.7,28c-12.9,4.3-24.2,10.8-24.2,10.8S209.6,814.9,196.2,789.1z"/>
		<path id="XMLID_2683_" d="M351.6,396.4c0,0,2,3.6,7.9,3c5.9-0.5,12.9-4.5,19.7-4.5c6.8,0,11.3-3.9,11.3-3.9s-5.6,5.9-14.2,6.5
			c-8.6,0.5-12.4,6.8-17.6,5.7S351.6,399.6,351.6,396.4z"/>
		<path id="XMLID_2682_" d="M359.9,403.6c0,0,3.9,6.3,11.7,5.4c7.9-0.9,20.4-6.5,20.4-6.5s-19.2,11.7-24.4,10.2
			S358.6,406.6,359.9,403.6z"/>
		<path id="XMLID_2681_" d="M372.7,416.8c0,0,12.4,5,22.9-5c0,0-4.1,8.2-15.4,8.2C372,420.1,372.7,416.8,372.7,416.8z"/>
		<path id="XMLID_2680_" class="st26" d="M394.1,128.8c0,0-24.7,64-51.1,72.6c0,0,0.7-6.8-2.7-9.3c-1.6-1.2-5-0.7-8.5,1
			c3.5-6.7,4.2-9.6-4.4-13.7C334.4,170.2,382.2,132,394.1,128.8z"/>
		<path id="XMLID_2679_" class="st26" d="M166.1,138.5c0,0,55.4-11.3,107.5-41.4l2.7,5.9l-103.8,57
			C172.5,160,167.7,150.3,166.1,138.5z"/>
		<path id="XMLID_2678_" class="st26" d="M178.4,283.7c0,0-62.4-0.5-61.8-38.2c0.5-37.6,131.9-91.8,166-117.6
			c31.6-24,79.8-44.8,102.3-30.3l-58.1,33.9c0,0-22.6,17.2-44.1,15.1c-14-2.2-35,31.2-38.7,47.3s-35.5,23.7-24.2,43.6
			c0,0,7.5,16.1,24.2,8.1l0.5,10.2l-6.5,8.1l-15.1,7c0,0-24.7,0-29,3.8C189.7,278.3,178.4,283.7,178.4,283.7z"/>
		<path id="XMLID_2673_" class="st26" d="M420.4,82.5c0,0-7.5,3.2-7,8.6c0.5,5.4-62.9,49.5-75.3,54.3s-28,21-28,21
			s-15.6,11.8-12.4,19.9l-9.1,12.4c0,0,33.3-19.9,40.9-22.6c7.5-2.7,47.3-44.1,63.5-51.1C409.1,118,433.9,102.4,420.4,82.5z"/>
		<path id="XMLID_2668_" class="st26" d="M229.5,246c0,0,16.1,0.5,16.1-18.8c0,0,7.5,33.9,9.7,37.6c2.2,3.8-10.8-9.1-10.8-9.1
			l-0.5-10.2C244,245.5,238.1,251.4,229.5,246z"/>
		<path id="XMLID_2663_" class="st26" d="M261.2,218.6c0,0,1.6,45.7,17.2,58.1s16.7,25.3,16.7,25.3l29.6,3.2l10.2-14.5l-16.7-25.8
			c0,0,31.2-8.1,36-24.2C354.3,240.6,295.7,279.9,261.2,218.6z"/>
		<path id="XMLID_2634_" class="st26" d="M273.3,321.5c0,0,8.6,2.9,21.5,0.7c0,0,14.3,7.9,17.2,13.6c2.9,5.7,13.6-10,13.6-10l10-5.7
			l-3.6-24.4l-4.3-0.7l-7.9,7.9l5.7,7.2c0,0-28.7-1.4-32.3-2.9C293.3,307.1,282.6,318.6,273.3,321.5z"/>
		<path id="XMLID_2624_" class="st27" d="M205.9,297.1c0,0-21.5,66.7-54.5,84.6c0,0,33.7-2.9,43.7,8.6l8.6-21.5l5.7,38
			c0,0,10,10,17.9,26.5l10,10.8c0,0-22.9-83.9-20.8-111.8C218.8,304.3,205.9,297.1,205.9,297.1z"/>
		<path id="XMLID_2569_" class="st27" d="M129.5,417.9c0,0-16.1-28.7-9.7-39.1c0,0,12.9,36.6,34.4,47.3s33.3,17.2,33.3,17.2
			l-17.6-2.2l41.6,19c0,0-12.5,9.7-2.5,12.5c0,0,1.8,31.5,23.3-6.8c0,0-2.9,28.7-22.2,35.5c-8.6,2.5-13.3-12.9-13.3-12.9
			s-18.6-26.5-35.5-34.1C144.6,447,129.1,429.7,129.5,417.9z"/>
		<path id="XMLID_2568_" class="st27" d="M148.5,395.7c0,0,18.3,10.4,42.3,9.3c17.2,0,28.7,11.8,28.7,11.8s-12.9-17.2-27.2-18.3
			S148.5,395.7,148.5,395.7z"/>
		<path id="XMLID_2562_" class="st27" d="M284,363.4c0,0,20.1,66.7-12.5,104.7c0,0,8.2,3.2,14,1.8c5.7-1.4,10,12.5,10,12.5
			S323.8,424.7,284,363.4z"/>
		<path id="XMLID_2561_" class="st27" d="M223.8,368.8c0,0,19-7.5,25.1-7.9c6.1-0.4,18.3,1.4,18.3,1.4s-20.1,5.4-11.8,35.1
			c3.9,10.4,15.4,7.2,15.4,7.2s-9.3,14-15.4,16.8c-6.1,2.9-25.1-14-26.9-23.7C226.6,388.2,223.8,368.8,223.8,368.8z"/>
		<path id="XMLID_2551_" class="st26" d="M262.5,180.2c0,0,10.3-15.6,23.1-11.3l1.3-2.7c0,0-7.7-5.9-13.4-2.7
			C267.9,166.8,263.8,176.9,262.5,180.2z"/>
	</g>
</g>
</svg>
